<svg id="图层_1" data-name="图层 1" xmlns="http://www.w3.org/2000/svg" viewBox="0 0 820 731"><defs><style>.cls-1{fill:#f1861b;}.cls-2{fill:#f0bd53;}.cls-3{fill:#9bd5bb;}.cls-4{fill:#bc7a95;}.cls-5{fill:#a089ce;}.cls-6{fill:#23a6c4;}.cls-7{fill:#7eb2c4;}.cls-8{fill:#6ea5c2;}.cls-9{font-size:83.94px;font-family:Montserrat-Regular, Montserrat;letter-spacing:-0.04em;}.cls-10,.cls-9{fill:#fff;}.cls-10{font-size:101.55px;font-family:Montserrat-ExtraBold, Montserrat;font-weight:700;letter-spacing:-0.05em;}.cls-11{letter-spacing:-0.11em;}.cls-12{fill:none;}</style></defs><title>画板 1</title><path class="cls-1" d="M151.16,547.22c8.65,15,16.1,29.56,22.45,43.06l-.17-.58c-7.56-17.07-12-35.09-17.31-50.37a110,110,0,0,1-4.26-19.09c-16.14-17.4-51.15-48.33-81.2-28A98.58,98.58,0,0,0,60,500.45C60.93,500.13,113.34,481.51,151.16,547.22Z"/><path class="cls-2" d="M173.61,590.28c-6.36-13.5-13.81-28-22.45-43.06-37.82-65.71-90.23-47.1-91.13-46.77-27.84,25-17.36,50.1,13.83,56.56,34.64,7.18,46.16,10.62,72,38.1q1.75,1.86,3.34,3.88h27.33C175.44,596.08,174.47,593.17,173.61,590.28Z"/><path class="cls-1" d="M300.43,293.15a437.32,437.32,0,0,1,35-32.1c18.41-28.38,35.61-81.73-4.12-94.28-49.29-15.56-52,36-46.32,46.83,8,15.23,22.85,23.07,3.64,57.17A157.47,157.47,0,0,1,262.5,305c4.63,6.55,7.38,15.24,8.17,25.11A259.46,259.46,0,0,1,300.43,293.15Z"/><path class="cls-2" d="M165.44,542.36l-4.58-11.59s-3.34-4.44-9-10.53a110,110,0,0,0,4.26,19.09c5.35,15.28,9.75,33.3,17.31,50.37-.91-3.13-1.72-6.25-2.39-9.34A275.19,275.19,0,0,1,165.44,542.36Z"/><path class="cls-2" d="M262.5,305c-9.71-13.72-27.71-18-53.29-4-43.12,23.67-53.07,91.53-58,107.31-4.12,13.08-4.83,74.92.71,111.89,5.65,6.09,9,10.53,9,10.53l4.58,11.59c-2.64-35.75,3.18-66,13.92-97.71,13.74-40.52,32-56.11,56.76-46.83a315.14,315.14,0,0,1,23.35-49.69c3.36-5.82,7.09-11.88,11.2-18C269.88,320.24,267.13,311.55,262.5,305Z"/><path class="cls-3" d="M597.3,148c-10-9.47-44.78-20.52-61.37-6.31S521,184.26,527.65,189s5,11,5,11c-10,15.78-26.54,25.25-49.76,31.56-1.52.41-3.08.8-4.67,1.17.57-10-.65-26.15-35.13-24.84-31.2,1.19-70.85,22.93-107.65,53.12a437.3,437.3,0,0,0-35,32.1,259.46,259.46,0,0,0-29.76,37c-4.11,6.14-7.84,12.19-11.2,18a315.15,315.15,0,0,0-23.35,49.69c1.6.6,3.23,1.3,4.89,2.11a72.5,72.5,0,0,1,6.42,3.58q3.93-6.28,8.23-12.52c2.36-3.41,4.8-6.72,7.29-10l0,0,.15-.16a247.52,247.52,0,0,1,33.38-35.51c61.46-61.74,91.44-69.38,128.4-87,31-14.77,92.18-18.91,132-14.76,2.61-1.29,5.75-2.85,9.23-4.62l11.1-5.75c.08,0,23.45-15.9,23.45-15.9C630.48,185.84,607.26,157.43,597.3,148Z"/><path class="cls-4" d="M178,599q-2.45-4.58-4.52-9.3l.17.58q2.09,4.44,4,8.72Z"/><path class="cls-5" d="M176.49,599h1.15q-1.93-4.28-4-8.72C174.47,593.17,175.44,596.08,176.49,599Z"/><path class="cls-5" d="M247.42,403.51a72.5,72.5,0,0,0-6.42-3.58c-1.66-.81-3.29-1.51-4.89-2.11-24.73-9.28-43,6.31-56.76,46.83-10.74,31.69-16.56,62-13.92,97.71a275.17,275.17,0,0,0,5.63,38c.67,3.09,1.47,6.21,2.39,9.34q2.09,4.71,4.52,9.3h34.21c-14.14-57.77-6.81-121.59,28.07-183.43Q243.66,409.52,247.42,403.51Z"/><path class="cls-6" d="M262.89,381.06l0,0,.1-.13Z"/><path class="cls-7" d="M590.67,252.12c-6-4-18.32-6.84-33.83-8.45-39.85-4.14-101,0-132,14.76-37,17.58-66.94,25.22-128.4,87,28.18-24.61,60.68-42,94.08-53.33,76.26-25.95,157.17-20.63,201.83,1.09a18.28,18.28,0,0,1-2.26,5.92S612.23,266.32,590.67,252.12Z"/><path class="cls-8" d="M670.88,354.83c-5-33.81-74.63-49.3-74.63-49.3,33.17,19.72,39.8,47.89,38.15,62S675.85,388.64,670.88,354.83Z"/><path class="cls-8" d="M489.76,388.48c8.29-9.86-16.59-38-16.59-38s8.29,16.9,5,28.17S481.47,398.34,489.76,388.48Z"/><path class="cls-3" d="M693.5,163.74c1.66-23.67-36.08-46.75-46.44-15.78-11.61,34.72,1.66,42.61-46.44,83.64C648.72,223.71,691.84,187.42,693.5,163.74Z"/><path class="cls-1" d="M132.22,439.43c-9.32-14.5-8.24-17.88-10.83-60.68S96.25,360.4,96.25,360.4C84.87,381.45,107.08,421.08,132.22,439.43Z"/><path class="cls-2" d="M422.65,151.79c-20.05-12.56-31.24,7.71-31.24,7.71s-3.91,24-21.95,58.4C369.47,217.9,442.7,164.35,422.65,151.79Z"/><text class="cls-9" transform="translate(284.61 506.26)">Cuba s</text><text class="cls-10" transform="translate(281.31 598.98) scale(0.86 1)">NEW <tspan class="cls-11" x="265.04" y="0">WA</tspan><tspan x="437.98" y="0">VE</tspan></text><path class="cls-8" d="M502.71,470.16c9.32-6.33-12.11-31.53-12.11-31.53s6.29,14.15,1.74,22.29S493.4,476.5,502.71,470.16Z"/><path class="cls-12" d="M244.3,590.28l1.11,11.52"/><path class="cls-8" d="M390.5,292.06c-33.4,11.36-65.9,28.72-94.08,53.33A247.52,247.52,0,0,0,263,380.9h0l-.1.13h0c-2.49,3.24-4.93,6.55-7.29,10q-4.32,6.24-8.23,12.52-3.76,6-7.17,12.06C205.37,477.41,198,541.23,212.18,599h33.1c-3.13-23.76-3.36-58.5-3.36-82.09,0-33.14,18.71-72.26,18.71-72.26,7.09-20.73,66.34-77.33,94.54-52.08S390,383.1,395,372.05s10-41,18.24-58.39c1.84-3.86,5.41-6.93,9.83-9.39q9-1.89,18.56-3.1c2.5,2,4.41,5,6.4,7.63a38.6,38.6,0,0,0,5.85,6.11c2.42,2,6.24,3.68,8.45,1.43,1.21-1.23,1.32-3.12,1.71-4.8,1.08-4.69,4.74-8.46,9-10.81a29.42,29.42,0,0,1,3.16-1.51c22.9.21,48.18,3.23,76.39,9.69,24.23,5.24,33.83-3.44,37.54-9.86a18.28,18.28,0,0,0,2.26-5.92C547.66,271.42,466.75,266.11,390.5,292.06ZM288.7,353.25l-.19.19Z"/><path class="cls-8" d="M430.49,301.79c.74,1.47,4.34-.51,10,1.24s7.79,5.62,8.72,5c1.59-1.1-1.37-14.35-8.73-14.94C434.84,292.62,429.46,299.74,430.49,301.79Z"/></svg>