<svg id="图层_1" data-name="图层 1" xmlns="http://www.w3.org/2000/svg" viewBox="0 0 62.67 46.33"><title>LOGO_</title><path d="M60.49,5.17C60.65,3,57.22.93,56.28,3.74c-1.05,3.15.15,3.87-4.21,7.59C56.43,10.61,60.34,7.32,60.49,5.17Z" style="fill:#9bd5bb"/><path d="M35.92,4.09a1.94,1.94,0,0,0-2.83.7,19.51,19.51,0,0,1-2,5.3S37.74,5.23,35.92,4.09Z" style="fill:#f0bd53"/><path d="M11.28,40c.78,1.36,1.46,2.68,2,3.91v-.05c-.69-1.55-1.09-3.18-1.57-4.57a10,10,0,0,1-.39-1.73C9.88,35.94,6.7,33.13,4,35a9,9,0,0,0-1,.75C3.09,35.7,7.85,34,11.28,40Z" style="fill:#f1861b"/><path d="M13.32,43.88c-.58-1.22-1.25-2.54-2-3.91C7.85,34,3.09,35.7,3,35.72.48,38,1.43,40.27,4.27,40.86c3.14.65,4.19,1,6.53,3.46q.16.17.3.35h2.48C13.48,44.4,13.4,44.14,13.32,43.88Z" style="fill:#f0bd53"/><path d="M24.83,16.91A39.68,39.68,0,0,1,28,14c1.67-2.58,3.23-7.42-.37-8.56C23.15,4,22.91,8.72,23.42,9.69c.72,1.38,2.07,2.09.33,5.19A14.29,14.29,0,0,1,21.38,18a4.57,4.57,0,0,1,.74,2.28A23.54,23.54,0,0,1,24.83,16.91Z" style="fill:#f1861b"/><path d="M12.58,39.53l-.42-1.05s-.3-.4-.82-1a10,10,0,0,0,.39,1.73c.49,1.39.88,3,1.57,4.57-.08-.28-.16-.57-.22-.85A25,25,0,0,1,12.58,39.53Z" style="fill:#f0bd53"/><path d="M21.38,18c-.88-1.24-2.51-1.63-4.84-.36-3.91,2.15-4.82,8.31-5.27,9.74-.37,1.19-.44,6.8.06,10.15.51.55.82,1,.82,1l.42,1.05a21.55,21.55,0,0,1,1.26-8.87C15.08,27,16.75,25.57,19,26.41a28.6,28.6,0,0,1,2.12-4.51c.3-.53.64-1.08,1-1.63A4.57,4.57,0,0,0,21.38,18Z" style="fill:#f0bd53"/><path d="M51.77,3.74c-.9-.86-4.06-1.86-5.57-.57S44.84,7,45.44,7.46a1,1,0,0,1,.45,1,7.17,7.17,0,0,1-4.52,2.86l-.42.11c.05-.91-.06-2.37-3.19-2.25C34.94,9.29,31.34,11.26,28,14a39.68,39.68,0,0,0-3.17,2.91,23.55,23.55,0,0,0-2.7,3.35c-.37.56-.71,1.11-1,1.63A28.6,28.6,0,0,0,19,26.41l.44.19a6.58,6.58,0,0,1,.58.33q.36-.57.75-1.14c.21-.31.44-.61.66-.9h0a22.46,22.46,0,0,1,3-3.22c5.58-5.6,8.3-6.3,11.65-7.89,2.82-1.34,8.36-1.72,12-1.34l.84-.42,1-.52L52.07,10C54.78,7.17,52.67,4.6,51.77,3.74Z" style="fill:#9bd5bb"/><path d="M13.71,44.67q-.22-.42-.41-.84v.05l.36.79Z" style="fill:#bc7a95"/><path d="M13.58,44.67h.1l-.36-.79C13.4,44.14,13.48,44.4,13.58,44.67Z" style="fill:#a089ce"/><path d="M20,26.93a6.58,6.58,0,0,0-.58-.33L19,26.41c-2.24-.84-3.9.57-5.15,4.25a21.55,21.55,0,0,0-1.26,8.87A25,25,0,0,0,13.09,43c.06.28.13.56.22.85s.26.57.41.84h3.1A22.54,22.54,0,0,1,19.36,28Q19.67,27.47,20,26.93Z" style="fill:#a089ce"/><path d="M21.42,24.89h0Z" style="fill:#23a6c4"/><path d="M51.16,13.19a7.82,7.82,0,0,0-3.07-.77c-3.62-.38-9.16,0-12,1.34-3.35,1.6-6.07,2.29-11.65,7.89A25.33,25.33,0,0,1,33,16.81c6.92-2.35,14.26-1.87,18.32.1a1.66,1.66,0,0,1-.21.54S53.12,14.48,51.16,13.19Z" style="fill:#7eb2c4"/><path d="M58.44,22.51C58,19.44,51.67,18,51.67,18c3,1.79,3.61,4.35,3.46,5.62S58.89,25.58,58.44,22.51Z" style="fill:#6ea5c2"/><path d="M42,25.56c.75-.89-1.51-3.45-1.51-3.45A4.48,4.48,0,0,1,41,24.67C40.65,25.69,41.25,26.46,42,25.56Z" style="fill:#6ea5c2"/><path d="M9.56,30.19c-.85-1.32-.75-1.62-1-5.51S6.3,23,6.3,23C5.26,24.93,7.28,28.52,9.56,30.19Z" style="fill:#f1861b"/><path d="M19.73,43.88l.1,1" style="fill:none"/><path d="M33,16.81a25.33,25.33,0,0,0-8.54,4.84,22.46,22.46,0,0,0-3,3.22h0c-.23.29-.45.59-.66.9s-.51.76-.75,1.14-.44.73-.65,1.09a22.54,22.54,0,0,0-2.55,16.65h3a65.57,65.57,0,0,1-.31-7.45,18.36,18.36,0,0,1,1.7-6.56c.64-1.88,6-7,8.58-4.73s3.16-.86,3.61-1.86.9-3.72,1.66-5.3a2,2,0,0,1,.89-.85q.82-.17,1.68-.28a3.84,3.84,0,0,1,.58.69,3.5,3.5,0,0,0,.53.55c.22.18.57.33.77.13a.87.87,0,0,0,.16-.44,1.59,1.59,0,0,1,.81-1l.29-.14a32.37,32.37,0,0,1,6.93.88c2.2.48,3.07-.31,3.41-.89a1.66,1.66,0,0,0,.21-.54C47.26,14.94,39.92,14.46,33,16.81Zm-9.24,5.55,0,0Z" style="fill:#6ea5c2"/><path d="M36.63,17.7c.07.13.39,0,.9.11s.71.51.79.45-.12-1.3-.79-1.36C37,16.86,36.53,17.51,36.63,17.7Z" style="fill:#6ea5c2"/></svg>