<?xml version="1.0" encoding="utf-8"?>
<!-- Generator: Adobe Illustrator 21.0.0, SVG Export Plug-In . SVG Version: 6.00 Build 0)  -->
<svg version="1.1" id="图层_1" xmlns="http://www.w3.org/2000/svg" xmlns:xlink="http://www.w3.org/1999/xlink" x="0px" y="0px"
	 viewBox="0 0 165 45" style="enable-background:new 0 0 165 45;" xml:space="preserve">
<style type="text/css">
	.st0{fill:#FFFFFF;}
	.st1{fill:#6EA5C2;}
	.st2{fill:#9BD5BB;}
	.st3{fill:#F0BD53;}
	.st4{fill:#F1861B;}
	.st5{fill:#BC7A95;}
	.st6{fill:#A089CE;}
	.st7{fill:#23A6C4;}
	.st8{fill:#7EB2C4;}
	.st9{fill:none;}
</style>
<title>cuba_logo_final</title>
<path class="st0" d="M29,42c0.5,0,1.1-0.1,1.6-0.3c0.5-0.3,1-0.6,1.4-1l1.2,1.2c-1,1.2-2.5,1.9-4.1,1.9c-1.5,0-2.9-0.5-4-1.5
	c-2.1-2.2-2.1-5.7,0-7.9c1.1-1.1,2.6-1.6,4.1-1.6c1.6,0,3.1,0.6,4.1,1.8l-1.1,1.2c-0.4-0.4-0.9-0.8-1.4-1c-0.5-0.2-1-0.3-1.6-0.3
	c-1,0-2,0.3-2.7,1c-0.7,0.7-1.1,1.7-1.1,2.7c0,1,0.4,2,1.1,2.7C27.1,41.6,28,42,29,42z"/>
<path class="st0" d="M40,40v-4.4h1.7v8.1H40v-1.5c-0.9,1.5-2.8,2.1-4.3,1.2c-0.2-0.1-0.4-0.3-0.6-0.4c-0.6-0.7-0.9-1.5-0.8-2.4v-5
	H36V40c0,1.5,0.6,2.2,1.9,2.2c0.6,0,1.1-0.2,1.5-0.6C39.8,41.2,40.1,40.6,40,40z"/>
<path class="st0" d="M48,35.5c1,0,2,0.4,2.8,1.1c0.8,0.8,1.2,1.9,1.2,3c0,1.1-0.4,2.2-1.2,3c-1.3,1.5-3.6,1.6-5,0.2
	c-0.1-0.1-0.3-0.3-0.4-0.4v1.2h-1.7V32.4h1.7V37C45.9,36,46.9,35.4,48,35.5z M45.3,39.6c0,0.7,0.2,1.4,0.7,1.9
	c0.4,0.5,1.1,0.7,1.7,0.7c0.7,0,1.3-0.3,1.8-0.7c0.5-0.5,0.8-1.2,0.8-1.9c0-0.7-0.2-1.4-0.7-1.9c-0.4-0.5-1.1-0.8-1.8-0.8
	c-0.7,0-1.3,0.3-1.7,0.8C45.6,38.2,45.3,38.9,45.3,39.6L45.3,39.6z"/>
<path class="st0" d="M59.8,43.7h-1.5v-1.1c-0.7,0.8-1.7,1.2-2.7,1.2c-0.8,0-1.5-0.2-2.1-0.7c-0.6-0.5-0.9-1.2-0.8-1.9
	c0-0.7,0.3-1.4,0.9-1.8c0.7-0.4,1.6-0.6,2.4-0.6h2.2v-0.3c0-1.1-0.6-1.6-1.8-1.6c-0.8,0-1.7,0.3-2.3,0.8l-0.8-1.1
	c0.9-0.8,2.1-1.2,3.3-1.2c0.8,0,1.7,0.2,2.3,0.7c0.6,0.6,1,1.4,0.9,2.3L59.8,43.7z M58.1,40.7V40h-1.9c-1.2,0-1.8,0.4-1.8,1.2
	c0,0.4,0.2,0.7,0.5,0.9c0.4,0.2,0.8,0.3,1.3,0.3c0.5,0,1-0.2,1.4-0.5C57.9,41.6,58.1,41.1,58.1,40.7L58.1,40.7z"/>
<path class="st0" d="M70.9,41.2c0,0.7-0.3,1.4-0.9,1.8c-0.6,0.5-1.4,0.7-2.2,0.7c-0.6,0-1.2-0.1-1.8-0.3c-0.6-0.2-1.2-0.5-1.7-0.9
	l0.8-1.3c0.8,0.6,1.7,1,2.7,1.1c0.3,0,0.6-0.1,0.9-0.3c0.2-0.2,0.3-0.4,0.3-0.7c0-0.4-0.5-0.8-1.6-1.1l-0.2-0.1
	c-1.7-0.5-2.5-1.2-2.5-2.3c0-0.7,0.3-1.4,0.9-1.8c0.7-0.5,1.5-0.7,2.3-0.7c0.9,0,1.9,0.3,2.7,0.8L70,37.5c-0.6-0.4-1.4-0.7-2.2-0.7
	c-0.3,0-0.7,0.1-1,0.2c-0.2,0.1-0.4,0.4-0.4,0.7c0,0.3,0.2,0.5,0.4,0.6c0.2,0.1,0.5,0.2,0.8,0.3c0.3,0.1,0.6,0.2,0.9,0.2
	c0.3,0.1,0.5,0.2,0.7,0.3c0.3,0.1,0.5,0.3,0.8,0.4C70.6,39.9,70.9,40.6,70.9,41.2z"/>
<path class="st0" d="M83,30.8h3v12.9h-2.8l-4.7-7.2v7.2h-3V30.8h2.8L83,38V30.8z"/>
<path class="st0" d="M87.1,30.8h9.1v2.9h-5.8v2h5.2v3h-5.2v2h5.9v3h-9.2V30.8z"/>
<path class="st0" d="M110.8,30.8h3.4l-3.8,12.9H107l-1.9-8.3l-1.9,8.3h-3.4l-3.7-12.9h3.5l2,9l2-9h3.2l2,9L110.8,30.8z"/>
<path class="st0" d="M130.5,30.8h3.4l-3.8,12.9h-3.4l-1.9-8.3l-1.9,8.3h-3.4l-3.7-12.9h3.5l2,9l2-9h3.2l2,9L130.5,30.8z"/>
<path class="st0" d="M141.1,43.7l-0.6-2.1H136l-0.7,2.1H132l4.7-12.9h3.4l4.6,12.9H141.1z M136.9,38.8h2.7l-1.3-4.2L136.9,38.8z"/>
<path class="st0" d="M142.8,30.8h3.5l2.5,8.9l2.5-8.9h3.4l-4.3,12.9H147L142.8,30.8z"/>
<path class="st0" d="M154.8,30.8h9.1v2.9h-5.8v2h5.2v3h-5.2v2h5.9v3h-9.2V30.8z"/>
<path class="st1" d="M62.2,37.1c1.7-1.1-2.2-5.7-2.2-5.7s1.1,2.6,0.3,4S60.5,38.3,62.2,37.1z"/>
<path class="st2" d="M59.6,5.1c0.2-2.2-3.3-4.2-4.2-1.4c-1,3.2,0.2,3.9-4.2,7.6C55.6,10.5,59.5,7.2,59.6,5.1z"/>
<path class="st3" d="M35.1,4c-0.9-0.6-2.1-0.4-2.7,0.5c0,0.1-0.1,0.1-0.1,0.2c-0.4,1.9-1.1,3.6-2,5.3C30.2,10,36.9,5.1,35.1,4z"/>
<path class="st4" d="M10.4,39.9c0.8,1.4,1.5,2.7,2,3.9v0c-0.7-1.5-1.1-3.2-1.6-4.6c-0.2-0.6-0.3-1.1-0.4-1.7C9,35.9,5.8,33,3.1,34.9
	c-0.4,0.2-0.7,0.5-1,0.8C2.2,35.6,7,33.9,10.4,39.9z"/>
<path class="st3" d="M12.5,43.8c-0.6-1.2-1.2-2.5-2-3.9c-3.4-6-8.2-4.3-8.3-4.2c-2.6,2.3-1.6,4.5,1.2,5.1c3.1,0.7,4.2,1,6.5,3.5
	c0.1,0.1,0.2,0.2,0.3,0.3h2.5C12.6,44.3,12.5,44.1,12.5,43.8z"/>
<path class="st4" d="M24,16.8c1-1,2.1-2,3.2-2.9c1.7-2.6,3.2-7.4-0.4-8.6c-4.5-1.4-4.7,3.3-4.2,4.2c0.7,1.4,2.1,2.1,0.3,5.2
	c-0.6,1.1-1.4,2.2-2.4,3.1c0.4,0.7,0.7,1.5,0.7,2.3C22.1,19,23,17.9,24,16.8z"/>
<path class="st3" d="M11.7,39.4l-0.4-1c0,0-0.3-0.4-0.8-1c0.1,0.6,0.2,1.2,0.4,1.7c0.5,1.4,0.9,3,1.6,4.6c-0.1-0.3-0.2-0.6-0.2-0.8
	C12,41.7,11.8,40.6,11.7,39.4z"/>
<path class="st3" d="M20.5,17.9c-0.9-1.2-2.5-1.6-4.8-0.4c-3.9,2.1-4.8,8.3-5.3,9.7c-0.4,1.2-0.4,6.8,0.1,10.1c0.5,0.5,0.8,1,0.8,1
	l0.4,1c-0.2-3,0.2-6.1,1.3-8.9c1.2-3.7,2.9-5.1,5.1-4.2c0.6-1.6,1.3-3.1,2.1-4.5c0.3-0.5,0.6-1.1,1-1.6C21.2,19.4,21,18.6,20.5,17.9
	z"/>
<path class="st2" d="M50.9,3.7c-0.9-0.9-4.1-1.9-5.6-0.6S44,6.9,44.6,7.4c0.3,0.2,0.5,0.6,0.5,1c-1.1,1.5-2.7,2.5-4.5,2.9l-0.4,0.1
	c0-0.9-0.1-2.3-3.2-2.2c-2.8,0.1-6.4,2.1-9.8,4.8C26,14.8,25,15.8,24,16.8c-1,1-1.9,2.2-2.7,3.4c-0.4,0.6-0.7,1.1-1,1.6
	c-0.8,1.4-1.5,2.9-2.1,4.5l0.4,0.2c0.2,0.1,0.4,0.2,0.6,0.3c0.2-0.4,0.5-0.8,0.8-1.1c0.2-0.3,0.4-0.6,0.7-0.9l0,0
	c0.9-1.2,1.9-2.2,3-3.2c5.6-5.6,8.3-6.3,11.7-7.9c2.8-1.3,8.4-1.7,12-1.3l0.8-0.4l1-0.5l2.1-1.4C53.9,7.1,51.8,4.5,50.9,3.7z"/>
<path class="st5" d="M12.9,44.6c-0.1-0.3-0.3-0.6-0.4-0.8v0L12.9,44.6L12.9,44.6z"/>
<path class="st6" d="M12.7,44.6h0.1l-0.4-0.8C12.5,44.1,12.6,44.3,12.7,44.6z"/>
<path class="st6" d="M19.2,26.8c-0.2-0.1-0.4-0.2-0.6-0.3l-0.4-0.2c-2.2-0.8-3.9,0.6-5.1,4.2c-1,2.8-1.5,5.9-1.3,8.9
	c0.1,1.2,0.3,2.3,0.5,3.5c0.1,0.3,0.1,0.6,0.2,0.8s0.3,0.6,0.4,0.8H16c-1.3-5.7-0.4-11.6,2.5-16.6C18.7,27.6,18.9,27.2,19.2,26.8z"
	/>
<path class="st7" d="M20.6,24.8L20.6,24.8z"/>
<path class="st8" d="M50.3,13.1c-1-0.5-2-0.7-3.1-0.8c-3.6-0.4-9.2,0-12,1.3c-3.4,1.6-6.1,2.3-11.6,7.9c2.5-2.2,5.4-3.8,8.5-4.8
	c6.9-2.4,14.3-1.9,18.3,0.1c0,0.2-0.1,0.4-0.2,0.5C50.2,17.4,52.3,14.4,50.3,13.1z"/>
<path class="st1" d="M57.6,22.4c-0.5-3.1-6.8-4.4-6.8-4.4c3,1.8,3.6,4.4,3.5,5.6S58,25.5,57.6,22.4z"/>
<path class="st1" d="M41.2,25.5c0.8-0.9-1.5-3.5-1.5-3.5c0.4,0.8,0.6,1.7,0.5,2.6C39.8,25.6,40.4,26.4,41.2,25.5z"/>
<path class="st4" d="M8.7,30.1c-0.8-1.3-0.8-1.6-1-5.5s-2.3-1.7-2.3-1.7C4.4,24.8,6.4,28.4,8.7,30.1z"/>
<path class="st9" d="M18.9,43.8l0.1,1"/>
<path class="st1" d="M32.1,16.7c-3.1,1-6,2.7-8.5,4.8c-1.1,1-2.1,2.1-3,3.2l0,0c-0.2,0.3-0.5,0.6-0.7,0.9s-0.5,0.8-0.8,1.1
	s-0.4,0.7-0.6,1.1c-3,5-3.9,11-2.5,16.7h3c-0.2-2.5-0.3-5-0.3-7.5c0.2-2.3,0.7-4.5,1.7-6.6c0.6-1.9,6-7,8.6-4.7s3.1-0.9,3.6-1.9
	s0.9-3.7,1.7-5.3c0.2-0.4,0.5-0.7,0.9-0.9c0.5-0.1,1.1-0.2,1.7-0.3c0.2,0.2,0.4,0.4,0.6,0.7c0.2,0.2,0.3,0.4,0.5,0.5
	c0.2,0.2,0.6,0.3,0.8,0.1c0.1-0.1,0.1-0.3,0.2-0.4c0.1-0.4,0.4-0.8,0.8-1l0.3-0.1c2.3,0,4.7,0.3,6.9,0.9c2.2,0.5,3.1-0.3,3.4-0.9
	c0.1-0.2,0.2-0.3,0.2-0.5C46.4,14.9,39.1,14.4,32.1,16.7z M22.9,22.3L22.9,22.3z"/>
<path class="st1" d="M35.8,17.6c0.1,0.1,0.4,0,0.9,0.1s0.7,0.5,0.8,0.5s-0.1-1.3-0.8-1.4C36.2,16.8,35.7,17.4,35.8,17.6z"/>
</svg>
