<svg id="图层_1" data-name="图层 1" xmlns="http://www.w3.org/2000/svg" viewBox="0 0 143.67 16"><title>LOGO_</title><path d="M7.67,13a3.75,3.75,0,0,0,1.6-.31,5.51,5.51,0,0,0,1.4-1l1.16,1.19a5.32,5.32,0,0,1-4.1,1.87,5.5,5.5,0,0,1-4-1.55A5.26,5.26,0,0,1,2.13,9.31a5.3,5.3,0,0,1,1.62-4A5.62,5.62,0,0,1,7.85,3.77,5.35,5.35,0,0,1,12,5.59L10.84,6.84a5,5,0,0,0-1.44-1,4,4,0,0,0-1.59-.29,3.78,3.78,0,0,0-2.71,1A3.51,3.51,0,0,0,4,9.24a3.68,3.68,0,0,0,1.09,2.71A3.52,3.52,0,0,0,7.67,13Z" style="fill:#6ea5c2"/><path d="M18.72,11V6.57h1.7v8.1h-1.7V13.19a3.18,3.18,0,0,1-4.91.76A3.26,3.26,0,0,1,13,11.53v-5h1.7V11q0,2.24,1.86,2.24a2.23,2.23,0,0,0,1.54-.59A2.18,2.18,0,0,0,18.72,11Z" style="fill:#6ea5c2"/><path d="M26.62,6.45A3.85,3.85,0,0,1,29.4,7.57a4,4,0,0,1,1.16,3,4.16,4.16,0,0,1-1.15,3A3.56,3.56,0,0,1,24,13.45v1.22h-1.7V3.37H24V8A3,3,0,0,1,26.62,6.45ZM24,10.63a2.64,2.64,0,0,0,.7,1.89,2.26,2.26,0,0,0,1.7.74,2.42,2.42,0,0,0,1.75-.73,2.53,2.53,0,0,0,.75-1.89,2.7,2.7,0,0,0-.73-1.93,2.33,2.33,0,0,0-1.75-.77,2.23,2.23,0,0,0-1.72.77A2.75,2.75,0,0,0,24,10.63Z" style="fill:#6ea5c2"/><path d="M38.46,14.66H36.9V13.58a3.33,3.33,0,0,1-2.69,1.2,3.09,3.09,0,0,1-2.09-.71,2.4,2.4,0,0,1-.83-1.91,2,2,0,0,1,.88-1.79,4.23,4.23,0,0,1,2.39-.59h2.21v-.3q0-1.61-1.79-1.61a4.21,4.21,0,0,0-2.34.82l-.76-1.06a5.24,5.24,0,0,1,3.35-1.17,3.63,3.63,0,0,1,2.34.72,2.74,2.74,0,0,1,.91,2.28Zm-1.7-3V11H34.83Q33,11,33,12.12a1,1,0,0,0,.46.91,2.23,2.23,0,0,0,1.27.31,2.31,2.31,0,0,0,1.42-.46A1.46,1.46,0,0,0,36.75,11.65Z" style="fill:#6ea5c2"/><path d="M49.55,12.24a2.28,2.28,0,0,1-.84,1.85,3.25,3.25,0,0,1-2.15.69,5.75,5.75,0,0,1-1.83-.32,5.51,5.51,0,0,1-1.68-.9l.82-1.32a4.59,4.59,0,0,0,2.74,1.06,1.43,1.43,0,0,0,.91-.27.83.83,0,0,0,.33-.68q0-.61-1.61-1.1l-.18-.06q-2.53-.68-2.53-2.28a2.17,2.17,0,0,1,.88-1.8,3.61,3.61,0,0,1,2.28-.68,4.73,4.73,0,0,1,2.65.82L48.7,8.53a3.82,3.82,0,0,0-2.15-.65,2,2,0,0,0-1,.22.72.72,0,0,0-.38.66.6.6,0,0,0,.4.58,3.81,3.81,0,0,0,.77.26q.49.12.88.24t.74.27a4.81,4.81,0,0,1,.77.43A1.9,1.9,0,0,1,49.55,12.24Z" style="fill:#6ea5c2"/><path d="M61.66,1.76h3v12.9h-2.8l-4.7-7.18v7.18h-3V1.76H57L61.66,9Z" style="fill:#f1861b"/><path d="M65.74,1.76h9.07V4.71H69v2h5.24V9.68H69v2H75v2.95H65.74Z" style="fill:#f1861b"/><path d="M89.44,1.76h3.37l-3.75,12.9H85.67L83.8,6.4l-1.93,8.27H78.5L74.78,1.76h3.51l2,9,2-9h3.21l2,8.95Z" style="fill:#f1861b"/><path d="M109.13,1.76h3.37l-3.75,12.9h-3.39L103.5,6.4l-1.93,8.27H98.19L94.47,1.76H98l2,9,2-9h3.21l2,8.95Z" style="fill:#9bd5bb"/><path d="M119.8,14.66l-.65-2.06h-4.48L114,14.66h-3.39l4.73-12.9h3.39l4.58,12.9ZM115.59,9.8h2.69L117,5.59Z" style="fill:#9bd5bb"/><path d="M121.44,1.76h3.51l2.53,8.93L130,1.76h3.37l-4.29,12.9h-3.42Z" style="fill:#9bd5bb"/><path d="M133.47,1.76h9.07V4.71h-5.78v2H142V9.68h-5.24v2h5.94v2.95h-9.23Z" style="fill:#9bd5bb"/><path d="M40.88,8.12c1.69-1.15-2.2-5.72-2.2-5.72s1.14,2.56.32,4S39.19,9.27,40.88,8.12Z" style="fill:#6ea5c2"/></svg>