<?xml version="1.0" encoding="utf-8"?>
<!-- Generator: Adobe Illustrator 21.0.0, SVG Export Plug-In . SVG Version: 6.00 Build 0)  -->
<svg version="1.1" id="Layer_1" xmlns="http://www.w3.org/2000/svg" xmlns:xlink="http://www.w3.org/1999/xlink" x="0px" y="0px"
	 viewBox="0 0 1366 768" style="enable-background:new 0 0 1366 768;" xml:space="preserve">
<style type="text/css">
	.st0{fill:#FFFFFF;}
</style>
<g>
	<g>
		<path class="st0" d="M800.5,397h19.5l-9.7-26.3L800.5,397z M732.5,297.8c-1.9,1.2-2.8,3-2.8,5.5c0,2.5,1,4.5,2.9,6
			c1.9,1.5,4.4,2.2,7.6,2.2c4,0,7.4-1,10.2-2.9c2.8-1.9,4.5-4.5,5-7.7v-4.9h-14.3C737.3,296.1,734.4,296.7,732.5,297.8z
			 M680.4,308.9c2.5,1.5,5.3,2.2,8.4,2.2c3.1,0,5.9-0.7,8.4-2.2c2.5-1.5,4.4-3.5,5.8-6.2c1.4-2.6,2.1-5.6,2.1-8.9
			c0-3.2-0.7-6.2-2.1-8.8c-1.4-2.6-3.3-4.7-5.8-6.2c-2.5-1.5-5.2-2.2-8.4-2.2c-3.1,0-5.9,0.7-8.4,2.2c-2.5,1.5-4.4,3.5-5.8,6.2
			c-1.4,2.6-2.1,5.6-2.1,8.8c0,3.4,0.7,6.4,2.1,9C675.9,305.4,677.9,307.4,680.4,308.9z M0,0v768h1366V0H0z M817.8,300.3
			c-1.8-1.1-4.6-2.2-8.2-3.3c-3.3-0.9-5.9-1.9-8-2.8c-2.1-1-3.8-2.3-5.2-4.2c-1.4-1.8-2.2-4.2-2.2-7.2c0-4.5,1.7-7.9,5-10.2
			c3.3-2.3,7.5-3.4,12.4-3.4c2.9,0,5.8,0.4,8.7,1.2c2.9,0.8,5.3,1.9,7.4,3.4l-3.1,6.5c-2-1.2-4.2-2.2-6.7-2.9
			c-2.4-0.7-4.7-1.1-6.9-1.1c-2.6,0-4.6,0.5-6.2,1.4c-1.6,1-2.3,2.4-2.3,4.4c0,2,0.9,3.4,2.6,4.5c1.7,1,4.4,2,8,3.1
			c3.4,1,6.1,2,8.3,2.9c2.1,1,4,2.4,5.5,4.3c1.5,1.9,2.3,4.4,2.3,7.5c0,4.6-1.7,8.1-5.2,10.5c-3.5,2.4-7.8,3.6-12.9,3.6
			c-3.6,0-7.1-0.6-10.5-1.7c-3.4-1.2-6.3-2.8-8.6-5l3.2-6.3c2,1.8,4.5,3.3,7.5,4.4c3,1.1,5.9,1.7,8.7,1.7c2.8,0,5.1-0.5,6.8-1.6
			c1.7-1,2.6-2.6,2.6-4.8C820.5,303.1,819.6,301.4,817.8,300.3z M776.1,257.6c-0.4-0.8-0.6-1.6-0.6-2.5c0-1.5,0.5-2.7,1.4-3.6
			c1-1,2.1-1.4,3.5-1.4c1.3,0,2.5,0.5,3.4,1.4c1,0.9,1.4,2.1,1.4,3.7c0,0.7-0.1,1.4-0.4,2.1c-0.3,0.7-0.6,1.4-0.9,2.1l-5,10.5h-4.7
			l3.7-10.4C777.2,259,776.5,258.4,776.1,257.6z M752.2,279.2c-2.1-1.9-5.2-2.8-9.2-2.8c-4.9,0-9.9,1.7-15,5.2l-3.6-5.9
			c3.5-2.3,6.7-3.9,9.7-4.9c3-1,6.5-1.5,10.6-1.5c6.1,0,10.8,1.5,14.1,4.5c3.3,3,5,7.1,5.1,12.5l0.1,32h-8.5v-6.8
			c-3.6,4.8-9.3,7.2-17,7.2c-3.4,0-6.3-0.6-8.9-1.9c-2.5-1.3-4.5-3.1-5.9-5.3c-1.4-2.3-2.1-4.8-2.1-7.6c0-4.4,1.6-7.8,4.8-10.4
			c3.2-2.5,7.7-3.8,13.5-3.9h15.5v-2.3C755.4,283.7,754.3,281.1,752.2,279.2z M663.8,250h8.6v29.3c1.8-3.2,4.2-5.6,7.3-7.4
			c3.1-1.7,6.7-2.6,10.7-2.6c4.5,0,8.6,1,12.1,3.1c3.6,2.1,6.3,5,8.3,8.7c2,3.7,2.9,8,2.9,12.9c0,4.8-1,9-2.9,12.7
			c-1.9,3.7-4.7,6.6-8.2,8.6c-3.5,2.1-7.6,3.1-12.1,3.1c-4.1,0-7.7-0.9-10.9-2.6c-3.1-1.7-5.6-4.2-7.4-7.4v9.7h-8.6V250z M539,269.5
			c3-5,7-8.9,12.2-11.8c5.2-2.9,10.8-4.3,17-4.3c4.5,0,8.8,0.8,13,2.5c4.2,1.7,7.8,4.1,10.9,7.1l-5.2,6.3c-2.5-2.6-5.3-4.6-8.6-6
			c-3.3-1.4-6.6-2.2-10-2.2c-4.5,0-8.7,1.1-12.5,3.3c-3.8,2.2-6.8,5.2-9,9s-3.3,7.9-3.3,12.5c0,4.5,1.1,8.6,3.3,12.4
			c2.2,3.8,5.2,6.8,9,9c3.8,2.2,8,3.3,12.5,3.3c3.4,0,6.7-0.7,9.9-2.1c3.3-1.4,6.1-3.3,8.6-5.7l5.3,5.8c-3.3,3.2-7,5.7-11.3,7.5
			c-4.3,1.8-8.6,2.7-13.1,2.7c-6.1,0-11.7-1.5-16.8-4.4c-5.1-2.9-9.1-6.9-12.1-11.9c-2.9-5-4.4-10.6-4.4-16.7
			C534.5,280,536,274.5,539,269.5z M401.8,427.3h-20.4l-34.2-44.8v44.8h-22v-80.6h20.5l34.2,45v-45h21.8V427.3z M482.4,427.3h-67
			v-80.6h65.9v18.4h-42v12.6h38.1v18.4h-38.1v12.8h43.1V427.3z M590.5,427.3h-24.6l-13.6-51.6l-14,51.6h-24.5l-27-80.6h25.5l14.5,56
			l14.4-56h23.3l14.5,55.9l14.3-55.9h24.5L590.5,427.3z M620.1,318.5c-5.6,0-10.1-1.7-13.2-5c-3.2-3.3-4.8-8-4.8-13.8v-30.1h8.6
			v27.8c0,4.1,1.1,7.3,3.4,9.6c2.2,2.3,5.3,3.5,9.2,3.5c4.5-0.1,8.1-1.7,10.8-4.8c2.7-3.2,4-7.2,4-12.1v-23.9h8.6v48.7h-8.6V308
			C634.9,314.9,628.9,318.4,620.1,318.5z M720.5,427.3l-13.6-51.6l-14,51.6h-24.5l-27-80.6h25.5l14.5,56l14.4-56h23.3l14.5,55.9
			l14.3-55.9h24.5l-27.3,80.6H720.5z M831.1,427.3l-4.7-12.9h-32.5l-4.8,12.9h-24.6l34.4-80.6h24.6l33.2,80.6H831.1z M904.4,427.3
			h-24.8l-30.8-80.6h25.5l18.4,55.8l18.4-55.8h24.5L904.4,427.3z M1008.9,427.3h-67v-80.6h65.9v18.4h-42v12.6h38.1v18.4h-38.1v12.8
			h43.1V427.3z"/>
	</g>
</g>
</svg>
