<?xml version="1.0" encoding="utf-8"?>
<!-- Generator: Adobe Illustrator 21.0.0, SVG Export Plug-In . SVG Version: 6.00 Build 0)  -->
<svg version="1.1" id="Layer_1" xmlns="http://www.w3.org/2000/svg" xmlns:xlink="http://www.w3.org/1999/xlink" x="0px" y="0px"
	 viewBox="0 0 1366 328" style="enable-background:new 0 0 1366 328;" xml:space="preserve">
<style type="text/css">
	.st0{fill:#FFFFFF;}
</style>
<g>
	<g>
		<path class="st0" d="M735.7,114.5c-2.3,1.5-3.4,3.6-3.4,6.6c0,3,1.1,5.4,3.3,7.2c2.2,1.8,5.1,2.7,8.7,2.7c4.4,0,8.2-1,11.3-3.1
			c3.1-2.1,5.1-5,6.2-8.7v-6.8h-16.1C741.3,112.3,738,113.1,735.7,114.5z M844.3,229.6h23.5L856.2,198L844.3,229.6z M0,0v328h1366V0
			H0z M799.1,124.7c2.2,2,4.7,3.5,7.6,4.7s5.9,1.7,9,1.7c3.4,0,6.1-0.7,8.2-2.1c2.1-1.4,3.2-3.4,3.2-6.1c0-1.8-0.5-3.3-1.6-4.5
			c-1.1-1.2-2.4-2.1-4-2.8c-1.6-0.7-3.8-1.4-6.7-2.3c-3.4-1-6.1-2-8.2-2.9c-2.1-1-3.9-2.3-5.3-4.1c-1.5-1.8-2.2-4.2-2.2-7.1
			c0-4.4,1.6-7.7,4.9-9.9c3.3-2.2,7.3-3.3,12.2-3.3c2.9,0,5.6,0.4,8.3,1.1c2.7,0.8,5,1.8,7.1,3.1l-2.5,4.8c-1.9-1.2-4-2.1-6.4-2.8
			c-2.3-0.7-4.7-1-6.9-1c-3.2,0-5.7,0.6-7.6,1.9c-1.9,1.2-2.9,3.1-2.9,5.6c0,1.7,0.5,3.1,1.6,4.2c1,1.1,2.3,1.9,3.9,2.6
			c1.6,0.7,3.7,1.4,6.5,2.2c3.4,1,6.2,2,8.4,3c2.2,1,4,2.4,5.5,4.3c1.5,1.9,2.3,4.3,2.3,7.4c0,4.5-1.7,7.9-5.1,10.3
			s-7.7,3.6-12.8,3.6c-3.6,0-7.1-0.6-10.5-1.8c-3.4-1.2-6.2-2.9-8.5-5.1L799.1,124.7z M781.6,72c-0.4-0.7-0.6-1.4-0.6-2.2
			c0-1.2,0.4-2.2,1.2-3c0.8-0.8,1.8-1.2,3-1.2c1.1,0,2.1,0.4,2.9,1.2c0.8,0.8,1.2,1.8,1.2,3.1c0,0.9-0.3,2.1-1,3.6l-4.8,10.8h-3.8
			l3.7-10.7C782.6,73.2,782,72.7,781.6,72z M758.1,94.5c-2.3-2.2-5.8-3.2-10.3-3.2c-5.3,0-10.7,2-16.1,6l-2.8-4.4
			c3.4-2.3,6.6-4.1,9.6-5.2c3-1.1,6.5-1.7,10.5-1.7c6,0,10.7,1.5,14,4.5c3.3,3,5,7.2,5,12.5l0.1,33h-6.3l-0.1-8.4
			c-2,2.9-4.5,5.1-7.7,6.5c-3.2,1.4-6.8,2.1-10.9,2.1c-3.4,0-6.3-0.6-8.9-1.9c-2.6-1.3-4.5-3.1-5.9-5.4c-1.4-2.3-2.1-4.8-2.1-7.7
			c0-4.3,1.7-7.7,5-10.2c3.3-2.5,7.9-3.7,13.7-3.7h16.7v-3.8C761.7,99.7,760.5,96.6,758.1,94.5z M666.9,65.5h6.4v32.2
			c1.8-3.7,4.5-6.5,7.9-8.6c3.5-2.1,7.4-3.1,11.9-3.1c4.6,0,8.8,1.1,12.4,3.2c3.6,2.1,6.5,5.1,8.5,8.9c2,3.8,3,8.2,3,13.1
			c0,4.8-1,9.1-3,12.9c-2,3.8-4.8,6.8-8.5,8.9c-3.6,2.1-7.7,3.2-12.4,3.2c-4.6,0-8.5-1-12-3.1c-3.4-2.1-6.1-4.9-8-8.6V136h-6.4V65.5
			z M537.9,85.7c3.1-5.1,7.3-9.2,12.6-12.2c5.3-3,11.1-4.5,17.3-4.5c4.5,0,8.8,0.8,13,2.5c4.2,1.7,7.9,4,11,7l-3.9,4.6
			c-2.7-2.6-5.7-4.6-9.2-6.1c-3.5-1.5-7.1-2.2-10.8-2.2c-5.1,0-9.8,1.2-14.1,3.7c-4.3,2.5-7.7,5.8-10.2,10.1
			c-2.5,4.3-3.8,8.9-3.8,14c0,5.1,1.2,9.7,3.8,14c2.5,4.2,5.9,7.6,10.2,10.1c4.3,2.5,9,3.8,14.1,3.8c3.7,0,7.3-0.7,10.7-2.1
			c3.5-1.4,6.6-3.4,9.3-5.9l4,4.3c-3.3,3-7.1,5.4-11.3,7.2c-4.2,1.8-8.6,2.7-13,2.7c-6.3,0-12-1.5-17.3-4.6
			c-5.3-3-9.4-7.2-12.5-12.3c-3.1-5.2-4.6-10.9-4.6-17C533.3,96.5,534.8,90.9,537.9,85.7z M365.9,266h-24.4l-41-53.8V266h-26.4
			v-96.7h24.6l41,54v-54h26.2V266z M462.6,266h-80.5v-96.7h79.1v22.1h-50.4v15.2h45.7v22.1h-45.7v15.3h51.8V266z M592.3,266h-29.5
			l-16.3-62l-16.8,62h-29.4l-32.4-96.7h30.6l17.4,67.2l17.2-67.2h28l17.4,67.1l17.1-67.1H625L592.3,266z M647.9,136h-6.5v-11.9
			c-1.6,3.9-4.1,6.9-7.4,8.9c-3.3,2-7.2,3.1-11.8,3.1c-5.9,0-10.5-1.7-13.8-5.2c-3.3-3.5-5-8.2-5-14.2V86.2h6.5v29.1
			c0,4.7,1.3,8.3,3.8,11c2.6,2.6,6.1,3.9,10.6,3.9c5.3-0.1,9.5-1.9,12.5-5.5c3-3.6,4.6-8.3,4.6-14.1V86.2h6.5V136z M748.3,266
			L732,204l-16.8,62h-29.4l-32.4-96.7H684l17.4,67.2l17.2-67.2h28l17.4,67.1l17.1-67.1h29.4L777.8,266H748.3z M881,266l-5.7-15.5
			h-39.1l-5.8,15.5H801l41.3-96.7h29.5l39.9,96.7H881z M968.9,266h-29.8l-37-96.7h30.6l22.1,66.9l22.1-66.9h29.4L968.9,266z
			 M1094.4,266h-80.5v-96.7h79.1v22.1h-50.4v15.2h45.7v22.1h-45.7v15.3h51.8V266z M682.3,128.2c2.8,1.7,6.1,2.5,9.7,2.5
			c3.5,0,6.7-0.8,9.6-2.5c2.8-1.7,5.1-4,6.7-7c1.6-3,2.4-6.4,2.4-10.2c0-3.7-0.8-7.1-2.4-10.1c-1.6-3-3.8-5.3-6.7-7
			c-2.8-1.7-6-2.5-9.6-2.5c-3.6,0-6.8,0.8-9.6,2.5c-2.8,1.7-5,4-6.7,7c-1.6,3-2.4,6.3-2.4,10.1c0,3.8,0.8,7.2,2.4,10.2
			C677.3,124.2,679.5,126.5,682.3,128.2z"/>
	</g>
</g>
</svg>
