<?xml version="1.0" encoding="utf-8"?>
<!-- Generator: Adobe Illustrator 21.0.0, SVG Export Plug-In . SVG Version: 6.00 Build 0)  -->
<svg version="1.1" id="Layer_1" xmlns="http://www.w3.org/2000/svg" xmlns:xlink="http://www.w3.org/1999/xlink" x="0px" y="0px"
	 viewBox="0 0 1366 768" style="enable-background:new 0 0 1366 768;" xml:space="preserve">
<style type="text/css">
	.st0{fill:#FFFFFF;}
</style>
<g>
	<g>
		<path class="st0" d="M738.5,147.4c-2.4,1.5-3.6,3.8-3.6,6.9c0,3.1,1.2,5.7,3.4,7.6c2.3,1.9,5.4,2.9,9.2,2.9
			c4.7,0,8.6-1.1,11.8-3.2c3.2-2.2,5.4-5.2,6.6-9.2v-7.2H749C744.4,145.1,740.9,145.9,738.5,147.4z M850.2,270.2h24.3l-12-32.7
			L850.2,270.2z M682.3,161.8c3,1.8,6.4,2.6,10.2,2.6c3.7,0,7.1-0.9,10.1-2.6c3-1.8,5.3-4.2,7-7.4c1.7-3.1,2.5-6.7,2.5-10.7
			c0-3.9-0.8-7.5-2.5-10.6c-1.7-3.1-4-5.6-7-7.4c-3-1.8-6.4-2.6-10.1-2.6c-3.8,0-7.2,0.9-10.2,2.6c-3,1.8-5.3,4.2-7,7.4
			c-1.7,3.1-2.5,6.7-2.5,10.6c0,4,0.8,7.6,2.5,10.7C677,157.5,679.3,160,682.3,161.8z M-43-32v88H0v746h1366V-32H-43z M805.2,158.1
			c2.3,2.1,5,3.7,8.1,4.9s6.2,1.8,9.4,1.8c3.5,0,6.4-0.7,8.7-2.2c2.2-1.5,3.3-3.6,3.3-6.4c0-1.9-0.6-3.5-1.7-4.8
			c-1.1-1.2-2.6-2.2-4.2-2.9c-1.7-0.7-4.1-1.5-7.1-2.4c-3.5-1.1-6.4-2.1-8.6-3.1c-2.2-1-4.1-2.5-5.6-4.4c-1.5-1.9-2.3-4.4-2.3-7.4
			c0-4.6,1.7-8.1,5.2-10.4c3.4-2.3,7.7-3.5,12.8-3.5c3,0,5.9,0.4,8.7,1.2c2.8,0.8,5.3,1.9,7.5,3.3l-2.6,5.1c-2-1.3-4.2-2.2-6.7-2.9
			c-2.5-0.7-4.9-1.1-7.3-1.1c-3.3,0-6,0.6-8.1,2c-2,1.3-3.1,3.2-3.1,5.9c0,1.8,0.6,3.3,1.7,4.4c1.1,1.1,2.5,2,4.1,2.8
			c1.6,0.7,3.9,1.5,6.9,2.4c3.6,1.1,6.5,2.1,8.8,3.1c2.3,1,4.2,2.5,5.8,4.5c1.6,2,2.4,4.5,2.4,7.8c0,4.7-1.8,8.4-5.4,10.9
			s-8.1,3.8-13.5,3.8c-3.8,0-7.5-0.6-11-1.9c-3.5-1.3-6.5-3.1-8.9-5.4L805.2,158.1z M786.7,102.6c-0.4-0.7-0.6-1.5-0.6-2.3
			c0-1.3,0.4-2.3,1.2-3.2c0.8-0.9,1.9-1.3,3.1-1.3c1.2,0,2.2,0.4,3.1,1.2c0.8,0.8,1.2,1.9,1.2,3.2c0,0.9-0.4,2.2-1.1,3.8l-5,11.4h-4
			l3.9-11.3C787.8,103.9,787.2,103.3,786.7,102.6z M762.1,126.3c-2.5-2.3-6.1-3.4-10.8-3.4c-5.6,0-11.2,2.1-16.9,6.3l-3-4.6
			c3.5-2.5,6.9-4.3,10.1-5.5c3.2-1.2,6.9-1.8,11-1.8c6.3,0,11.2,1.6,14.7,4.8c3.5,3.2,5.2,7.6,5.3,13.1l0.1,34.7H766l-0.1-8.8
			c-2.1,3.1-4.8,5.3-8.1,6.8c-3.3,1.5-7.2,2.2-11.5,2.2c-3.5,0-6.7-0.7-9.3-2c-2.7-1.4-4.8-3.2-6.2-5.6c-1.5-2.4-2.2-5.1-2.2-8.1
			c0-4.5,1.8-8.1,5.2-10.7c3.5-2.6,8.3-3.9,14.5-3.9h17.6v-4C765.8,131.8,764.6,128.6,762.1,126.3z M666.1,95.8h6.7v33.9
			c1.9-3.9,4.7-6.9,8.3-9.1c3.6-2.2,7.8-3.2,12.6-3.2c4.9,0,9.2,1.1,13.1,3.4c3.8,2.2,6.8,5.4,8.9,9.4c2.1,4,3.2,8.6,3.2,13.8
			c0,5.1-1.1,9.6-3.2,13.6c-2.1,4-5.1,7.1-8.9,9.4c-3.8,2.2-8.1,3.4-13,3.4c-4.8,0-9-1.1-12.6-3.2c-3.6-2.2-6.4-5.2-8.4-9.1V170
			h-6.7V95.8z M530.3,117.1c3.3-5.4,7.7-9.7,13.2-12.9c5.6-3.2,11.6-4.8,18.2-4.8c4.7,0,9.3,0.9,13.7,2.6c4.4,1.8,8.3,4.2,11.6,7.4
			l-4.1,4.8c-2.8-2.7-6-4.9-9.7-6.4c-3.7-1.5-7.5-2.3-11.4-2.3c-5.4,0-10.4,1.3-14.9,3.9s-8.1,6.1-10.7,10.6
			c-2.6,4.5-3.9,9.4-3.9,14.8c0,5.3,1.3,10.2,3.9,14.7c2.6,4.5,6.2,8,10.7,10.6c4.5,2.6,9.4,4,14.9,4c3.9,0,7.6-0.8,11.3-2.2
			c3.7-1.5,6.9-3.6,9.8-6.2l4.2,4.5c-3.5,3.2-7.4,5.7-11.9,7.6c-4.5,1.9-9,2.8-13.7,2.8c-6.6,0-12.7-1.6-18.2-4.8
			c-5.5-3.2-9.9-7.5-13.2-13c-3.2-5.5-4.8-11.4-4.8-17.9C525.4,128.4,527,122.5,530.3,117.1z M354.4,308h-25.3l-42.5-55.8V308h-27.3
			V207.8h25.5l42.5,55.9v-55.9h27.2V308z M454.6,308h-83.4V207.8h81.9v22.9H401v15.7h47.3v22.9H401v15.9h53.6V308z M589.1,308h-30.6
			l-16.9-64.2L524.1,308h-30.5l-33.6-100.2h31.7l18,69.6l17.9-69.6h29l18,69.5l17.7-69.5h30.5L589.1,308z M646.1,170h-6.8v-12.5
			c-1.7,4.1-4.3,7.3-7.8,9.4c-3.4,2.1-7.6,3.2-12.5,3.3c-6.2,0-11-1.8-14.5-5.5c-3.5-3.6-5.2-8.6-5.2-15v-32.2h6.8v30.6
			c0,4.9,1.4,8.8,4.1,11.5c2.7,2.8,6.4,4.1,11.1,4.1c5.6-0.1,10-2,13.2-5.8c3.2-3.8,4.8-8.7,4.8-14.9v-25.7h6.8V170z M750.6,308
			l-16.9-64.2L716.3,308h-30.5l-33.6-100.2H684l18,69.6l17.9-69.6h29l18,69.5l17.7-69.5h30.5L781.2,308H750.6z M888.2,308l-5.9-16
			h-40.5l-6,16h-30.6L848,207.8h30.6L920,308H888.2z M979.3,308h-30.9l-38.3-100.2h31.7l22.9,69.4l22.9-69.4h30.5L979.3,308z
			 M1109.3,308h-83.4V207.8h81.9v22.9h-52.2v15.7h47.3v22.9h-47.3v15.9h53.6V308z"/>
	</g>
</g>
</svg>
