<svg id="图层_1" data-name="图层 1" xmlns="http://www.w3.org/2000/svg" viewBox="0 0 272 268"><defs><style>.cls-1{fill:none;stroke:#67574b;stroke-miterlimit:10;}</style></defs><title>timeline</title><g id="g3098"><path id="path3100" class="cls-1" d="M147,116a44.45,44.45,0,0,1,38.17,21.89l45.88.05V113.33a16.58,16.58,0,0,0-16.59-16.56H43.4a16.56,16.56,0,0,0-16.54,16.56l.05,24.43,81.93.05A44.53,44.53,0,0,1,147,116"/></g><g id="g3102"><path id="path3104" class="cls-1" d="M69.79,89H54.58l-1.76,5.49H71.06Z"/></g><g id="g3106"><path id="path3108" class="cls-1" d="M207,86H186.76l-3.6,8.46h27.15Z"/></g><path id="path3110" class="cls-1" d="M137.46,91.55H120V83.12h17.44Zm16-11.83H104.21L94.06,94.58h68.68Z"/><g id="g3112"><path id="path3114" class="cls-1" d="M187.57,142.3a44.11,44.11,0,0,1,4,18.3,44.58,44.58,0,1,1-89.15,0,43.92,43.92,0,0,1,4-18.32H26.88v67.18A16.53,16.53,0,0,0,43.42,226H214.51a16.58,16.58,0,0,0,16.59-16.54l.05-67.16Z"/></g><g id="g3116"><path id="path3118" class="cls-1" d="M171.34,145.94a22,22,0,0,0-2.54-3.52,28.13,28.13,0,0,0-43.56-.05,26.67,26.67,0,0,0-2.59,3.57,28,28,0,0,0-4.19,14.65,28.53,28.53,0,0,0,57.06,0,27.8,27.8,0,0,0-4.19-14.65"/></g></svg>