<svg id="图层_1" data-name="图层 1" xmlns="http://www.w3.org/2000/svg" viewBox="0 0 353 381"><defs><style>.cls-1,.cls-2{fill:none;}.cls-1,.cls-2,.cls-3,.cls-4,.cls-5,.cls-6,.cls-7,.cls-8,.cls-9{stroke:#68584c;stroke-miterlimit:10;}.cls-1{stroke-width:2px;}.cls-3{fill:#fff;}.cls-4{font-size:31.57px;}.cls-4,.cls-5,.cls-6,.cls-7,.cls-8,.cls-9{fill:#67574b;}.cls-4,.cls-6,.cls-7,.cls-8,.cls-9{font-family:PTSerif-Regular, PT Serif;}.cls-6,.cls-9{font-size:16px;}.cls-6{letter-spacing:0.07em;}.cls-7{font-size:29px;}.cls-8{font-size:18px;}</style></defs><title>timeline-02</title><circle class="cls-1" cx="173" cy="192" r="139"/><path class="cls-2" d="M305.5,191.5c0,74-61.1,134-134,134s-132-60-132-134,59.1-134,132-134S305.5,117.49,305.5,191.5Z"/><path class="cls-1" d="M300,192c0,70.14-58.07,127-127.36,127S45.18,262.14,45.18,192,103.35,65,172.64,65,300,121.86,300,192Z"/><rect class="cls-2" x="134.45" y="111.16" width="1.91" height="57.62" rx="0.5" ry="0.5" transform="translate(-57.45 112.88) rotate(-37.95)"/><rect class="cls-2" x="141.45" y="111.16" width="1.91" height="57.62" rx="0.5" ry="0.5" transform="translate(-52.55 96.83) rotate(-32.03)"/><rect class="cls-2" x="147.45" y="112.16" width="1.91" height="57.62" rx="0.5" ry="0.5" transform="translate(-49.45 88.53) rotate(-28.68)"/><rect class="cls-2" x="155.45" y="112.16" width="1.91" height="57.62" rx="0.5" ry="0.5" transform="translate(-46.54 84.88) rotate(-26.58)"/><rect class="cls-2" x="160.45" y="108.16" width="1.91" height="57.62" rx="0.5" ry="0.5" transform="translate(-44.23 86.7) rotate(-26.58)"/><rect class="cls-2" x="166.45" y="110.16" width="1.91" height="57.62" rx="0.5" ry="0.5" transform="translate(-40.43 74.62) rotate(-22.49)"/><rect class="cls-2" x="169.45" y="110.16" width="1.91" height="57.62" rx="0.5" ry="0.5" transform="translate(-36.87 65.57) rotate(-19.7)"/><rect class="cls-2" x="132.45" y="119.16" width="1.91" height="57.62" rx="0.5" ry="0.5" transform="translate(-64 121.12) rotate(-40.22)"/><rect class="cls-2" x="130.45" y="124.16" width="1.91" height="57.62" rx="0.5" ry="0.5" transform="translate(-69.26 133) rotate(-43.65)"/><rect class="cls-2" x="128.45" y="130.16" width="1.91" height="57.62" rx="0.5" ry="0.5" transform="translate(-75.18 146.23) rotate(-47.29)"/><rect class="cls-2" x="125.45" y="137.16" width="1.91" height="57.62" rx="0.5" ry="0.5" transform="translate(-81.8 152.8) rotate(-49.09)"/><rect class="cls-2" x="123.45" y="143.16" width="1.91" height="57.62" rx="0.5" ry="0.5" transform="translate(-87.68 163.55) rotate(-51.84)"/><rect class="cls-2" x="119.45" y="148.16" width="1.91" height="57.62" rx="0.5" ry="0.5" transform="translate(-93.14 162.31) rotate(-51.84)"/><rect class="cls-2" x="120.45" y="148.16" width="1.91" height="57.62" rx="0.5" ry="0.5" transform="translate(-55.56 298.37) rotate(-90)"/><rect class="cls-2" x="119.45" y="153.16" width="1.91" height="57.62" rx="0.5" ry="0.5" transform="translate(-61.56 302.37) rotate(-90)"/><rect class="cls-2" x="119.45" y="158.16" width="1.91" height="57.62" rx="0.5" ry="0.5" transform="translate(-66.56 307.37) rotate(-90)"/><rect class="cls-2" x="126.45" y="162.16" width="1.91" height="57.62" rx="0.5" ry="0.5" transform="translate(-63.56 318.37) rotate(-90)"/><rect class="cls-2" x="117.45" y="167.16" width="1.91" height="57.62" rx="0.5" ry="0.5" transform="translate(-72.45 322.45) rotate(-92.39)"/><rect class="cls-2" x="116.45" y="171.16" width="1.91" height="57.62" rx="0.5" ry="0.5" transform="translate(-70.73 335.53) rotate(-95.36)"/><rect class="cls-2" x="114.45" y="176.16" width="1.91" height="57.62" rx="0.5" ry="0.5" transform="translate(-66.39 354.24) rotate(-100.01)"/><rect class="cls-2" x="109.45" y="181.16" width="1.91" height="57.62" rx="0.5" ry="0.5" transform="translate(-71.4 362.35) rotate(-102.23)"/><rect class="cls-2" x="112.45" y="185.16" width="1.91" height="57.62" rx="0.5" ry="0.5" transform="translate(-63.57 379.26) rotate(-105.12)"/><rect class="cls-2" x="117.45" y="188.16" width="1.91" height="57.62" rx="0.5" ry="0.5" transform="translate(-35.5 410.37) rotate(-112.86)"/><rect class="cls-2" x="126.45" y="189.16" width="1.91" height="57.62" rx="0.5" ry="0.5" transform="translate(18.2 445.6) rotate(-124.06)"/><rect class="cls-2" x="131.45" y="196.16" width="1.91" height="57.62" rx="0.5" ry="0.5" transform="translate(20.2 460.66) rotate(-124.06)"/><rect class="cls-2" x="135.45" y="188.16" width="1.91" height="57.62" rx="0.5" ry="0.5" transform="translate(33.07 451.49) rotate(-124.06)"/><rect class="cls-2" x="139.45" y="196.16" width="1.91" height="57.62" rx="0.5" ry="0.5" transform="translate(32.68 467.29) rotate(-124.06)"/><rect class="cls-2" x="136.45" y="202.16" width="1.91" height="57.62" rx="0.5" ry="0.5" transform="translate(23.03 474.16) rotate(-124.06)"/><rect class="cls-2" x="140.45" y="204.16" width="1.91" height="57.62" rx="0.5" ry="0.5" transform="translate(27.61 480.6) rotate(-124.06)"/><rect class="cls-2" x="223.39" y="146.16" width="1.91" height="57.62" rx="0.5" ry="0.5" transform="translate(49.38 399.32) rotate(-90)"/><rect class="cls-2" x="224.39" y="150.16" width="1.91" height="57.62" rx="0.5" ry="0.5" transform="translate(46.38 404.32) rotate(-90)"/><rect class="cls-2" x="224.39" y="156.16" width="1.91" height="57.62" rx="0.5" ry="0.5" transform="translate(40.38 410.32) rotate(-90)"/><rect class="cls-2" x="219.39" y="153.16" width="1.91" height="57.62" rx="0.5" ry="0.5" transform="translate(38.38 402.32) rotate(-90)"/><rect class="cls-2" x="217.39" y="160.16" width="1.91" height="57.62" rx="0.5" ry="0.5" transform="translate(29.38 407.32) rotate(-90)"/><rect class="cls-2" x="226.39" y="164.16" width="1.91" height="57.62" rx="0.5" ry="0.5" transform="translate(21.74 408.95) rotate(-86.73)"/><rect class="cls-2" x="215.39" y="167.16" width="1.91" height="57.62" rx="0.5" ry="0.5" transform="translate(-0.47 391.41) rotate(-84.2)"/><rect class="cls-2" x="229.39" y="172.16" width="1.91" height="57.62" rx="0.5" ry="0.5" transform="translate(-7.59 392.89) rotate(-79.99)"/><rect class="cls-2" x="234.39" y="178.16" width="1.91" height="57.62" rx="0.5" ry="0.5" transform="translate(-16.78 393.12) rotate(-77.77)"/><rect class="cls-2" x="231.39" y="182.16" width="1.91" height="57.62" rx="0.5" ry="0.5" transform="translate(-31.92 380.24) rotate(-74.88)"/><rect class="cls-2" x="222.39" y="184.16" width="1.91" height="57.62" rx="0.5" ry="0.5" transform="translate(-62.75 328.66) rotate(-65.65)"/><rect class="cls-2" x="217.39" y="186.16" width="1.91" height="57.62" rx="0.5" ry="0.5" transform="translate(-76.99 296.58) rotate(-60)"/><rect class="cls-2" x="212.39" y="193.16" width="1.91" height="57.62" rx="0.5" ry="0.5" transform="translate(-90.03 274.39) rotate(-55.94)"/><rect class="cls-2" x="208.39" y="185.16" width="1.91" height="57.62" rx="0.5" ry="0.5" transform="translate(-85.16 267.56) rotate(-55.94)"/><rect class="cls-2" x="204.39" y="193.16" width="1.91" height="57.62" rx="0.5" ry="0.5" transform="translate(-93.55 267.76) rotate(-55.94)"/><rect class="cls-2" x="207.39" y="200.16" width="1.91" height="57.62" rx="0.5" ry="0.5" transform="translate(-98.03 273.33) rotate(-55.94)"/><rect class="cls-2" x="203.39" y="202.16" width="1.91" height="57.62" rx="0.5" ry="0.5" transform="translate(-101.44 270.89) rotate(-55.94)"/><rect class="cls-2" x="207.35" y="112.28" width="1.91" height="57.62" rx="0.5" ry="0.5" transform="translate(132.01 -98.65) rotate(38.24)"/><rect class="cls-2" x="209.02" y="119.08" width="1.91" height="57.62" rx="0.5" ry="0.5" transform="translate(162.37 -104.49) rotate(44.16)"/><rect class="cls-2" x="209.48" y="125.14" width="1.91" height="57.62" rx="0.5" ry="0.5" transform="translate(181.8 -105.21) rotate(47.51)"/><rect class="cls-2" x="211.39" y="132.91" width="1.91" height="57.62" rx="0.5" ry="0.5" transform="translate(197.92 -104.81) rotate(49.61)"/><rect class="cls-2" x="216.47" y="136.81" width="1.91" height="57.62" rx="0.5" ry="0.5" transform="translate(202.68 -107.3) rotate(49.61)"/><rect class="cls-2" x="215.96" y="143.11" width="1.91" height="57.62" rx="0.5" ry="0.5" transform="translate(227.04 -104.67) rotate(53.7)"/><rect class="cls-2" x="216.67" y="146.03" width="1.91" height="57.62" rx="0.5" ry="0.5" transform="translate(243.27 -103.14) rotate(56.49)"/><rect class="cls-2" x="199.1" y="112.25" width="1.91" height="57.62" rx="0.5" ry="0.5" transform="translate(121 -90.61) rotate(35.97)"/><rect class="cls-2" x="193.77" y="111.5" width="1.91" height="57.62" rx="0.5" ry="0.5" transform="translate(106.02 -82.71) rotate(32.54)"/><rect class="cls-2" x="187.46" y="110.99" width="1.91" height="57.62" rx="0.5" ry="0.5" transform="translate(91.02 -73.65) rotate(28.9)"/><rect class="cls-2" x="179.95" y="109.74" width="1.91" height="57.62" rx="0.5" ry="0.5" transform="translate(82.99 -67.21) rotate(27.1)"/><rect class="cls-2" x="173.65" y="109.23" width="1.91" height="57.62" rx="0.5" ry="0.5" transform="translate(72.44 -59.7) rotate(24.35)"/><rect class="cls-2" x="167.84" y="106.54" width="1.91" height="57.62" rx="0.5" ry="0.5" transform="translate(70.81 -57.55) rotate(24.35)"/><rect class="cls-2" x="170.85" y="224.33" width="1.91" height="57.62" rx="0.5" ry="0.5" transform="matrix(-1, 0, 0, -1, 344.17, 505.91)"/><rect class="cls-2" x="165.32" y="220.04" width="1.91" height="57.62" rx="0.5" ry="0.5" transform="translate(306.55 513.23) rotate(-174.2)"/><rect class="cls-2" x="161.19" y="215.57" width="1.91" height="57.62" rx="0.5" ry="0.5" transform="translate(283.41 511.42) rotate(-170.86)"/><rect class="cls-2" x="154.87" y="210.67" width="1.91" height="57.62" rx="0.5" ry="0.5" transform="translate(261.96 504.74) rotate(-168.75)"/><rect class="cls-2" x="148.47" y="210.76" width="1.91" height="57.62" rx="0.5" ry="0.5" transform="translate(249.26 503.68) rotate(-168.75)"/><rect class="cls-2" x="144.96" y="205.5" width="1.91" height="57.62" rx="0.5" ry="0.5" transform="translate(224.67 498.86) rotate(-164.67)"/><rect class="cls-2" x="142.59" y="203.66" width="1.91" height="57.62" rx="0.5" ry="0.5" transform="translate(207.62 498.06) rotate(-161.87)"/><rect class="cls-2" x="177.33" y="219.24" width="1.91" height="57.62" rx="0.5" ry="0.5" transform="translate(366.77 488.45) rotate(177.61)"/><rect class="cls-2" x="181.98" y="216.52" width="1.91" height="57.62" rx="0.5" ry="0.5" transform="translate(389.83 470.82) rotate(174.17)"/><rect class="cls-2" x="187.24" y="213.01" width="1.91" height="57.62" rx="0.5" ry="0.5" transform="translate(413.59 449.4) rotate(170.54)"/><rect class="cls-2" x="193.9" y="209.32" width="1.91" height="57.62" rx="0.5" ry="0.5" transform="translate(432.46 433.62) rotate(168.74)"/><rect class="cls-2" x="199.16" y="205.8" width="1.91" height="57.62" rx="0.5" ry="0.5" transform="translate(451.1 413.77) rotate(165.98)"/><rect class="cls-2" x="205.39" y="204.31" width="1.91" height="57.62" rx="0.5" ry="0.5" transform="translate(463 409.32) rotate(165.98)"/><path class="cls-3" d="M172.14,96.51l-22.64,64-65.49,2a.55.55,0,0,0-.32,1L135.5,204.5l-19.26,60.68a.86.86,0,0,0,1.29,1l55-36.65,53.94,37.56a.9.9,0,0,0,1.39-1L209.5,200.5,262,162.61a.61.61,0,0,0-.36-1.11H195.5l-22.65-65A.38.38,0,0,0,172.14,96.51Z"/><text class="cls-4" transform="translate(72.85 194.09) rotate(-86.08) scale(1.04 1)">P</text><text class="cls-4" transform="translate(73.88 175.54) rotate(-74.85) scale(1.04 1)">A</text><text class="cls-4" transform="matrix(0.46, -0.93, 0.89, 0.45, 79.38, 155.15)">T</text><text class="cls-4" transform="matrix(0.66, -0.81, 0.78, 0.63, 89.09, 135.9)">R</text><text class="cls-4" transform="matrix(0.79, -0.68, 0.65, 0.76, 103.6, 118.93)">I</text><text class="cls-4" transform="translate(113.22 110.22) rotate(-29.79) scale(1.04 1)">A</text><text class="cls-4" transform="matrix(0.99, -0.32, 0.31, 0.95, 134.14, 99.13)"> </text><text class="cls-4" transform="translate(143.03 95.84) rotate(-8.06) scale(1.04 1)">Y</text><text class="cls-4" transform="translate(165.61 93.27) rotate(0.22) scale(1.04 1)"> </text><text class="cls-4" transform="matrix(1.03, 0.13, -0.13, 0.99, 175.31, 93.11)">L</text><text class="cls-4" transform="matrix(1, 0.27, -0.26, 0.97, 194.78, 95.9)">I</text><text class="cls-4" transform="translate(207.5 99.09) rotate(24.01) scale(1.04 1)">B</text><text class="cls-4" transform="matrix(0.84, 0.61, -0.59, 0.81, 227.08, 107.97)">E</text><text class="cls-4" transform="translate(243.51 119.91) rotate(49.47) scale(1.04 1)">R</text><text class="cls-4" transform="matrix(0.48, 0.92, -0.89, 0.46, 256.84, 135.5)">T</text><text class="cls-4" transform="matrix(0.27, 1, -0.97, 0.26, 265.72, 152.25)">A</text><text class="cls-4" transform="matrix(0.06, 1.04, -1, 0.05, 271.75, 175.19)">D</text><circle class="cls-2" cx="61.5" cy="204.5" r="3.5"/><circle class="cls-2" cx="283.5" cy="211.5" r="3.5"/><path class="cls-5" d="M68,217.71l-.1-.42c.32-.18.7-.38,1.14-.58s.86-.39,1.26-.55a5,5,0,0,1,1.21,1.27,5.38,5.38,0,0,1,.76,1.73,3.77,3.77,0,0,1,.11,1.49,2.57,2.57,0,0,1-.44,1.12,2.49,2.49,0,0,1-.86.75,3.72,3.72,0,0,1-1.14.38,5.78,5.78,0,0,1-2.19-.09,14.32,14.32,0,0,1-2.35-.74A19.79,19.79,0,0,1,63.1,221q-1.08-.61-1.91-1.13l-.88-.59h-.07l.34.92.72,2.89,2.24.48.1.42-.85.21-.94.22-.91.2-.77.15-1.73-6.95.58-.1,1.24.73q.73.43,1.6.88t1.82.88a17.33,17.33,0,0,0,1.91.72,12.63,12.63,0,0,0,1.86.43,5.26,5.26,0,0,0,1.67,0,3.75,3.75,0,0,0,1-.29,2.33,2.33,0,0,0,.73-.52A1.62,1.62,0,0,0,71.2,219a3.44,3.44,0,0,0-.21-.61,5.2,5.2,0,0,0-.31-.56Z"/><path class="cls-5" d="M67.56,234.86a4.7,4.7,0,0,1-1.63.08,4.48,4.48,0,0,1-1.5-.47,4,4,0,0,1-1.22-1,4,4,0,0,1-.77-1.44,3.75,3.75,0,0,1-.15-1.72,3.17,3.17,0,0,1,.61-1.42,4,4,0,0,1,1.27-1.07A6.57,6.57,0,0,1,66,227.2a9.4,9.4,0,0,1,3.25-.17,10.15,10.15,0,0,1,2.91.82,9.45,9.45,0,0,1,2.4,1.56,8.44,8.44,0,0,1,1.7,2.08l-.48.3a8.3,8.3,0,0,0-1.43-1.46,8.6,8.6,0,0,0-3.89-1.76,7.35,7.35,0,0,0-2.27-.05,2.89,2.89,0,0,1,1.18.75,3.4,3.4,0,0,1,.88,1.49,3.55,3.55,0,0,1,.15,1.38,2.72,2.72,0,0,1-.4,1.2,3.09,3.09,0,0,1-.94.93A4.41,4.41,0,0,1,67.56,234.86Zm-.65-1.56a3.38,3.38,0,0,0,1.92-1,1.78,1.78,0,0,0,.33-1.78,2.43,2.43,0,0,0-.83-1.24,2.84,2.84,0,0,0-1.19-.58,4.55,4.55,0,0,0-.61.1l-.54.12a5.09,5.09,0,0,0-1.14.4,3.81,3.81,0,0,0-1,.68,2.44,2.44,0,0,0-.61.91,1.66,1.66,0,0,0,0,1.09,1.78,1.78,0,0,0,.54.85,2.33,2.33,0,0,0,.88.47,3.79,3.79,0,0,0,1.09.14A5.61,5.61,0,0,0,66.92,233.31Z"/><path class="cls-5" d="M66.16,237.92a1.29,1.29,0,0,1,1-.07,1.24,1.24,0,0,1,.71.61,1.09,1.09,0,0,1,.11.9,1.11,1.11,0,0,1-.65.65,1.24,1.24,0,0,1-1.66-.56,1.06,1.06,0,0,1-.1-.88A1.09,1.09,0,0,1,66.16,237.92Z"/><path class="cls-5" d="M77.52,240.43l-.15-.42.75-.37.81-.36.79-.31.7-.23,2.46,6.9-.51.15q-1.88-.37-3.4-.53a27.89,27.89,0,0,0-3-.16q-1.5,0-3.11.16t-3.63.44L68.6,244a52.06,52.06,0,0,1,5.69,0q2.88.17,5.89.62l1,.25-.4-.84-1.26-3.53Z"/><path class="cls-5" d="M82.11,249.08l-.21-.38q.4-.39,1-.85t1.08-.85a5,5,0,0,1,1.49.92,5.37,5.37,0,0,1,1.17,1.48,3.76,3.76,0,0,1,.48,1.41,2.57,2.57,0,0,1-.15,1.19,2.5,2.5,0,0,1-.65.94,3.75,3.75,0,0,1-1,.66,5.76,5.76,0,0,1-2.15.46,14.22,14.22,0,0,1-2.46-.13,20,20,0,0,1-2.45-.49q-1.19-.32-2.13-.62l-1-.35-.07,0,.56.81L77,255.94l2.29-.09.21.38-.77.42-.85.45-.84.42-.71.33-3.42-6.29.54-.24,1.38.4q.81.23,1.77.45t2,.39a17.11,17.11,0,0,0,2,.22,12.63,12.63,0,0,0,1.9,0,5.26,5.26,0,0,0,1.62-.41,3.7,3.7,0,0,0,.86-.53,2.31,2.31,0,0,0,.58-.68,1.62,1.62,0,0,0,0-1.62,3.28,3.28,0,0,0-.36-.54,5.21,5.21,0,0,0-.44-.47Z"/><path class="cls-5" d="M87,256.62a4.37,4.37,0,0,1,1.6-.59,3,3,0,0,1,1.52.16,3.58,3.58,0,0,1,1.35.93,5.64,5.64,0,0,1,1.06,1.74,6.18,6.18,0,0,1,.5,2.19,4.82,4.82,0,0,1-1.4,3.59A8.2,8.2,0,0,1,89.86,266a8.58,8.58,0,0,1-3.06,1.14,7.19,7.19,0,0,1-2.88-.11,6.5,6.5,0,0,1-2.49-1.25,7.37,7.37,0,0,1-1.87-2.27l.33-.64a6.76,6.76,0,0,0,1.63,1.62,5.52,5.52,0,0,0,1.85.83,5.81,5.81,0,0,0,2,.13,7.65,7.65,0,0,0,2-.5,3.7,3.7,0,0,1-1.11-.69,4.13,4.13,0,0,1-1-1.54,6.35,6.35,0,0,1-.45-1.78,4.71,4.71,0,0,1,.12-1.68,4.3,4.3,0,0,1,2-2.63Zm.8,1.9a3.44,3.44,0,0,0-.86.73,3.51,3.51,0,0,0-.6,1,3.4,3.4,0,0,0-.24,1.15,2.91,2.91,0,0,0,.22,1.2,3.77,3.77,0,0,0,.92,1.42,1.91,1.91,0,0,0,1.06.52,3.67,3.67,0,0,0,.55-.28l.5-.3a6.84,6.84,0,0,0,1.15-.87,5.18,5.18,0,0,0,.92-1.13,3.56,3.56,0,0,0,.47-1.32,2.68,2.68,0,0,0-.19-1.42,2,2,0,0,0-1.53-1.36A3.67,3.67,0,0,0,87.77,258.53Z"/><path class="cls-5" d="M102.26,267.83l.32.3-.49.39c-.18.14-.37.28-.56.41l-.56.37a3.64,3.64,0,0,1-.47.27l-3.12-2.91-2.92,2.11.82.77a4.68,4.68,0,0,1,1,1.25,2.93,2.93,0,0,1,.07,2.68,4,4,0,0,1-1,1.28,5,5,0,0,1-1.64,1,4.49,4.49,0,0,1-1.67.29,4.3,4.3,0,0,1-1.55-.33,4.41,4.41,0,0,1-1.31-.84,4.59,4.59,0,0,1-.5-.55,5,5,0,0,1-.75-1.38,2.75,2.75,0,0,1-.15-.66l1.59-.78.25.24c0,.1,0,.24-.05.4s0,.33-.08.5l-.08.52c0,.17,0,.33-.06.47a2.05,2.05,0,0,1,.17.28,1.4,1.4,0,0,0,.3.35,2.43,2.43,0,0,0,.94.55,2.87,2.87,0,0,0,1.08.12,3.34,3.34,0,0,0,1.11-.29,3.79,3.79,0,0,0,1-.68,2.8,2.8,0,0,0,.75-1,2.11,2.11,0,0,0,.13-1.08,2.81,2.81,0,0,0-.39-1.06,4.17,4.17,0,0,0-.81-1l-.91-.83,5.21-3.84,3,2.81Z"/><text class="cls-6" transform="matrix(0.91, 0.51, -0.49, 0.87, 101.28, 286.57)">G</text><circle class="cls-2" cx="129" cy="294" r="3.5"/><circle class="cls-2" cx="226" cy="288" r="3.5"/><text class="cls-7" transform="matrix(1.02, 0.18, -0.18, 0.98, 134.4, 307.71)">1</text><text class="cls-7" transform="translate(153.69 311.06) rotate(4.28) scale(1.04 1)">9</text><text class="cls-7" transform="matrix(1.04, -0.08, 0.08, 1, 173.9, 312.37)">3</text><text class="cls-7" transform="translate(195.92 310.01) rotate(-21.65) scale(1.04 1)">4</text><text class="cls-8" transform="translate(246.14 281.69) rotate(-39.09) scale(1.04 1)">9</text><text class="cls-8" transform="translate(256.51 272.95) rotate(-46.88) scale(1.04 1)">0</text><text class="cls-8" transform="translate(265.6 262.88) rotate(-54.89) scale(1.04 1)">0</text><text class="cls-9" transform="translate(272.99 251.78) rotate(-61.11) scale(1.04 1)"> </text><text class="cls-9" transform="translate(276.62 245.46) rotate(-68.53) scale(1.04 1)">M</text></svg>