<svg id="图层_1" data-name="图层 1" xmlns="http://www.w3.org/2000/svg" viewBox="0 0 449 416"><defs><style>.cls-1,.cls-2,.cls-3{fill:none;stroke:#68584c;stroke-miterlimit:10;}.cls-2{opacity:0.5;isolation:isolate;}.cls-3{stroke-width:2px;}.cls-4{fill:#7d9eaa;}</style></defs><title>timeline</title><line id="svg_2" data-name="svg 2" class="cls-1" x1="20.16" y1="117.18" x2="19.61" y2="124.44"/><line id="svg_3" data-name="svg 3" class="cls-1" x1="19.92" y1="123.83" x2="17.11" y2="128.6"/><line id="svg_4" data-name="svg 4" class="cls-1" x1="17.35" y1="128.23" x2="15.22" y2="129.94"/><line id="svg_7" data-name="svg 7" class="cls-1" x1="15.52" y1="129.15" x2="15.52" y2="133.6"/><line id="svg_8" data-name="svg 8" class="cls-1" x1="15.22" y1="132.81" x2="16.86" y2="134.89"/><line id="svg_15" data-name="svg 15" class="cls-1" x1="16.5" y1="134.28" x2="16.74" y2="138.43"/><line id="svg_16" data-name="svg 16" class="cls-1" x1="17.05" y1="137.94" x2="15.4" y2="140.26"/><line id="svg_21" data-name="svg 21" class="cls-1" x1="15.64" y1="139.77" x2="15.64" y2="145.7"/><line id="svg_22" data-name="svg 22" class="cls-1" x1="15.46" y1="145.08" x2="17.72" y2="148.87"/><line id="svg_25" data-name="svg 25" class="cls-1" x1="17.54" y1="148.26" x2="17.48" y2="153.15"/><line id="svg_27" data-name="svg 27" class="cls-1" x1="17.29" y1="152.41" x2="19.37" y2="154.43"/><line id="svg_30" data-name="svg 30" class="cls-1" x1="18.45" y1="154.31" x2="21.57" y2="153.15"/><line id="svg_34" data-name="svg 34" class="cls-1" x1="20.47" y1="152.66" x2="21.63" y2="155.65"/><line id="svg_40" data-name="svg 40" class="cls-1" x1="21.69" y1="155.1" x2="20.83" y2="157.54"/><line id="svg_43" data-name="svg 43" class="cls-1" x1="21.57" y1="157.85" x2="19" y2="156.32"/><line id="svg_44" data-name="svg 44" class="cls-1" x1="20.04" y1="156.75" x2="20.59" y2="157.24"/><line id="svg_48" data-name="svg 48" class="cls-1" x1="19.8" y1="156.32" x2="18.64" y2="162.06"/><line id="svg_49" data-name="svg 49" class="cls-1" x1="18.39" y1="161.21" x2="22.18" y2="164.32"/><line id="svg_51" data-name="svg 51" class="cls-1" x1="20.41" y1="163.1" x2="20.41" y2="163.04"/><line id="svg_53" data-name="svg 53" class="cls-1" x1="21.81" y1="163.47" x2="21.02" y2="165.48"/><line id="svg_54" data-name="svg 54" class="cls-1" x1="21.93" y1="165.48" x2="19.06" y2="164.99"/><line id="svg_56" data-name="svg 56" class="cls-1" x1="14.36" y1="167.19" x2="14.3" y2="167.19"/><line id="svg_59" data-name="svg 59" class="cls-1" x1="20.28" y1="164.99" x2="19.37" y2="167.01"/><line id="svg_60" data-name="svg 60" class="cls-1" x1="19.31" y1="166.28" x2="25.9" y2="181.3"/><line id="svg_63" data-name="svg 63" class="cls-1" x1="26.15" y1="180.32" x2="23.95" y2="182.64"/><line id="svg_64" data-name="svg 64" class="cls-1" x1="23.7" y1="181.67" x2="24.32" y2="182.4"/><line id="svg_65" data-name="svg 65" class="cls-1" x1="24.01" y1="182.34" x2="24.01" y2="184.47"/><line id="svg_66" data-name="svg 66" class="cls-1" x1="23.7" y1="183.92" x2="26.82" y2="186.92"/><line id="svg_67" data-name="svg 67" class="cls-1" x1="26.27" y1="186.49" x2="29.63" y2="188.02"/><line id="svg_68" data-name="svg 68" class="cls-1" x1="29.2" y1="187.77" x2="32.38" y2="190.21"/><line id="svg_69" data-name="svg 69" class="cls-1" x1="32.07" y1="189.67" x2="32.62" y2="192.72"/><line id="svg_70" data-name="svg 70" class="cls-1" x1="31.66" y1="192.21" x2="36.77" y2="191.93"/><line id="svg_71" data-name="svg 71" class="cls-1" x1="35.99" y1="191.65" x2="37.71" y2="193.48"/><line id="svg_72" data-name="svg 72" class="cls-1" x1="37.55" y1="192.76" x2="37.55" y2="195.09"/><line id="svg_73" data-name="svg 73" class="cls-1" x1="37.05" y1="194.48" x2="39.65" y2="196.26"/><line id="svg_74" data-name="svg 74" class="cls-1" x1="39.27" y1="195.87" x2="43.32" y2="202.42"/><line id="svg_75" data-name="svg 75" class="cls-1" x1="43.15" y1="201.92" x2="43.65" y2="207.75"/><line id="svg_76" data-name="svg 76" class="cls-1" x1="42.82" y1="207.03" x2="60.31" y2="209.25"/><line id="svg_77" data-name="svg 77" class="cls-1" x1="59.69" y1="209.85" x2="62.82" y2="209.24"/><line id="svg_84" data-name="svg 84" class="cls-1" x1="60.53" y1="210.46" x2="59.84" y2="212.52"/><line id="svg_85" data-name="svg 85" class="cls-1" x1="59.46" y1="211.53" x2="85.11" y2="227.1"/><line id="svg_86" data-name="svg 86" class="cls-1" x1="84.73" y1="227.02" x2="104.88" y2="230.31"/><line id="svg_87" data-name="svg 87" class="cls-1" x1="104.12" y1="230.99" x2="105.57" y2="227.18"/><line id="svg_88" data-name="svg 88" class="cls-1" x1="105.19" y1="227.64" x2="107.93" y2="226.26"/><line id="svg_89" data-name="svg 89" class="cls-1" x1="107.32" y1="226.34" x2="116.56" y2="228.02"/><line id="svg_90" data-name="svg 90" class="cls-1" x1="115.95" y1="227.71" x2="127.86" y2="240.23"/><line id="svg_91" data-name="svg 91" class="cls-1" x1="127.55" y1="239.62" x2="129.54" y2="247.79"/><line id="svg_92" data-name="svg 92" class="cls-2" x1="129.31" y1="247.18" x2="137.71" y2="250.76"/><line id="svg_95" data-name="svg 95" class="cls-1" x1="129.08" y1="247.1" x2="140.15" y2="253.13"/><line id="svg_96" data-name="svg 96" class="cls-1" x1="139.35" y1="253.14" x2="141.49" y2="252.22"/><line id="svg_97" data-name="svg 97" class="cls-1" x1="141.12" y1="252.56" x2="144.47" y2="247.37"/><line id="svg_98" data-name="svg 98" class="cls-1" x1="144" y1="247.84" x2="146.95" y2="246.42"/><line id="svg_99" data-name="svg 99" class="cls-1" x1="146.37" y1="246.52" x2="152.99" y2="247.54"/><line id="svg_100" data-name="svg 100" class="cls-1" x1="152.41" y1="247.27" x2="157.3" y2="251.95"/><line id="svg_103" data-name="svg 103" class="cls-1" x1="157.03" y1="251.29" x2="158.8" y2="256.62"/><line id="svg_104" data-name="svg 104" class="cls-1" x1="158.47" y1="255.84" x2="161.47" y2="261.84"/><line id="svg_105" data-name="svg 105" class="cls-1" x1="161.13" y1="261.28" x2="165.35" y2="267.06"/><line id="svg_106" data-name="svg 106" class="cls-1" x1="165.13" y1="266.5" x2="166.02" y2="270.83"/><line id="svg_107" data-name="svg 107" class="cls-1" x1="165.68" y1="269.94" x2="169.46" y2="276.6"/><line id="svg_108" data-name="svg 108" class="cls-1" x1="169.13" y1="276.16" x2="175.12" y2="278.94"/><line id="svg_109" data-name="svg 109" class="cls-1" x1="174.79" y1="278.94" x2="179.12" y2="278.94"/><line id="svg_110" data-name="svg 110" class="cls-1" x1="178.23" y1="278.38" x2="179.56" y2="280.82"/><line id="svg_111" data-name="svg 111" class="cls-1" x1="178.67" y1="280.38" x2="182.56" y2="280.49"/><line id="svg_112" data-name="svg 112" class="cls-1" x1="182.11" y1="281.38" x2="181.89" y2="277.82"/><line id="svg_113" data-name="svg 113" class="cls-1" x1="182" y1="278.27" x2="180.89" y2="269.5"/><line id="svg_114" data-name="svg 114" class="cls-1" x1="180.78" y1="270.5" x2="184.56" y2="261.17"/><line id="svg_115" data-name="svg 115" class="cls-1" x1="184.11" y1="261.73" x2="188.66" y2="257.95"/><line id="svg_116" data-name="svg 116" class="cls-1" x1="188" y1="258.4" x2="193.33" y2="257.29"/><line id="svg_117" data-name="svg 117" class="cls-1" x1="191.88" y1="257.4" x2="196.1" y2="257.51"/><line id="svg_118" data-name="svg 118" class="cls-1" x1="195.1" y1="257.84" x2="196.88" y2="255.84"/><line id="svg_119" data-name="svg 119" class="cls-1" x1="196.77" y1="255.96" x2="199.77" y2="253.29"/><line id="svg_121" data-name="svg 121" class="cls-1" x1="199.54" y1="254.07" x2="198.43" y2="249.18"/><line id="svg_122" data-name="svg 122" class="cls-1" x1="197.88" y1="250.18" x2="201.54" y2="248.96"/><line id="svg_123" data-name="svg 123" class="cls-1" x1="200.43" y1="248.07" x2="201.32" y2="250.29"/><line id="svg_124" data-name="svg 124" class="cls-1" x1="200.88" y1="251.29" x2="206.2" y2="248.96"/><line id="svg_125" data-name="svg 125" class="cls-1" x1="205.87" y1="248.85" x2="214.53" y2="248.85"/><line id="svg_126" data-name="svg 126" class="cls-1" x1="214.2" y1="248.63" x2="217.31" y2="250.85"/><line id="svg_127" data-name="svg 127" class="cls-1" x1="216.64" y1="250.74" x2="220.53" y2="249.96"/><line id="svg_128" data-name="svg 128" class="cls-1" x1="220.19" y1="249.85" x2="222.75" y2="248.07"/><line id="svg_129" data-name="svg 129" class="cls-1" x1="221.41" y1="247.96" x2="224.97" y2="252.74"/><line id="svg_130" data-name="svg 130" class="cls-1" x1="224.41" y1="252.4" x2="228.07" y2="253.4"/><line id="svg_131" data-name="svg 131" class="cls-1" x1="227.41" y1="253.29" x2="231.29" y2="251.74"/><line id="svg_132" data-name="svg 132" class="cls-1" x1="230.41" y1="251.96" x2="234.74" y2="252.51"/><line id="svg_133" data-name="svg 133" class="cls-1" x1="233.85" y1="252.51" x2="236.4" y2="251.85"/><line id="svg_134" data-name="svg 134" class="cls-1" x1="235.73" y1="252.4" x2="235.62" y2="248.96"/><line id="svg_135" data-name="svg 135" class="cls-1" x1="235.85" y1="249.74" x2="239.18" y2="252.18"/><line id="svg_136" data-name="svg 136" class="cls-1" x1="238.18" y1="251.74" x2="241.17" y2="253.85"/><line id="svg_137" data-name="svg 137" class="cls-1" x1="240.29" y1="254.07" x2="242.73" y2="252.51"/><line id="svg_138" data-name="svg 138" class="cls-1" x1="241.84" y1="252.74" x2="242.17" y2="249.85"/><line id="svg_139" data-name="svg 139" class="cls-1" x1="242.51" y1="250.74" x2="238.18" y2="249.07"/><line id="svg_140" data-name="svg 140" class="cls-1" x1="238.62" y1="250.29" x2="238.51" y2="248.18"/><line id="svg_141" data-name="svg 141" class="cls-1" x1="238.4" y1="248.52" x2="241.06" y2="244.3"/><line id="svg_142" data-name="svg 142" class="cls-1" x1="240.62" y1="244.41" x2="245.06" y2="244.41"/><line id="svg_143" data-name="svg 143" class="cls-1" x1="243.84" y1="244.63" x2="246.95" y2="241.08"/><line id="svg_144" data-name="svg 144" class="cls-1" x1="246.28" y1="241.52" x2="250.28" y2="241.97"/><line id="svg_145" data-name="svg 145" class="cls-1" x1="249.61" y1="241.86" x2="253.5" y2="239.64"/><line id="svg_146" data-name="svg 146" class="cls-1" x1="252.39" y1="239.86" x2="260.38" y2="238.41"/><line id="svg_147" data-name="svg 147" class="cls-1" x1="259.94" y1="238.3" x2="262.49" y2="239.3"/><line id="svg_148" data-name="svg 148" class="cls-1" x1="261.38" y1="239.52" x2="267.04" y2="239.52"/><line id="svg_149" data-name="svg 149" class="cls-1" x1="266.04" y1="239.52" x2="269.04" y2="244.08"/><line id="svg_150" data-name="svg 150" class="cls-1" x1="268.82" y1="243.97" x2="271.59" y2="244.74"/><line id="svg_151" data-name="svg 151" class="cls-1" x1="270.93" y1="244.41" x2="276.14" y2="239.64"/><line id="svg_152" data-name="svg 152" class="cls-1" x1="275.37" y1="239.75" x2="280.03" y2="240.52"/><line id="svg_153" data-name="svg 153" class="cls-1" x1="278.92" y1="240.41" x2="283.92" y2="243.97"/><line id="svg_154" data-name="svg 154" class="cls-1" x1="283.03" y1="243.52" x2="288.91" y2="247.3"/><line id="svg_155" data-name="svg 155" class="cls-1" x1="288.91" y1="246.74" x2="288.8" y2="252.29"/><line id="svg_156" data-name="svg 156" class="cls-1" x1="289.24" y1="251.96" x2="287.58" y2="253.96"/><line id="svg_181" data-name="svg 181" class="cls-1" x1="303.65" y1="249.71" x2="303.26" y2="245.49"/><line id="svg_183" data-name="svg 183" class="cls-1" x1="303.4" y1="245.94" x2="297.72" y2="238.12"/><line id="svg_185" data-name="svg 185" class="cls-1" x1="297.86" y1="238.51" x2="295.41" y2="230.06"/><line id="svg_186" data-name="svg 186" class="cls-1" x1="296.17" y1="230.47" x2="294.11" y2="230.47"/><line id="svg_187" data-name="svg 187" class="cls-1" x1="294.79" y1="230.32" x2="294.64" y2="222.38"/><line id="svg_188" data-name="svg 188" class="cls-1" x1="294.41" y1="222.92" x2="295.86" y2="221.01"/><line id="svg_189" data-name="svg 189" class="cls-1" x1="295.94" y1="221.31" x2="296.63" y2="218.79"/><line id="svg_190" data-name="svg 190" class="cls-1" x1="296.32" y1="218.79" x2="298.69" y2="218.95"/><line id="svg_191" data-name="svg 191" class="cls-1" x1="297.85" y1="218.87" x2="299.53" y2="214.44"/><line id="svg_192" data-name="svg 192" class="cls-1" x1="298.69" y1="214.98" x2="301.59" y2="214.98"/><line id="svg_193" data-name="svg 193" class="cls-1" x1="301.13" y1="215.21" x2="304.03" y2="212.99"/><line id="svg_194" data-name="svg 194" class="cls-1" x1="303.8" y1="213.76" x2="303.65" y2="211.08"/><line id="svg_195" data-name="svg 195" class="cls-1" x1="303.34" y1="211.77" x2="307.31" y2="208.64"/><line id="svg_196" data-name="svg 196" class="cls-1" x1="306.85" y1="209.25" x2="306.78" y2="205.59"/><line id="svg_197" data-name="svg 197" class="cls-1" x1="306.55" y1="206.2" x2="310.97" y2="200.55"/><line id="svg_198" data-name="svg 198" class="cls-1" x1="310.36" y1="200.93" x2="315.55" y2="199.48"/><line id="svg_199" data-name="svg 199" class="cls-1" x1="314.79" y1="200.4" x2="314.79" y2="196.35"/><line id="svg_200" data-name="svg 200" class="cls-1" x1="314.41" y1="196.96" x2="319.6" y2="191.93"/><line id="svg_201" data-name="svg 201" class="cls-1" x1="319.14" y1="192.16" x2="323.34" y2="190.4"/><line id="svg_202" data-name="svg 202" class="cls-1" x1="323.11" y1="191.16" x2="323.03" y2="188.42"/><line id="svg_203" data-name="svg 203" class="cls-1" x1="323.57" y1="189.03" x2="320.36" y2="185.29"/><line id="svg_204" data-name="svg 204" class="cls-1" x1="319.68" y1="185.36" x2="325.25" y2="184.29"/><line id="svg_205" data-name="svg 205" class="cls-1" x1="324.41" y1="184.68" x2="326.62" y2="182.84"/><line id="svg_206" data-name="svg 206" class="cls-1" x1="326.93" y1="183.3" x2="326.32" y2="180.71"/><line id="svg_207" data-name="svg 207" class="cls-1" x1="326.39" y1="181.01" x2="324.48" y2="180.32"/><line id="svg_208" data-name="svg 208" class="cls-1" x1="326.93" y1="181.32" x2="323.8" y2="180.1"/><line id="svg_209" data-name="svg 209" class="cls-1" x1="324.26" y1="180.1" x2="320.44" y2="180.4"/><line id="svg_210" data-name="svg 210" class="cls-1" x1="320.44" y1="180.02" x2="323.11" y2="178.03"/><line id="svg_211" data-name="svg 211" class="cls-1" x1="322.65" y1="178.49" x2="324.26" y2="176.36"/><line id="svg_212" data-name="svg 212" class="cls-1" x1="324.33" y1="177.2" x2="322.19" y2="172.54"/><line id="svg_213" data-name="svg 213" class="cls-1" x1="322.73" y1="172.92" x2="319.22" y2="172.54"/><line id="svg_214" data-name="svg 214" class="cls-1" x1="319.91" y1="172.84" x2="317.84" y2="170.48"/><line id="svg_215" data-name="svg 215" class="cls-1" x1="317.77" y1="171.47" x2="319.29" y2="169.33"/><line id="svg_216" data-name="svg 216" class="cls-1" x1="319.52" y1="170.17" x2="317.16" y2="167.2"/><line id="svg_217" data-name="svg 217" class="cls-1" x1="316.41" y1="166.88" x2="319.51" y2="166.29"/><line id="svg_218" data-name="svg 218" class="cls-1" x1="319.45" y1="165.9" x2="311.81" y2="162.77"/><line id="svg_219" data-name="svg 219" class="cls-1" x1="311.97" y1="161.93" x2="317.69" y2="162.39"/><line id="svg_220" data-name="svg 220" class="cls-1" x1="317" y1="162.62" x2="315.71" y2="159.26"/><line id="svg_221" data-name="svg 221" class="cls-1" x1="315.55" y1="159.87" x2="314.56" y2="153.38"/><line id="svg_222" data-name="svg 222" class="cls-1" x1="315.02" y1="153.38" x2="318.76" y2="160.33"/><line id="svg_223" data-name="svg 223" class="cls-1" x1="318.53" y1="160.17" x2="322.65" y2="162.85"/><line id="svg_224" data-name="svg 224" class="cls-1" x1="321.66" y1="163.15" x2="324.79" y2="161.55"/><line id="svg_225" data-name="svg 225" class="cls-1" x1="325.02" y1="162.16" x2="324.94" y2="159.11"/><line id="svg_227" data-name="svg 227" class="cls-1" x1="325.02" y1="159.64" x2="324.79" y2="157.27"/><line id="svg_228" data-name="svg 228" class="cls-1" x1="325.32" y1="157.73" x2="320.21" y2="152.08"/><line id="svg_229" data-name="svg 229" class="cls-1" x1="320.29" y1="152.54" x2="321.81" y2="150.86"/><line id="svg_230" data-name="svg 230" class="cls-1" x1="321.2" y1="150.33" x2="324.87" y2="153.15"/><line id="svg_231" data-name="svg 231" class="cls-1" x1="324.48" y1="153.92" x2="327.23" y2="149.18"/><line id="svg_232" data-name="svg 232" class="cls-1" x1="327" y1="149.64" x2="327.77" y2="145.9"/><line id="svg_233" data-name="svg 233" class="cls-1" x1="327.77" y1="146.66" x2="327.92" y2="142.92"/><line id="svg_234" data-name="svg 234" class="cls-1" x1="328.07" y1="143.46" x2="327.31" y2="140.25"/><line id="svg_235" data-name="svg 235" class="cls-1" x1="327.92" y1="141.09" x2="325.63" y2="139.49"/><line id="svg_236" data-name="svg 236" class="cls-1" x1="325.4" y1="140.33" x2="327.77" y2="137.81"/><line id="svg_237" data-name="svg 237" class="cls-1" x1="327" y1="137.28" x2="330.82" y2="138.5"/><line id="svg_238" data-name="svg 238" class="cls-1" x1="329.98" y1="138.57" x2="338.22" y2="133.23"/><line id="svg_239" data-name="svg 239" class="cls-1" x1="338.91" y1="133.46" x2="336.62" y2="131.93"/><line id="svg_240" data-name="svg 240" class="cls-1" x1="337.38" y1="132.01" x2="329.67" y2="135.67"/><line id="svg_241" data-name="svg 241" class="cls-1" x1="328.76" y1="135.37" x2="335.7" y2="129.57"/><line id="svg_242" data-name="svg 242" class="cls-1" x1="335.17" y1="129.64" x2="338.76" y2="129.8"/><line id="svg_244" data-name="svg 244" class="cls-1" x1="337.99" y1="129.8" x2="341.35" y2="128.58"/><line id="svg_245" data-name="svg 245" class="cls-1" x1="340.9" y1="129.11" x2="341.35" y2="125.22"/><line id="svg_246" data-name="svg 246" class="cls-1" x1="340.9" y1="125.45" x2="343.11" y2="125.37"/><line id="svg_247" data-name="svg 247" class="cls-1" x1="343.18" y1="124.38" x2="344.41" y2="127.89"/><line id="svg_248" data-name="svg 248" class="cls-1" x1="343.72" y1="127.43" x2="347.08" y2="127.51"/><line id="svg_250" data-name="svg 250" class="cls-1" x1="347.54" y1="128.12" x2="346.01" y2="125.22"/><line id="svg_251" data-name="svg 251" class="cls-1" x1="345.32" y1="125.67" x2="348.99" y2="123.69"/><line id="svg_252" data-name="svg 252" class="cls-1" x1="348.6" y1="124.15" x2="349.9" y2="121.93"/><line id="svg_253" data-name="svg 253" class="cls-1" x1="349.98" y1="122.7" x2="348.15" y2="119.64"/><line id="svg_254" data-name="svg 254" class="cls-1" x1="348.91" y1="120.18" x2="346.16" y2="120.33"/><line id="svg_255" data-name="svg 255" class="cls-1" x1="345.78" y1="119.8" x2="347.08" y2="121.86"/><line id="svg_256" data-name="svg 256" class="cls-1" x1="346.09" y1="122.62" x2="340.44" y2="119.11"/><line id="svg_257" data-name="svg 257" class="cls-1" x1="341.28" y1="119.95" x2="342.12" y2="116.21"/><line id="svg_258" data-name="svg 258" class="cls-1" x1="342.73" y1="116.82" x2="340.28" y2="115.68"/><line id="svg_259" data-name="svg 259" class="cls-1" x1="340.21" y1="116.52" x2="342.12" y2="108.65"/><line id="svg_260" data-name="svg 260" class="cls-1" x1="341.89" y1="109.11" x2="348.22" y2="102.17"/><line id="svg_261" data-name="svg 261" class="cls-1" x1="347.84" y1="102.7" x2="348.6" y2="98.73"/><line id="svg_262" data-name="svg 262" class="cls-1" x1="348.22" y1="99.42" x2="356.92" y2="91.33"/><line id="svg_263" data-name="svg 263" class="cls-1" x1="357" y1="92.01" x2="355.24" y2="89.65"/><line id="svg_264" data-name="svg 264" class="cls-1" x1="355.93" y1="89.95" x2="352.8" y2="89.65"/><line id="svg_265" data-name="svg 265" class="cls-1" x1="353.79" y1="90.34" x2="352.73" y2="87.05"/><line id="svg_266" data-name="svg 266" class="cls-1" x1="353.41" y1="87.66" x2="349.9" y2="87.28"/><line id="svg_267" data-name="svg 267" class="cls-1" x1="350.05" y1="88.05" x2="349.06" y2="85.83"/><line id="svg_268" data-name="svg 268" class="cls-1" x1="349.21" y1="86.21" x2="348.3" y2="83.39"/><line id="svg_269" data-name="svg 269" class="cls-1" x1="348.45" y1="84.38" x2="348.22" y2="79.19"/><line id="svg_270" data-name="svg 270" class="cls-1" x1="348.3" y1="79.73" x2="346.01" y2="75.45"/><line id="svg_271" data-name="svg 271" class="cls-1" x1="346.16" y1="76.06" x2="345.4" y2="74.84"/><line id="svg_272" data-name="svg 272" class="cls-1" x1="345.63" y1="75.38" x2="342.73" y2="74.54"/><line id="svg_273" data-name="svg 273" class="cls-1" x1="343.34" y1="74.15" x2="339.67" y2="77.44"/><line id="svg_274" data-name="svg 274" class="cls-1" x1="340.67" y1="77.36" x2="339.22" y2="76.37"/><line id="svg_275" data-name="svg 275" class="cls-1" x1="339.67" y1="76.44" x2="336.85" y2="76.52"/><line id="svg_276" data-name="svg 276" class="cls-1" x1="336.62" y1="75.6" x2="334.71" y2="82.24"/><line id="svg_277" data-name="svg 277" class="cls-1" x1="334.87" y1="81.79" x2="334.71" y2="87.05"/><line id="svg_279" data-name="svg 279" class="cls-1" x1="334.56" y1="86.6" x2="335.7" y2="92.24"/><line id="svg_280" data-name="svg 280" class="cls-1" x1="335.93" y1="91.4" x2="333.49" y2="96.06"/><line id="svg_281" data-name="svg 281" class="cls-1" x1="333.57" y1="95.75" x2="331.66" y2="97.97"/><line id="svg_282" data-name="svg 282" class="cls-1" x1="331.81" y1="97.51" x2="331.51" y2="100.03"/><line id="svg_283" data-name="svg 283" class="cls-1" x1="332.27" y1="99.42" x2="325.32" y2="100.18"/><line id="svg_284" data-name="svg 284" class="cls-1" x1="325.86" y1="100.03" x2="312.43" y2="104.53"/><line id="svg_285" data-name="svg 285" class="cls-1" x1="313.11" y1="104.07" x2="304.95" y2="113.92"/><line id="svg_286" data-name="svg 286" class="cls-1" x1="305.25" y1="112.85" x2="307.85" y2="114.99"/><line id="svg_287" data-name="svg 287" class="cls-1" x1="307.39" y1="114.3" x2="307.46" y2="120.18"/><line id="svg_288" data-name="svg 288" class="cls-1" x1="307.85" y1="119.34" x2="300.98" y2="124.68"/><line id="svg_291" data-name="svg 291" class="cls-1" x1="301.82" y1="123.92" x2="291.82" y2="124.76"/><line id="svg_292" data-name="svg 292" class="cls-1" x1="292.05" y1="124.22" x2="294.41" y2="130.03"/><line id="svg_295" data-name="svg 295" class="cls-1" x1="294.49" y1="129.03" x2="278.69" y2="141.93"/><line id="svg_296" data-name="svg 296" class="cls-1" x1="279.6" y1="141.17" x2="274.8" y2="143.76"/><line id="svg_297" data-name="svg 297" class="cls-1" x1="275.86" y1="143.84" x2="271.13" y2="143.61"/><line id="svg_298" data-name="svg 298" class="cls-1" x1="272.05" y1="143.84" x2="268.61" y2="142.16"/><line id="svg_299" data-name="svg 299" class="cls-1" x1="269.15" y1="143.38" x2="269.15" y2="139.41"/><line id="svg_300" data-name="svg 300" class="cls-1" x1="268.77" y1="140.02" x2="272.89" y2="134.99"/><line id="svg_301" data-name="svg 301" class="cls-1" x1="272.96" y1="135.67" x2="272.73" y2="131.32"/><line id="svg_302" data-name="svg 302" class="cls-1" x1="272.96" y1="131.63" x2="270.6" y2="129.03"/><line id="svg_303" data-name="svg 303" class="cls-1" x1="270.9" y1="129.34" x2="270.45" y2="124"/><line id="svg_304" data-name="svg 304" class="cls-1" x1="270.98" y1="124.53" x2="268.46" y2="122.85"/><line id="svg_305" data-name="svg 305" class="cls-1" x1="268.99" y1="122.62" x2="264.26" y2="128.73"/><line id="svg_306" data-name="svg 306" class="cls-1" x1="264.64" y1="129.49" x2="262.28" y2="127.81"/><line id="svg_307" data-name="svg 307" class="cls-1" x1="262.43" y1="128.42" x2="261.82" y2="126.13"/><line id="svg_308" data-name="svg 308" class="cls-1" x1="260.98" y1="126.67" x2="265.48" y2="121.25"/><line id="svg_309" data-name="svg 309" class="cls-1" x1="265.03" y1="122.24" x2="265.18" y2="118.27"/><line id="svg_310" data-name="svg 310" class="cls-1" x1="265.87" y1="118.5" x2="263.88" y2="116.82"/><line id="svg_311" data-name="svg 311" class="cls-1" x1="263.88" y1="117.13" x2="264.26" y2="113.77"/><line id="svg_312" data-name="svg 312" class="cls-1" x1="264.64" y1="114.84" x2="259.38" y2="113.54"/><line id="svg_313" data-name="svg 313" class="cls-1" x1="260.29" y1="114.07" x2="255.79" y2="111.17"/><line id="svg_314" data-name="svg 314" class="cls-1" x1="256.78" y1="111.25" x2="254.65" y2="111.55"/><line id="svg_315" data-name="svg 315" class="cls-1" x1="255.26" y1="111.25" x2="252.81" y2="112.85"/><line id="svg_316" data-name="svg 316" class="cls-1" x1="253.12" y1="112.16" x2="253.12" y2="114.99"/><line id="svg_317" data-name="svg 317" class="cls-1" x1="253.58" y1="114.45" x2="251.9" y2="116.06"/><line id="svg_318" data-name="svg 318" class="cls-1" x1="252.05" y1="115.37" x2="251.82" y2="120.03"/><line id="svg_319" data-name="svg 319" class="cls-1" x1="252.66" y1="120.41" x2="248.16" y2="119.57"/><line id="svg_320" data-name="svg 320" class="cls-1" x1="249.07" y1="119.03" x2="248.16" y2="121.63"/><line id="svg_321" data-name="svg 321" class="cls-1" x1="248.23" y1="121.1" x2="248.46" y2="124.68"/><line id="svg_322" data-name="svg 322" class="cls-1" x1="248.62" y1="124.3" x2="247.24" y2="126.97"/><line id="svg_323" data-name="svg 323" class="cls-1" x1="247.17" y1="126.44" x2="247.39" y2="131.02"/><line id="svg_324" data-name="svg 324" class="cls-1" x1="247.17" y1="130.1" x2="249.99" y2="135.22"/><line id="svg_325" data-name="svg 325" class="cls-1" x1="249.99" y1="134.68" x2="249.61" y2="141.78"/><line id="svg_326" data-name="svg 326" class="cls-1" x1="249.99" y1="140.79" x2="248.77" y2="143.54"/><line id="svg_327" data-name="svg 327" class="cls-1" x1="248.84" y1="142.92" x2="248.39" y2="146.05"/><line id="svg_328" data-name="svg 328" class="cls-1" x1="248.46" y1="145.37" x2="246.86" y2="146.97"/><line id="svg_329" data-name="svg 329" class="cls-1" x1="247.93" y1="146.36" x2="243.43" y2="146.36"/><line id="svg_330" data-name="svg 330" class="cls-1" x1="244.19" y1="146.97" x2="239.99" y2="139.64"/><line id="svg_331" data-name="svg 331" class="cls-1" x1="240.14" y1="140.86" x2="239.61" y2="128.35"/><line id="svg_332" data-name="svg 332" class="cls-1" x1="239.53" y1="129.26" x2="240.98" y2="125.9"/><line id="svg_333" data-name="svg 333" class="cls-1" x1="240.91" y1="126.82" x2="242.2" y2="118.58"/><line id="svg_334" data-name="svg 334" class="cls-1" x1="242.28" y1="118.42" x2="237.32" y2="124.61"/><line id="svg_335" data-name="svg 335" class="cls-1" x1="237.78" y1="124.45" x2="237.24" y2="120.26"/><line id="svg_337" data-name="svg 337" class="cls-1" x1="237.01" y1="120.79" x2="242.74" y2="112.47"/><line id="svg_338" data-name="svg 338" class="cls-1" x1="242.36" y1="112.78" x2="245.33" y2="111.71"/><line id="svg_340" data-name="svg 340" class="cls-1" x1="244.88" y1="112.32" x2="245.72" y2="109.95"/><line id="svg_341" data-name="svg 341" class="cls-1" x1="244.88" y1="110.1" x2="248.39" y2="110.33"/><line id="svg_342" data-name="svg 342" class="cls-1" x1="248.01" y1="110.18" x2="251.29" y2="108.58"/><line id="svg_343" data-name="svg 343" class="cls-1" x1="250.37" y1="107.97" x2="253.2" y2="109.11"/><line id="svg_344" data-name="svg 344" class="cls-1" x1="252.74" y1="109.19" x2="257.77" y2="108.12"/><line id="svg_345" data-name="svg 345" class="cls-1" x1="257.32" y1="108.5" x2="258.92" y2="106.52"/><line id="svg_346" data-name="svg 346" class="cls-1" x1="258.39" y1="106.75" x2="257.39" y2="103.23"/><line id="svg_347" data-name="svg 347" class="cls-1" x1="258.31" y1="103.77" x2="252.05" y2="105.07"/><line id="svg_348" data-name="svg 348" class="cls-1" x1="253.2" y1="105.22" x2="252.13" y2="102.17"/><line id="svg_349" data-name="svg 349" class="cls-1" x1="252.97" y1="102.85" x2="246.25" y2="105.14"/><line id="svg_350" data-name="svg 350" class="cls-1" x1="246.94" y1="104.76" x2="245.41" y2="106.67"/><line id="svg_351" data-name="svg 351" class="cls-1" x1="245.94" y1="106.36" x2="240.6" y2="106.44"/><line id="svg_352" data-name="svg 352" class="cls-1" x1="241.67" y1="106.67" x2="236.94" y2="104.15"/><line id="svg_353" data-name="svg 353" class="cls-1" x1="237.7" y1="104.07" x2="233.04" y2="105.3"/><line id="svg_354" data-name="svg 354" class="cls-1" x1="234.27" y1="105.45" x2="233.66" y2="102.55"/><line id="svg_355" data-name="svg 355" class="cls-1" x1="233.27" y1="103.54" x2="235.72" y2="100.64"/><line id="svg_356" data-name="svg 356" class="cls-1" x1="236.56" y1="100.94" x2="233.81" y2="99.19"/><line id="svg_357" data-name="svg 357" class="cls-1" x1="234.72" y1="98.96" x2="229.23" y2="103.92"/><line id="svg_358" data-name="svg 358" class="cls-1" x1="229.46" y1="103.85" x2="228.47" y2="105.14"/><line id="svg_359" data-name="svg 359" class="cls-1" x1="229" y1="104.91" x2="222.89" y2="106.82"/><line id="svg_360" data-name="svg 360" class="cls-1" x1="223.58" y1="106.67" x2="216.63" y2="105.98"/><line id="svg_361" data-name="svg 361" class="cls-1" x1="217.02" y1="105.52" x2="211.83" y2="108.27"/><line id="svg_362" data-name="svg 362" class="cls-1" x1="211.14" y1="108.35" x2="220.6" y2="98.43"/><line id="svg_364" data-name="svg 364" class="cls-1" x1="220.3" y1="98.65" x2="227.17" y2="95.68"/><line id="svg_365" data-name="svg 365" class="cls-1" x1="227.47" y1="95.75" x2="221.29" y2="95.68"/><line id="svg_366" data-name="svg 366" class="cls-1" x1="221.98" y1="95.75" x2="220.07" y2="94"/><line id="svg_367" data-name="svg 367" class="cls-1" x1="220.99" y1="94" x2="218.08" y2="93.92"/><line id="svg_368" data-name="svg 368" class="cls-1" x1="218.92" y1="93.69" x2="216.79" y2="95.6"/><line id="svg_369" data-name="svg 369" class="cls-1" x1="217.32" y1="95.45" x2="213.66" y2="95.22"/><line id="svg_370" data-name="svg 370" class="cls-1" x1="214.19" y1="95.53" x2="212.06" y2="93.46"/><line id="svg_371" data-name="svg 371" class="cls-1" x1="212.97" y1="93.54" x2="210.22" y2="94.99"/><line id="svg_372" data-name="svg 372" class="cls-1" x1="211.14" y1="95.07" x2="209.38" y2="92.17"/><line id="svg_373" data-name="svg 373" class="cls-1" x1="210.07" y1="92.4" x2="205.03" y2="91.71"/><line id="svg_375" data-name="svg 375" class="cls-1" x1="205.87" y1="91.48" x2="203.96" y2="93.01"/><line id="svg_376" data-name="svg 376" class="cls-1" x1="204.42" y1="93.08" x2="204.42" y2="93.01"/><line id="svg_378" data-name="svg 378" class="cls-1" x1="205.14" y1="92.85" x2="201.63" y2="92.31"/><line id="svg_379" data-name="svg 379" class="cls-1" x1="202.21" y1="92.47" x2="196.79" y2="88.58"/><line id="svg_382" data-name="svg 382" class="cls-1" x1="197.43" y1="88.77" x2="146.03" y2="86.99"/><line id="svg_383" data-name="svg 383" class="cls-1" x1="146.37" y1="87.32" x2="114.28" y2="82.44"/><line id="svg_384" data-name="svg 384" class="cls-1" x1="115.51" y1="82.66" x2="81.65" y2="75.22"/><line id="svg_386" data-name="svg 386" class="cls-1" x1="82.53" y1="75.44" x2="56.56" y2="68.12"/><line id="svg_387" data-name="svg 387" class="cls-1" x1="57.89" y1="68.56" x2="46.12" y2="63.9"/><line id="svg_388" data-name="svg 388" class="cls-1" x1="46.79" y1="64.01" x2="47.68" y2="69.12"/><line id="svg_389" data-name="svg 389" class="cls-1" x1="48.23" y1="68.45" x2="46.12" y2="71.45"/><line id="svg_390" data-name="svg 390" class="cls-1" x1="46.34" y1="70.56" x2="47.01" y2="75.78"/><line id="svg_391" data-name="svg 391" class="cls-1" x1="47.12" y1="75.22" x2="45.01" y2="77.33"/><line id="svg_392" data-name="svg 392" class="cls-1" x1="45.12" y1="76.78" x2="43.79" y2="81.11"/><line id="svg_393" data-name="svg 393" class="cls-1" x1="44.57" y1="82.22" x2="40.57" y2="81.22"/><line id="svg_394" data-name="svg 394" class="cls-1" x1="41.24" y1="81.77" x2="42.35" y2="77.33"/><line id="svg_395" data-name="svg 395" class="cls-1" x1="42.01" y1="77.78" x2="44.35" y2="74.45"/><line id="svg_396" data-name="svg 396" class="cls-1" x1="44.46" y1="75.33" x2="42.68" y2="73"/><line id="svg_397" data-name="svg 397" class="cls-1" x1="43.35" y1="73.67" x2="36.35" y2="66.9"/><line id="svg_398" data-name="svg 398" class="cls-1" x1="37.35" y1="66.9" x2="35.02" y2="68.23"/><line id="svg_399" data-name="svg 399" class="cls-1" x1="35.35" y1="67.9" x2="34.46" y2="78.11"/><line id="svg_400" data-name="svg 400" class="cls-1" x1="34.46" y1="77.78" x2="35.02" y2="82.55"/><line id="svg_401" data-name="svg 401" class="cls-1" x1="35.13" y1="81.99" x2="33.13" y2="85.88"/><line id="svg_402" data-name="svg 402" class="cls-1" x1="32.36" y1="85.99" x2="33.91" y2="85.99"/><line id="svg_403" data-name="svg 403" class="cls-1" x1="33.91" y1="86.1" x2="32.47" y2="92.32"/><line id="svg_404" data-name="svg 404" class="cls-1" x1="32.47" y1="91.99" x2="26.03" y2="103.86"/><line id="svg_405" data-name="svg 405" class="cls-1" x1="26.47" y1="103.09" x2="20.59" y2="112.19"/><line id="svg_406" data-name="svg 406" class="cls-1" x1="20.59" y1="111.75" x2="20.26" y2="117.41"/><g id="bUZ07R.tif"><path class="cls-3" d="M395.5,356c-2.33-.34-4.15.71-6,2-3.92,2.63-8,3.16-12,0-3.67-2.87-7.22-2.71-11,0s-8,3.18-12,0-7.77-2.56-11.48,0c-4,2.77-7.6,2.77-11.55,0s-7.94-2.82-12,.39c-3.22,2.52-7,2.38-10.42,0-4.28-3-8.2-3.45-12.58,0a8.28,8.28,0,0,1-10.41,0c-4.47-3.22-8.61-3.24-13.06,0a8.12,8.12,0,0,1-10,0c-4.4-3-8.53-3.39-13.07,0-3.54,2.61-7.38,2.32-11-.43-3.36-2.58-7-2.94-10.46-.47-4.62,3.3-9,3.35-13.56,0A6.75,6.75,0,0,0,209.5,356"/><path class="cls-3" d="M225.5,280.5c.5-4.33,1-8.67,1.51-13,1.32-10.24,8.36-16.26,19-16.52,12.68-.3,24.28,3.76,36.06,7.83,10.53,3.64,18.15,9.59,23.07,19.62,2.11,4.3,7.45,5.24,11.41,7.49C330.16,293.66,345,299,358.49,307a47.09,47.09,0,0,1,4.5,3c9.1,6.92,11.62,15.3,8,26.49"/><path class="cls-3" d="M341.5,292.5q-5-17.5-10-35c-.77-2.71-2.66-4.18-5-5.54-7.77-4.52-16-6.85-25-6-3,.28-5.26.93-6.55,4-1.59,3.77-3.61,7.36-5.44,11"/><path class="cls-3" d="M287.5,284.5A125.49,125.49,0,0,0,260,273.84c-10.77-2.63-20.82-2.42-30.56,3.13a8.45,8.45,0,0,1-2.48.53"/><path class="cls-3" d="M386.5,354.5c1-3.12.23-6.34.5-9.5.19-2.21-1.34-2.46-3-3q-40.29-14.4-80.5-29c-6.42-2.35-11.86-6.53-17-11a61.66,61.66,0,0,0-37-15.27,113.56,113.56,0,0,0-34,2.34c-8.11,1.83-11.76,7.68-5.48,15.93,5.41,7.11,11.82,13.39,16.08,21.47a51.32,51.32,0,0,1,6.39,25.06"/><path class="cls-3" d="M287,276c-13.48-7.69-27.61-12.79-43.51-12.12-5.72.24-10.28,3.3-15.49,4.62"/><path class="cls-3" d="M331,273c-10.24-7.62-21.89-11.2-34.5-12"/><path class="cls-3" d="M328,261c-8.43-6.4-18.11-8.82-28.5-9"/><path class="cls-3" d="M337,310c-.93-1.74-1.73-3.6-4-4.13-2.35.48-3,2.5-4.15,4.07,1,1.66,1.78,3.31,3.31,4,3,.45,3.33-2.25,4.8-3.45"/><path class="cls-3" d="M318.5,300c-3.41,4-3.41,4,1.1,8.1,2.33-.61,3.74-1.74,3.45-4.6-.27-2.67-1.56-3.66-4.06-3.49"/><path class="cls-3" d="M345.5,312c-2.13.78-2.58,2.38-2.56,4.5A3.45,3.45,0,0,0,345.5,320c1.38.54,3.16-.36,3.33-1,.36-1.4,2.38-2.66.7-4.49-1-1.11-1.53-2.81-3.53-2.47"/><path class="cls-3" d="M359,318c-1.56.69-2.78,1.59-3,3.5s.34,3.73,2.07,4.39c1.13.43,3,.79,3.94-.89s1.91-3.27.47-5a13.6,13.6,0,0,0-3-2"/></g><path class="cls-4" d="M272.78,196.06c.08.08.13.07.13.07,6.19-.24,9.74,2.11,10,3.08l2.47,0,.77-1.67a.53.53,0,0,0,0-.4c-.74-.83-7-2.61-14.49-2.61-8,0-13.11,1.58-14.18,2.38a.55.55,0,0,0-.26.39,1.5,1.5,0,0,0,.15.41l.22.47c.07.14.16.13.33,0,0,0,.15,0,.17-.14a.46.46,0,0,0-.06-.26c-.16-.33.05-.37.06-.37l.46-.21c.22-.06.24.05.32.23,0,0,.08.24.14.28s.48-.14,1.57-.4a1.1,1.1,0,0,0,.26-.08c.11,0,0-.41,0-.41,0-.18-.12-.37.27-.43l.68-.14c.32-.08.35.08.39.26a1.17,1.17,0,0,0,.09.39c.09.15.25-.09,2.34-.31,0,0,.3,0,.36-.11a.69.69,0,0,0,0-.36c0-.25-.13-.44.36-.47l.91-.08c.68-.11.57.12.59.37a.92.92,0,0,0,.07.32c.05,0,.27,0,.27,0,1.17-.12,1.82-.11,3.07-.17,0,0,.17,0,.24-.07a.18.18,0,0,0,0-.15c0-.14,0-.36.06-.46s.26-.06.43-.06h1c.16,0,.49-.07.58,0a1.64,1.64,0,0,1,0,.52A.19.19,0,0,0,272.78,196.06Z"/><path class="cls-4" d="M271.73,186c-6.05,0-9.77,1.94-12.16,4.28a.29.29,0,0,0-.06.1c0,.12-.06.3.19.21,5.18-2.18,10.85-.81,12.65,1.24.06.09,0,.12-.07.12a40.24,40.24,0,0,0-6.72.38,44.65,44.65,0,0,0-4.81.88,16.51,16.51,0,0,0-4.74,1.91.82.82,0,0,0-.43.46c-.1.29-.08.29-.15.49a7.3,7.3,0,0,0-.19.75c0,.23.21.15.34,0a7.73,7.73,0,0,1,2.11-1.44,22.29,22.29,0,0,1,5-1.48,51.83,51.83,0,0,1,8.87-.81,47.2,47.2,0,0,1,9.1.85,25.44,25.44,0,0,1,6,1.87,6,6,0,0,1,1.4.95c.33.34.35,0,.35,0a5.19,5.19,0,0,0-.62-1.48,17.51,17.51,0,0,0-16-9.25"/><path class="cls-4" d="M254.15,226.47c0,1.41,5.84,4.29,17.93,4.29,11.73,0,17.93-2.88,17.93-4.29l-.06-2.16s0-.14,0-.09c0-.39-.64-.47-2.54-.49l0-1.2c0,.12-.4.38-.65.53-1.54.89-7.45,2.22-14.83,2.22-8.55,0-14.54-1.77-15.48-2.75l0,1.84c2.81,2,11.48,3.81,20.23,2.88a1.48,1.48,0,0,1,.61,0c.07,0,.31.23-.16.41-5.07,1.68-17.61,1.3-22.91-2.73l0,1.51"/><path class="cls-4" d="M279.15,198.63h0Z"/><path class="cls-4" d="M279,199.08v-.36h0Z"/><path class="cls-4" d="M275.82,198.49h0Z"/><path class="cls-4" d="M279.23,197.76h-3.31c-.16,0-.23.08-.24.24v.37c0,.17.07.25.25.25h1c.09,0,.12,0,.12.05s-.15.19-.21.23l-.5.33a.34.34,0,0,0-.13.32l0,23.69c0,.42.71.45,1.43.45s1.32,0,1.4-.44c0,0,0-22.54,0-24.49,0-.09,0-.11.06-.12a.52.52,0,0,1,.13,0,.21.21,0,0,0,.23-.23V198A.22.22,0,0,0,279.23,197.76Z"/><path class="cls-4" d="M273.8,214.24l.08-.16h.22v-.15h-4.59v.15h.24l.07.14.28.58a.37.37,0,0,0,.11.08.83.83,0,0,0,.22,0c1.21,0,.94,0,1.13,0s.21,0,.27.08.07.19-.09.3l-1.36.89a.44.44,0,0,0-.17.17.41.41,0,0,0,0,.17V221l-.39.15s-.12.89,0,1a31.67,31.67,0,0,0,4,0c.13-.08,0-1,0-1l-.39-.13v-6Z"/><path class="cls-4" d="M285.64,199.05h-3.31c-.16,0-.24.08-.24.24v.37c0,.18.07.25.25.25h1c.09,0,.12,0,.12.05s-.15.19-.21.23l-.5.33a.33.33,0,0,0-.13.32l0,21.35c0,.42.71.45,1.43.45s1.32,0,1.4-.44c0,0,0-20.21,0-22.16,0-.09,0-.11.05-.12a.52.52,0,0,1,.13,0,.21.21,0,0,0,.23-.23v-.4A.22.22,0,0,0,285.64,199.05Z"/><path class="cls-4" d="M267.58,197.76h-3.3c-.16,0-.23.08-.24.24v.37c0,.17.07.25.25.25h1c.09,0,.12,0,.12.05s-.15.19-.21.23l-.5.33a.34.34,0,0,0-.14.32l0,23.69c0,.41.71.45,1.43.45s1.32,0,1.4-.44c0,0,0-22.54,0-24.49,0-.09,0-.11.06-.12a.52.52,0,0,1,.13,0,.21.21,0,0,0,.23-.23V198A.22.22,0,0,0,267.58,197.76Z"/><path class="cls-4" d="M261.15,199.12h-3.31c-.16,0-.23.08-.24.24v.37c0,.17.07.25.25.25h1c.09,0,.12,0,.12.05s-.15.19-.21.23l-.5.33a.33.33,0,0,0-.13.32l0,21.36c0,.41.71.45,1.43.45s1.32,0,1.4-.44c0,0,0-20.21,0-22.16,0-.09,0-.11.05-.12a.49.49,0,0,1,.13,0,.21.21,0,0,0,.24-.23v-.4A.22.22,0,0,0,261.15,199.12Z"/></svg>