<svg id="图层_1" data-name="图层 1" xmlns="http://www.w3.org/2000/svg" viewBox="0 0 391 312"><defs><style>.cls-1{fill:none;stroke:#67574b;stroke-linecap:round;stroke-linejoin:round;}</style></defs><title>timeline</title><path id="path2828" class="cls-1" d="M12.33,107.85,73,125.37l4.21-.59,18.21-11.36,16.28-8.57L131,99.56l9.44-2.64,9.21-4.28c1.73-.19,4.31-1,6-1.21,5.27-.56,10.76-.66,16-1.15,7-.64,19.45,0,26.45-.5l7.62-1.85,6.21.86,4.22,3.4,4.78,5,2.57,4.28,8.14,7.71,31.17-7c12.53-1.9,23.12-3.94,33.88-6.14,15.66-3.2,41.77-7.28,57.38-10"/><path id="path2832" class="cls-1" d="M11,209.4,34.18,215l20.14,6.86,9,4.71.43,6.43,3.86,8.14L77,247.53l8.57,3,6.86-6.43,2.14,12,5.57,9.43,8.57,8.14,14.57-3,7.28,9.43,10.28,5.57L152.44,281l11.14,5.14,14.57-6,6.86-6.86,17.57-5.14,3-5.14,21-6,3.43-6.86,13.28-3.43,7.71-6.86,2.14-5.14,9.86-3.43,11.14-14.14.86-15.43,7.28-3.86q3.07-3.35,6.23-6.63,2.35-2.44,4.74-4.84L306.79,184q11.17-1.4,22.37-2.49,15.35-1.49,30.74-2.38"/><path id="path2836" class="cls-1" d="M232.14,108.7l-18,3.86-14.57-2.14q-8-2-15.85-4.28t-15.85-4.71l-13.71.86L143.87,113q-7.59,10.38-15.43,20.57-6.14,8-12.43,15.85v14.14L114.31,176l-6.43,22.28,1.71,7.71,15.85,2.14L138.73,197l13.71-23.14v-9.43l8.14-4.71,8.14-6.86,5.14.43,19.71,12.43q10.63,4,21,8.57,8.23,3.66,16.28,7.71L245,192.26l21.85,10.28h7.71"/><path id="path2840" class="cls-1" d="M210.72,213.68l15.43,11.57,20.14,8.14,7.28,1.29"/><path id="path2844" class="cls-1" d="M199.15,240.68l10.28,3,11.14,6,9,.43"/><path id="path2848" class="cls-1" d="M188.87,258.68l9.86,5.14,6,.43"/><path id="path2852" class="cls-1" d="M63.46,227.25q5.69,2.71,11.36,5.45,9.12,4.42,18.18,8.94l9.7,2.42,4.54-6.51,9.09-3.48,12,2,8.64,5.3,2.88,7.12L135,256.34l7.12-5.45,7-2.12,7,.76,12,7.73.76,4.54,5.15-2.88,6.21,1.06,4.39,5.91-1.06,8.79"/><path id="path2856" class="cls-1" d="M112.54,246.95l10,.91L132.69,250l1.51,1.21-9.7,9.7-4.7,1.51-4.7-2.27-2-3.33-.61-9.85"/><path id="path2860" class="cls-1" d="M142.69,265l5.15-4.85,7,5.76,8.79,3.33-11.51,5.3-7.42-2.27L141.17,270l1.51-5"/><path id="path2864" class="cls-1" d="M124.06,270.73l11.06-14.39"/><path id="path2868" class="cls-1" d="M177.23,277.24,168,278.46l-4.54-3.64.3-1.06,5-5.45,3.48,5,5,3.94"/><path id="path2872" class="cls-1" d="M152.69,280.88l6.67-5.61,4.85-3.33,4.09-4.39.45-5.76-.15.15"/><path id="path2876" class="cls-1" d="M123.41,195.26l3.75-10.5L125.23,178l-3.86-1.61-4.71-.64L114,180.9l-5.57,18.53,3.64.75,3.43-.86,3.64-1.18,4.28-2.89"/><path id="path2880" class="cls-1" d="M172.69,152.52l-.64-3.75q-2-3-4-5.89-1.48-2.15-3-4.28l.43-6.43.21.11"/><path id="path2884" class="cls-1" d="M152.23,164.51l-2.14-3-6.21-2.89"/><path id="path2892" class="cls-1" d="M236.21,183.69l8-3.64,6.81-5.16L255.8,168l1.69-8.41-.38-6.07-1.67-6.57-3.43-7.3L248.28,134l-4.3-5.08-3.56-3.53-6.78-5.36"/></svg>