<?xml version="1.0" encoding="utf-8"?>
<!-- Generator: Adobe Illustrator 21.1.0, SVG Export Plug-In . SVG Version: 6.00 Build 0)  -->
<svg version="1.1" id="图层_1" xmlns="http://www.w3.org/2000/svg" xmlns:xlink="http://www.w3.org/1999/xlink" x="0px" y="0px"
	 viewBox="0 0 281 378" style="enable-background:new 0 0 281 378;" xml:space="preserve">
<style type="text/css">
	.st0{fill:none;stroke:#67574B;stroke-linecap:round;stroke-linejoin:round;}
	.st1{fill:#FFFFFF;stroke:#67574B;stroke-linecap:round;stroke-linejoin:round;}
	.st2{fill:#FFFFFF;stroke:#67574B;stroke-miterlimit:10;}
</style>
<title>timeline</title>
<g>
	<path class="st0" d="M180,261.7c0,0-2,8,2,9.3s4.7-5.3,2.7-11.3S180,261.7,180,261.7z"/>
	<path class="st1" d="M53.4,319.6c7.7,9.8,21.7,13.1,33.6,17.1c6,1.3,12.7,0.7,18.7,2.7c30.6,0.7,58.6-8,89.2-15.3
		c1.3,0,2.7,0,3.3,0.7s0.7,2,1.3,3.3c3.3,4.7,9.3,4.7,14,1.3c0.7-0.7,2-2,2-3.3c-4-9.3-17.3-7.3-26-6.7c-2,0-3.3,0.7-5.3,1.3
		c-1-0.1-2,0-3,0.3"/>
	<path class="st1" d="M151,215.9c1.9-2.3,4.8-2.9,7.3-4.2c3.4-1.7,6.9-3.3,10.3-5c0.9-0.5,1.9-0.7,2.9-0.6c0.7,1.5,0.4,2.9,0.5,4.3
		c0.1,2.2,1.7,3.4,3.6,2.6c3.3-1.3,5.9-4,7-7.3c0.9-2.6-0.3-4.8-2.9-6.3c-5.4-3-10.5-1.6-15.7,0.6c-9.2,4.1-18.2,8.7-27.6,12.4
		c-8.7,3.4-18.1,4.7-27.3,3.8c-3.8-0.4-7.6-1.8-11.3-2.9c-1-0.3-2-0.4-3-0.3"/>
	<path class="st1" d="M103.1,231.8c-2.8-5.2-6.1-10.2-8.2-15.7c-6.1-15.3-11.1-31.1-17.6-46.2c-5-11.5-13.7-20-26.1-23.7
		c-5.6-1.7-11.1-1.5-16.3,1.6c-3,1.8-3.8,5-5.2,7.8c-0.8,1.5,0.8,3.2,2.2,4.3c3.6,2.7,7.4,5.1,11.3,7.3c4.8,2.7,8.3,7.3,9.7,12.7
		c3.5,12.8,8.6,25,12.7,37.6c0.8,2.6,2,5.1,3,7.7c0.6,1.2,0.5,2.6-0.2,3.7c-0.7,1.1-0.2,2.2-0.1,3.3c0.1,1,0.6,1.9,1.3,2.6
		c6,4.8,7,12.3,9.9,18.7c3.5,7.5,8.1,13.7,16.7,16c4.6,1.3,9.3,1.8,14,1.7c1.4-0.1,2.9-0.4,4,1"/>
	<path class="st1" d="M171.7,323.3c-7.7,1.7-15.3,3.7-23,4.9c-5.4,0.8-10.8,1.7-16.3,2.3c-4.7,0.5-9.4,0.6-14,1
		c-5,0.4-10.2-0.4-15.3-1c-3-0.4-6-0.8-9-1.1"/>
	<path class="st1" d="M172,318.7c-4,0-7.8,1.4-11.6,2c-4.9,0.8-9.7,1.8-14.6,2.4c-5.9,0.7-11.7,1.2-17.6,1.4
		c-5.7,0.1-11.4-0.1-17-0.7c-4.5-0.4-8.9-1.3-13.3-2c-1-0.2-1.4-1-2.3-1.1"/>
	<path class="st1" d="M68.4,163.5c0.8,4.6,3.3,8.5,5,12.6c6,14.3,12,28.6,17.9,43c1.6,4,3.5,7.8,4.8,12c0.5,1.8,2.7,3.2,4.2,2.6
		c3.8-1.7,8-1.9,11.8-3.8c8.7-4.3,17.8-7.9,26.6-12.2c3.2-1.6,6.8-2.2,10.4-1.9c5.7,0.4,8.1,5.3,5,10c-1.2,1.9-2.9,3.4-5,4.3
		c-2.2,0.9-3.5,0-3.7-2.3c-0.1-1.4,0.3-2.8-0.5-4.3c-4.3,1-7.8,3.9-11.9,5.6c-7.8,3.3-15,7.7-22.7,10.8c-6,2.4-12.4,3.9-18.9,4.2
		c-4.5,0.4-9.1-0.3-13.3-2c-0.7-0.3-1.4-0.9-2.3-0.3"/>
	<path class="st1" d="M63.4,165.8c-1,3.6,1.5,6.3,2.7,9.3c7.6,18.6,15.5,37.1,23.2,55.7c1.6,3.8,3.7,4.5,7,2.3"/>
	<path class="st1" d="M171,311.4c-2.8,1.7-6,1.7-9,2.2c-7.8,1.4-15.7,2.8-23.6,3.2c-7.2,0.4-14.4,0.7-21.7-0.4
		c-3.7-0.6-7.4-0.7-11-1.8"/>
	<path class="st1" d="M115.4,273c4.4-1.9,9.2-3.1,14-3.4c6.2-0.6,12.4-1.5,18.6-2.3c4.4-0.6,8.9-1.3,13.3-1.6
		c4.4-0.4,8.7-1.2,13-2.4c0.6-0.1,1.2-0.5,1.6-0.3c3.6,1.5,7.2,0,10.7,0.2c5.9,0.3,9.1-2.3,11.4-7.2c2.5-5.3,1.5-9.4-3.7-11.9
		c-5.3-2.6-11.2-3.4-17-2.6c-8.4,1-16.3,4.4-24.6,5.4c-3.7,0.5-7.3,1.3-11,1.8"/>
	<path class="st1" d="M180,316.7c6.3-2.3,12.9-3.4,19.3-5c3.5-0.8,7.1-1.4,10.9-2.1c0.9,3.6,2.5,6.9,6.8,7.3c4.8,0.6,8.6-1.2,11-5.7
		c-3.1-5.4-8.6-5.6-13.7-6.6c-5.6-1.1-11.1,0.2-16.6,1.2c-2.7,0.5-5.1,0.8-7.1,3.3c-1.6,2-4.1,1.6-6.6-0.2"/>
	<path class="st1" d="M106.4,278.4c-0.3,0.5-0.6,0.9-1,1.3c-3.7,2.8-4,3.5-2.7,7.7c0.6,1.8,2,1.9,3.7,1.1c3.1-1.5,3.7-3.2,2.9-6.8
		c-0.7-3.4,2.2-6,5.1-7.9c0.2-0.2,0.4-0.3,0.5-0.5c2.5,3.6,2.2,7.4,1.1,11.2c-0.1,0.7-0.6,1.2-1.3,1.4c-1.6,0.4-1.6,1.8-1.3,3
		c0.9,3.5-0.7,6.4-2.1,9.3c-0.8,1.8-2.3,3.3-3.2,5c-1.2,2.5-2.9,4.8-2.8,8c0.2,5.6-1,6.3-6.3,4"/>
	<path class="st1" d="M182.3,267.7c-2.6,3.6-4,7.3-1,11.3c0.6,0.8,0.2,1.6,0,2.3c-1.3,4.1-0.7,8.1,0.7,12c0.8,2.4,2,4.6,2.6,7
		c0.7,2.7,0,5.6-0.9,7.9c-0.8,2-4.1,1.6-6.4,2.1"/>
	<path class="st1" d="M166.3,208.4c1,6.9,1.8,13.8,3.1,20.6c0.8,4.2,0.6,8.6,2.3,12.7"/>
	<path class="st1" d="M162.3,210.4c0.6,4.9,1.2,9.8,1.6,14.6c0.6,6.1,1.1,12.2,1.7,18.3"/>
	<path class="st1" d="M102.6,302c0.5,2.7-0.8,4.7-1.5,7.3c-0.7,1.3-1.3,3.3-2,4.7c-3.3,4.5-5.4,9.8-6,15.3c0,0.7-1.3,3.3-4,1.3
		c-2-2.1-4.5-3.7-7.3-4.6c-8.7-2-16.7-5.3-25.3-7.3c-0.8,0.1-1.7,0-2.5-0.3"/>
	<path class="st1" d="M90.2,233.1c-4.7,1.4-6.2,1.1-8.1-3.7c-3.2-7.6-6.3-15.3-9.3-23c-1-2.5-3.4-3.8-4.4-6.3c-3-8-6.2-16-9.3-24
		c-0.7-1.9-2.6-3.3-1.9-5.6"/>
	<path class="st1" d="M170,282c-1.2,2.5-2.2,5.1-2,8c0,0.7-0.4,1.5,0.3,2c2.2,1.3,1.7,3.2,1,5c-1.2,2.9-0.5,5.7,0.4,8.3
		c1,2.8,1.5,5.7,2.8,8.4c0.6,1.2,1.3,3.1,0,5c-0.9,1.4-1,3.1-0.1,4.5c1.4,2,3.9,2.2,6.3,0.7s2.8-2.8,0.9-5.3
		c-2.4-3.2-2.9-6.9-3.3-10.7c-0.3-2.4,0-4.7-0.3-7c0-0.9-0.1-1.8-0.3-2.7c-0.8-2.5-2.3-4.5-1-7.7c1.2-2.8-1.6-5.8-2.9-8.6"/>
	<path class="st1" d="M68.8,202.1c-1.4,1.7-1.3,3.8-0.6,5.6c2.6,7.4,5.4,14.7,7.3,22.3c0.6,2.2,3.5,2.8,7,1.7"/>
	<path class="st1" d="M183,267.7c1.1,1.5,2.1,3,2.9,4.7c0.9,2.4,1.6,4.9-1,6.9c2.1,2.9,3.2,6.5,3.1,10.1c-0.1,1.8-0.1,3.5,0,5.3
		c0.5,3.5-0.3,7.6,3.9,9.8c0.1,0.1,1.4,1.1,1.1,2.2"/>
	<path class="st1" d="M92.2,312c-8-2.3-15.9-4.8-23.8-7.6c-0.8-0.3-2-0.9-3-0.1"/>
	<path class="st1" d="M31.8,152.8c2.8,5.2,7.6,8.2,12.4,10.9c3.7,2.1,7.4,3.9,10.3,7.1c0.6,0.7,1.4,1.1,2.3,1"/>
	<path class="st1" d="M65.2,305.2c5.9,7.5,15.9,10.8,24.5,14.5"/>
	<path class="st1" d="M110.4,240.4c4.7,6.2,11.5,7.9,18.7,8.6c2.2,0.4,4.5,0.3,6.6-0.3"/>
	<path class="st1" d="M135.4,228.8c2.9,7.6,4.4,15.6,6.6,23.3c1,3.3,1.6,6.6,2.4,10"/>
	<path class="st1" d="M132,230.1c2.3,9.5,4.7,19.1,7,28.6c0.3,1.2,0.4,2.4,0.7,3.7"/>
	<path class="st1" d="M102.7,288.7c-1.2,1.5-2.5,3.1-3.6,4.7c-0.4,0.6-1.2,1.1-1,2c1.2,6-4.5,9.8-5.2,15.3c-0.2,1.8-0.3,4-1.5,5.7
		c-1.5,2.3-0.7,5.9-4.6,6.8c-1.2,0.3-1.3,2.4-1.7,3.9"/>
	<path class="st1" d="M114.4,227.8l-14-2.3"/>
	<path class="st1" d="M105.7,289.4c-0.9,3.8-0.2,7.9-2.7,11.3c-0.4,0.6-0.7,1.3-1.7,1"/>
	<path class="st1" d="M164.7,266.4c0,0.9,0.8,1.2,1.3,1.7c2.9,2.8,3,3.5,1,7c-1.2,2.1-2.1,3.8,1.3,4.8c1.3,0.4,1.8,2.5,3.7,1.9
		c0.4-2,3-4.4,1.8-5.8c-1.5-1.8-2.1-4.8-5.1-5.2"/>
	<path class="st1" d="M103.1,271.4c0.4,2.5,3.2,3.6,3.5,6.3c0.1,0.6,1.7,1.1,2.9,1"/>
	<path class="st1" d="M172.3,264.7l-2.3,6"/>
	<path class="st1" d="M82.1,244.1c2.5,10.8,13,19.8,23.6,20.3c4.4,0.2,8.9,0.7,13.3,0.6c6.4,0,12.7-0.5,19-1.4
		c7.9-1.4,15.8-1.3,23.7-2.6c4.8-0.8,9.6-1,14.3-1.6c4.6-0.5,6.1,0.5,6.3,4.3"/>
	<path class="st2" d="M68.8,227.3c11.7,6.7,25.6,8.5,38.6,4.9l-2.3,4.6l-16,1.3l-14-3.3l-6.7-5.3L68.8,227.3z"/>
</g>
</svg>
