<?xml version="1.0" encoding="utf-8"?>
<!-- Generator: Adobe Illustrator 21.1.0, SVG Export Plug-In . SVG Version: 6.00 Build 0)  -->
<svg version="1.1" id="图层_1" xmlns="http://www.w3.org/2000/svg" xmlns:xlink="http://www.w3.org/1999/xlink" x="0px" y="0px"
	 viewBox="0 0 391 333" style="enable-background:new 0 0 391 333;" xml:space="preserve">
<style type="text/css">
	.st0{fill:none;stroke:#67574B;stroke-linecap:round;stroke-linejoin:round;}
</style>
<title>timeline</title>
<g>
	<path id="path2828" class="st0" d="M12.3,107.8L73,125.4l4.2-0.6l18.2-11.4l16.3-8.6l19.3-5.3l9.4-2.6l9.2-4.3c1.7-0.2,4.3-1,6-1.2
		c5.3-0.6,10.8-0.7,16-1.2c7-0.6,19.4,0,26.4-0.5l7.6-1.8l6.2,0.9l4.2,3.4l4.8,5l2.6,4.3l8.1,7.7l31.2-7c12.5-1.9,23.1-3.9,33.9-6.1
		c15.7-3.2,41.8-7.3,57.4-10"/>
	<path id="path2832" class="st0" d="M11,209.4l23.2,5.6l20.1,6.9l9,4.7l0.4,6.4l3.9,8.1l9.4,6.4l8.6,3l6.9-6.4l2.1,12l5.6,9.4
		l8.6,8.1l14.6-3l7.3,9.4l10.3,5.6l11.6-4.7l11.1,5.1l14.6-6l6.9-6.9l17.6-5.1l3-5.1l21-6l3.4-6.9l13.3-3.4l7.7-6.9l2.1-5.1l9.9-3.4
		l11.1-14.1l0.9-15.4l7.3-3.9c2-2.2,4.1-4.4,6.2-6.6c1.6-1.6,3.1-3.2,4.7-4.8l13.5-2.4c7.4-0.9,14.9-1.8,22.4-2.5
		c10.2-1,20.5-1.8,30.7-2.4"/>
	<path id="path2836" class="st0" d="M232.1,108.7l-18,3.9l-14.6-2.1c-5.3-1.3-10.6-2.8-15.9-4.3c-5.2-1.5-10.5-3.1-15.9-4.7
		l-13.7,0.9L143.9,113c-5.1,6.9-10.2,13.8-15.4,20.6c-4.1,5.3-8.2,10.6-12.4,15.9v14.1l-1.7,12.4l-6.4,22.3l1.7,7.7l15.8,2.1
		l13.3-11.1l13.7-23.1v-9.4l8.1-4.7l8.1-6.9l5.1,0.4l19.7,12.4c7.1,2.7,14.1,5.5,21,8.6c5.5,2.4,10.9,5,16.3,7.7l14.1,10.3
		l21.9,10.3h7.7"/>
	<path id="path2840" class="st0" d="M210.7,213.7l15.4,11.6l20.1,8.1l7.3,1.3"/>
	<path id="path2844" class="st0" d="M199.1,240.7l10.3,3l11.1,6l9,0.4"/>
	<path id="path2848" class="st0" d="M188.9,258.7l9.9,5.1l6,0.4"/>
	<path id="path2852" class="st0" d="M63.5,227.2c3.8,1.8,7.6,3.6,11.4,5.4c6.1,2.9,12.1,5.9,18.2,8.9l9.7,2.4l4.5-6.5l9.1-3.5l12,2
		l8.6,5.3l2.9,7.1l-4.9,7.8l7.1-5.4l7-2.1l7,0.8l12,7.7l0.8,4.5l5.1-2.9l6.2,1.1l4.4,5.9l-1.1,8.8"/>
	<path id="path2856" class="st0" d="M112.5,246.9l10,0.9l10.2,2.1l1.5,1.2l-9.7,9.7l-4.7,1.5l-4.7-2.3l-2-3.3L112.5,246.9"/>
	<path id="path2860" class="st0" d="M142.7,265l5.1-4.9l7,5.8l8.8,3.3l-11.5,5.3l-7.4-2.3l-3.5-2.3L142.7,265"/>
	<path id="path2864" class="st0" d="M124.1,270.7l11.1-14.4"/>
	<path id="path2868" class="st0" d="M177.2,277.2l-9.2,1.2l-4.5-3.6l0.3-1.1l5-5.5l3.5,5L177.2,277.2"/>
	<path id="path2872" class="st0" d="M152.7,280.9l6.7-5.6l4.9-3.3l4.1-4.4l0.4-5.8l-0.1,0.1"/>
	<path id="path2876" class="st0" d="M123.4,195.3l3.8-10.5l-1.9-6.8l-3.9-1.6l-4.7-0.6l-2.7,5.1l-5.6,18.5l3.6,0.8l3.4-0.9l3.6-1.2
		L123.4,195.3"/>
	<path id="path2880" class="st0" d="M172.7,152.5l-0.6-3.8c-1.3-2-2.7-4-4-5.9c-1-1.4-2-2.9-3-4.3l0.4-6.4l0.2,0.1"/>
	<path id="path2884" class="st0" d="M152.2,164.5l-2.1-3l-6.2-2.9"/>
	<path id="path2892" class="st0" d="M236.2,183.7l8-3.6l6.8-5.2l4.8-6.9l1.7-8.4l-0.4-6.1l-1.7-6.6l-3.4-7.3l-3.7-5.6l-4.3-5.1
		l-3.6-3.5l-6.8-5.4"/>
</g>
</svg>
