<?xml version="1.0" encoding="utf-8"?>
<!-- Generator: Adobe Illustrator 21.1.0, SVG Export Plug-In . SVG Version: 6.00 Build 0)  -->
<svg version="1.1" id="图层_1" xmlns="http://www.w3.org/2000/svg" xmlns:xlink="http://www.w3.org/1999/xlink" x="0px" y="0px"
	 viewBox="0 0 365 375" style="enable-background:new 0 0 365 375;" xml:space="preserve">
<style type="text/css">
	.st0{fill:#5E4C41;}
	.st1{fill:#AA8E7F;}
	.st2{fill:#FCFDFD;}
</style>
<title>timeline</title>
<g>
	<path class="st0" d="M311.1,75.8l0.7,4.2c-1.1,0.3-1.3,0.8-0.2,1.5l-0.6,4.2c-1.1,0.3-1.6-0.4-2.2-1.2c-1.9-2.7-3.5-5.7-6.1-7.8
		c-2.8-2.2-3.5-6.7-7.8-7.3l-0.3-0.2l0.3,0.2c0,0.8,0.3,1.6,0.9,2.2c1.5,1.9,3.3,3.8,4,6.1c2.5,7.5,6.8,14,11,20.6
		c0.1,3.6,1.7,7.5-1.5,10.6c-2.1-1.9-4.5-1.8-7-0.7c-1.5,0.7-3,1.7-4.6,1.9c-1.9,0.3-2.3,1.3-3,2.9c-1.6,3.6-2.3,7.4-4,10.9
		c-0.3,0.7-0.7,2-1.9,1.7c-0.9-0.2-0.9-1.3-1-2.1c-0.7-4.6-1.1-9.3-1.1-14c0.2-2.1-1.1-4-3.2-4.6c-4.1-0.8-8.5-0.6-11.2,3.1
		c-1.3,1.8-2.5,1-3.5,0.7c-1.4-0.3-1-1.6-0.7-2.7c0.5-1.9,1.1-3.8,0.4-5.9c-0.3-0.8,0.1-1.7,0.9-1.9c0.4-0.2,0.9-0.1,1.3,0.1
		c5.6,2.4,11.9,2.9,17.6,5.1c0.7,0.3,1.8,0.7,2.5-0.3c-2.5-3.3-7.3-4.2-8.8-8.5c-0.4-1.1-1.6-1-2.5-0.8c-1.6,0.3-3.3,0.3-4.7,1.3
		c-2.9-0.5-5.7,0-8.5,0.3c-1.5-2.7-6.3-2.8-10.3,0c2.6-0.6,5.2-1,6.2,1.4c0.4,1,0.2,2.1,1.3,1c3-2.8,3.2-0.1,3.5,1.7
		c0.2,1.7,0.3,3.3,0.1,5c-0.2,3.4-1.5,6.7-4.8,7.6s-6.2,2.9-9.8,2.8c0.6,0.4,1.3,0.7,2,0.9c0.8,0.2,2.2-1,2.2,0.7s-1.6,1.1-2.6,1.1
		c-3.8-0.1-7.5-1.6-10.4-4.1c-0.3-0.3-0.6-0.6-0.8-1c2.7-2.8-0.8-3.3-1.8-3.9c-2.1-1.2-3.6-3.2-4-5.5c-0.2-1.3-0.5-3.2-2.6-3.3
		c-1.8-0.2-3.6,0.8-4.4,2.4c-0.6,1.1-1.2,2.3-1.7,3.6c-2.2,5.7-5,10.8-11.3,12.9c-1.6,0.5-2.9,1.2-4.8-0.3c-2.3-1.8-6.2-1.6-6.5-5.8
		c0-0.1-0.2-0.2-0.3-0.2c-3,1.1-3-1.5-3.8-3.1c-0.4-0.8-1.4-0.8-2.2-0.9c-0.6-1.8,0.2-3.8-1.5-5.7c-1-1,2.1-1.6,2-3.2l2.6,2.3
		c2.1-2.7,0.6-3.9-1.7-4.7l0.2-0.2c7.8-6.2,16.3-6.8,25.9-2.2c-4.6-5.2-18.6-4.8-26.1,0c-2.3-2.9-6.3-3.6-8.5-6.6
		c0-0.7-0.6-1.2-1.3-1.2l-2.6-4.1c0.2-0.8,0-1.7-0.6-2.3l-0.1-2.9l3.1-4.9l0.1-0.1c2.3-1.2,4.5-2.6,6.9-3.6c7-2.8,14.4-3.5,21.9-4.3
		c1.6-0.2,3.7-3.6,3-4.9c-2.4-4.1-1.2-6.7,3.6-8.2c-2.8,4.3-2.7,5.2,0.5,5.8c-0.1,0.2-0.1,0.4,0,0.6c-1.6,0.8-0.6,1.6,0,2.4
		c-0.3,1.1,0.4,1.4,1.3,1.5c-1.1,2.2,0.4,2.3,1.9,2.5c2.7,0.1,5.5-0.1,8.2-0.4c4.2-0.4,8.6,0.7,11.5-3.7c1.3,0.2,2.6,0.5,3.5-0.9
		c0.4-0.7,0.2-1.5-0.3-2c-1.2-1.3-2,0.3-3,0.6c-0.6,0.1-1.4,0.5-1.7,0.2c-3.4-2.1-5.4,0.2-7.9,1.8c-1.5,1-3.8,1.7-5.7-0.5
		c-0.9-1-2.6-1.3-3.9-2c-0.3-0.8-1-1.4-1.9-1.5c-1.4-1.8,1.8-3.2,0.4-5c0.4-1.7,1.2-1.6,2.2-0.5c-0.9,1.8,0.9,3.7,1.4,3.8
		c2.6,0.3,3.1-2.3,4.6-4.2c-1.4,0-2.1-1-3.1-1.5c0.2-0.6-1.1-1.8,0.5-1.8c2.2,0.1,3.9,0.1,4.6-2.6c0.2-0.8,1.6-0.8,2.4-1.2
		s2.5-0.2,2.5-2h2.1c1.1,3.3,3.8,1.8,6.3,1.8c-0.2,1.2-0.9,2.5,0.5,3.5c1.4,0.9,2.7,1.9,3.8,3.2c1,1.1,1.4,1.3,2.9,0.5
		c4.6-2.6,9.2-2.7,13.3,1.3c0.6,0.6,1.7,1.4,2.6,0.7c2.5-1.8,5-0.9,7,0.4c3.4,2.2,8.5,2.3,10.1,7.5c-0.6-3,2.4-1.5,2.9-2.8
		c0.8-1.9,1.5-1.2,2.1,0c1.3,2.5,3.5,4.8,4.5,7.1C304.2,68.8,307.6,72.2,311.1,75.8z M252.3,54.3l0.5,0.8c2-1.9,3.5-3.8-0.2-5.5
		c-0.6-1.3-0.6-1.3-2.9-0.3l-0.8,0.6c-1.2,0.1-2.7,0-3.3-0.9c-1.6-2.1-2.6-1.6-4.3-0.1c-0.8,0.7-2,0.5-1.1,2.1
		c0.6,1-0.2,2.9,2.3,2.7c3-0.3,6.2-1.8,9.2,0.3c0.1,0.1,0.4-0.2,0.6-0.3L252.3,54.3z M241.8,90.8c-3.7,2.6-7.9,3.7-12.2,4.7
		c-0.8,0.2-2.4-0.1-2.4,1.8h9.5c0.9,0,1.2-0.5,1.6-1.2C239.4,94.3,240.6,92.6,241.8,90.8c0-0.1,0.1-0.1,0.2-0.1c0,0,0-0.1,0.1-0.2
		L241.8,90.8z M250.5,88.4c3.9,0.4,7.9,0.2,11.2,2.7c0.6,0.5,1.5,0.6,1.8-0.2s-0.5-1.2-1.2-1.4C258.6,88,254.5,87.6,250.5,88.4z
		 M207.2,94.1c-0.1,0.9-1.1,2.1,0.4,3C208.2,95.9,208.4,95,207.2,94.1z M207.8,100.2c0.1-0.5-0.2-1.1-0.7-1.2c0,0-0.1,0-0.1,0
		c-0.3,0-0.6,0.1-0.8,0.4c-0.3,0.4-0.1,1,0.4,1.3c0.1,0,0.1,0.1,0.2,0.1C207.1,100.9,207.6,100.7,207.8,100.2
		C207.8,100.3,207.8,100.3,207.8,100.2L207.8,100.2z"/>
	<path class="st1" d="M311.1,75.8c-3.5-3.6-6.9-7.1-9-12c-1-2.3-3.2-4.6-4.5-7.1c-0.6-1.2-1.3-1.9-2.1,0c-0.6,1.3-3.6-0.2-2.9,2.8
		c-1.7-5.1-6.7-5.2-10.1-7.5c-2-1.3-4.5-2.2-7-0.4c-0.9,0.6-2-0.1-2.6-0.7c-4.1-4.1-8.6-3.9-13.3-1.3c-1.5,0.8-1.9,0.6-2.9-0.5
		c-1.1-1.2-2.4-2.3-3.8-3.2c-1.5-1-0.7-2.3-0.5-3.5c-2.4,0-5.1,1.5-6.3-1.8h36.6c0.3,0.3,0.6,0.7,1,0.9c14.2,7,21.7,19.6,27.4,33.6
		C311.3,75.3,311.1,75.6,311.1,75.8z"/>
	<path class="st1" d="M243.9,40.6c0,1.7-1.6,1.5-2.5,2s-2.2,0.3-2.4,1.2c-0.6,2.7-2.4,2.7-4.6,2.6c-1.6-0.1-0.3,1.2-0.5,1.8
		c-0.6,1.1-1.4,2-2.8,1.9c-1-1-1.8-1.2-2.2,0.5l-2.7,0.7c-4.8,1.5-5.9,4.1-3.6,8.2c0.7,1.3-1.4,4.7-3,4.9
		c-7.4,0.8-14.9,1.4-21.9,4.3c-2.4,1-4.6,2.4-6.9,3.6c2.5-3.4,6.4-4.3,10-5.5c1-0.3,2.1-0.4,2.4-1.7c2.4-10.4,10.2-15.9,18.8-20.7
		c1.6-0.9,2.9-2.1,3.9-3.6H243.9z"/>
	<path class="st0" d="M341.4,286.8c0,12.6-0.1,25.3,0.1,38c0,2.3-0.2,3-2.7,3c-13.2-0.1-26.5-0.1-39.8-0.1l-144-0.1
		c-1.2,0-2.4-0.1-3.6-0.1c0.1-0.3,0.1-0.8,0.4-0.9c1-0.6,3.2,0,2.8-1.8c-0.4-1.5-2,0.1-3-0.1c-1.3-0.3-3.2,1.1-3.8-1.3l0.2-0.3
		l-0.1,0.3c-5.3-0.4-10.4,0.2-14.5,4.1c-22.4,0.1-44.7,0.2-67.1,0.2c-3.6,0-7.5-4.8-8.6-10.1c1.2-2,3.9-1.6,5.3-3.8
		c5.4-8.5,13-15.1,20.1-22.1c1.3-1.3,2.8-2.2,4.5-2.8c-1.8,6.4-7.8,9.9-9.3,16.4c2.9-1.1,4.1-3.3,5.4-5.3c3.3-5.2,6.3-10.6,9.1-16.2
		c1.1-2.5,3.8-3.8,6.5-3.2c10.3,1.5,20.4,4.1,30.7,5.8c2.7,0.4,4.9,2.6,8,1.4c8.3-3.2,17-4.1,25.9-4.4c2.2-0.1,3.4-0.6,3.3-3
		c4.1-3.1,8.4-5.9,13.6-6.8c0.2,2.1-1.3,3.5-2.1,5.2c-1,2.2-0.5,2.9,1.8,3.3s5.2-0.9,6.6-0.1c3.1,1.8,6.3,1,9.3,1.9
		c2,0.6,2.8,1.1,2,3s0.1,2.6,1.9,2.9c1,0.3,2,0.6,3,1c2.2,0.6,2.1,1.3,0.4,2.7s-2.6,3.1-3.4,6.1c2-1.7,3.1-2.7,3.7-4.4
		c0.5-1,1.7-1.5,2.8-1.1c0.6,0.3,0.9,1.1,0.6,1.7c0,0,0,0.1-0.1,0.1c-1.7,4.2-3.7,8.3-7.3,11.3c-1.5,1.2-2.8,0.8-4.6-0.7
		c-0.5-0.3-1.1-0.3-1.7-0.1c-5.4,1.7-11.6,0.5-16.6,4.7c-1.5,1.2-3.2,3.4-5.8,3.3c-6-0.3-11.9-0.5-17.9,0.7
		c-2.3,0.5-3.6,0.6-4.1,3.2c-0.3,1.6-0.4,3.2,0.6,3.8c1.5,0.8,4.4,1.2,4.9-0.4c1.3-4.9,4.6-2.3,7.1-2.5c0.5,0.1,0.9,0.1,1.4,0.1
		c7.1-1.6,14.3-2.7,21.6-3.2c6.4-0.4,12.4-1.8,16.4-7.6c0.3-0.5,1-0.6,1.4-1c3.9-4.2,9.5-4.9,14.5-6.9c2.9-1.1,6-2.8,9.3-1.6
		c5.1,1.9,10.6,2.1,15.6,3.9c1.6,0.6,3.3-0.2,3.8-1.8c0.1-0.2,0.1-0.5,0.2-0.7c0.3-1.4-0.2-2.3-1.8-2.4c-1,0-2.6,0.3-2.1-1.4
		c0.4-1.2,1.9-0.7,2.9-0.6c0.6,0.1,1.2,0.8,1.9,1c4,1.4,7.1,4.6,11.5,5.4c0.4,1.9,1.7,2,3.6,2c-0.7-1.4-2.1-2.1-3.6-2
		c-0.2-2.5,1.7-2.6,3.1-2.1c2.5,1,4.7-0.5,7-0.2c0.8,0.2,1.5-0.3,1.7-1c0-0.1,0-0.2,0-0.3c0-0.9-0.7-1.2-1.4-1.3
		c-3.2-0.5-6.3-1.5-9.7-1.5c-6.2-0.1-12.3,0-18-3.9c-4.4-2.9-9.5-4.5-14.8-4.6c-1.4,0.1-2.7-0.5-3.7-1.5c5.9-1.5,11.3-2.7,17.4-0.7
		c8.8,2.9,17.5,6,26.4,8.2c4.5,1.1,8.4,1.1,11.9-2.1c1.4-1.2,3.1-1.9,4.9-1.9c3.1-0.1,6.1,1.8,9.3,0.8c2.2-0.6,4.4,0.1,6.6,0.4
		c4.3,0.5,9,1.5,12.5-2.9c1-1.2,2.8-1.2,4.4-1.2c0.9,0,2.3,0.3,2.4-0.9c0.2-2.4,1.6-4.8,0.3-7.3c-0.4-0.9-1.9-1.9-1-2.8
		s2.5-0.6,3.8-0.3c2.3,0.6,4.4,2.2,4.6,4.5c0.3,3,1.8,3.5,4.2,3.2c0.9-0.1,1.6,0.6,2.3,0.7C335.8,284.2,338,287.4,341.4,286.8z"/>
	<path class="st0" d="M341.4,217.9v2c-8.2,0.5-16.4,1.1-24.6,1.5c-6.7,0.3-11.8,3.8-16.9,7.5c-1.3,0.8-1.8,2.4-1.2,3.8
		c0.8,1.7,2.1,0.2,3.1,0c3.5-0.8,6.8-2.7,10.9-1.4c-1.2,1-2.6,1.5-4.1,1.6c-8.4,0.9-15.6,4.5-22.5,9.1c-5.6,3.7-7.9,11.9-16,12.3
		c-0.1,0-0.2,0.1-0.3,0.2c-3,4.5-7.9,6-12.6,7.9c-1.8,0.7-3.8,1.6-4.2,4.4c2.3-2,3.9-1.6,5.4,0.5c0.5,0.5,1.2,0.8,1.9,0.9
		c3.4,0.8,6.2,3.1,9.6,3.8c1,0.1,1.8,1,1.8,2c0,1.2-1.2,1.3-2.2,1.4c-1.9,0.3-3.8,0.5-5.7,0.5c-6.2-0.2-12.4,0.7-18.3,2.7
		c-1.2,0.6-2.5,0.6-3.7,0c3.2-2.8,6-5.9,8.6-9.3c-0.5-0.1-0.9-0.4-1.1-0.3c-5.5,2.5-11.3,2-17.1,1.5c-6.1-0.6-12.2-1.9-18.5-1.7
		c-2.4,0.1-3.8-0.9-2.5-3.7c1.4-3.3,2.5-6.7,3.6-10.1c0.9-2.6,2.4-2.7,4.2-1.2c1.6,1.2,3.4,2.1,5.4,2.7c4.3,1.5,9,2.2,12.6,5.4
		c0.9,0.8,2.1,1.3,3.3,1.2c0.7,0,1.7,0,1-1.1c-2.1-3.4,0.9-4.9,2.8-6.2c4.2-2.8,4.3-2.7,2.2-6.6c3.9-1.6,5.6,0.9,7,3.8
		c0.4,0.9,0.8,2,1.9,1.5c1.2-0.5-0.3-1-0.2-1.6c0.1-1.3,1-1.1,1.8-1.1c0.7,0,1.3,0.8,2,0.1c3.6-3.4,7.2-6.7,12.4-8
		c-0.9-1.1-2.3-1.7-3.8-1.6c-6.8,0-13.5-1.2-20.2-1.5c-2.9-0.1-6.9,0.6-8.9-3c2.8,0.2,5.9,1.1,7.8-2.2c-0.3,1.6,0,2.8,1.9,3.1
		c9.2,1.1,18.5,1.8,27.9,1.9l4.7,0.2c2.8,0.6,5,0.1,5.3-3.5h-3.9c-2,0.1-4-0.4-5.9,0.3c-1.3-1.1-2.7,0.1-4.1-0.1
		c-7.4-1-14.7-1.7-22.1-2.5c-1.3-0.1-2.6,0-3.8,0.5l-0.7-0.8c0.3-1,0.6-1.5,2-1.2c1.7,0.3,3.5,0.4,5.2,0.3l1,0.3
		c0.7,0.4,1.6,0.5,2.3,0.2l4.8,0.1c3.3,1.5,6.8,0.5,10.1,0.9s7.2,0.8,10-2.3c0.1,0.9-0.7,2.2,0.5,2.5c1.6,0.3,3.2,0.4,4.8,0.2
		c0.6,0,0.4-1.4,0.4-1.4c-2.1,0.7-3.4-2.7-5.6-1.3c0-0.7,0-1.4,0.1-2.1c0.9,0.3,1.8,0.2,2.5-0.4c1.8,0.3,3.4,1.1,5.3,0.6
		c2.5,0,2.5-2,2.9-3.7c0.7-0.5,1.4-0.9,1-1.9v-0.3c1.8-0.9,3.1-5,5.6-0.4c0.5-3.9,0.5-3.9,4.3-5.7c2.2-1,2.9-3.1,3.2-5.1
		c0.2-2.6,1.9-4.8,4.3-5.8c1.3-0.5,2.4-1.5,3.1-2.7c2.6-3.9,5.9-6.8,10.7-7.6c2.4-0.4,4.7-1.2,7.1-1.9c-3.1-0.5-6.1-1.8-9.2,0
		c-3.8,2.2-7.9,3.2-12,0.2c-1.4-1-10.8,2-11.4,3.6c-1.6,4.3-5.4,6.1-9.1,8c-2,1-3.3,3.6-6.1,3.1c-0.2-0.6,1.4-1.4,0.2-1.4
		c-1.7,0-3.8-0.5-5,1.5c-1.6-0.6-2.7,0.9-4.1,0.9l-0.4-0.4c-3.9-1.6-7.6,2.4-11.5,0.4c0,0-0.5,0.7-0.7,1.1c-1.8,2.6-3.6,5.1-7,5.9
		c-1.1,0.2-0.7,1.3-0.7,2.1l-0.6,0.4c-1-1.7-2.8-1.8-4.5-1.9h-2.1c2.3-2.6,4.4-5.5,7.1-7.8c0.1-0.1,0.2-0.1,0.4-0.1
		c3.5,1,3-2.4,4.3-4c-4.6,2.2-8.8,4.9-13.4,6.9c-9.2,3.9-14.1,11.9-19.6,19.3c-6.2,8.2-10.7,17.4-14.4,26.9
		c-0.6,1.6-0.9,3.5-1.6,5.1c-2.8,7-4.6-2.2-7.4-0.5c-1.1,0.7-1.4-1.2-1-2.2c2.1-5.1,4.2-10.1,6.2-15.2c1-2.5,2.2-5.1,0.3-8.7
		c-0.1,5.9-4.9,7.9-7.1,11.6c0.9-3.8,2.6-7.2,3-11s3.4-6.6,3.2-10.5c-0.4,0.1-0.8,0.3-1.1,0.7c-2.4,3.9-2.8,8.6-4.5,12.6
		c-3.3,7.7-7.2,15.2-10.6,22.9c-1.4,3.2-3.2,5-6.8,4.7c-0.2-0.1-0.4-0.2-0.6-0.2c1.8-2.9,3.2-6.1,4.2-9.4c0.5-1.5,1.3-3.8-1.9-3.7
		c-8.8,0.2-17.6-0.7-26.4,0.6c-3.2,0.5-6.4,0.5-9.6,0.8c-0.7,0-1.6,0-1.7-0.9s0.7-1.1,1.4-1.2c7.3-0.5,14.4-2.5,21.8-2.1
		c1.3,0,2.6,0,3.9-0.1c0.9,0,1.5-0.6,0.9-1.4c-1.9-2.6,0.8-3.1,1.9-3.8c1.6-0.9,3.4-1.4,5.3-1.3c5.4,0.1,12.6-5.8,11.6-10.2
		c-1.3-6.1,2.1-10.8,3.3-16.1c0.4-1.8,1.8-3.6,4.2-2.3s5.2,1.6,7.3,3.5c1.2,1.1,2.6,1.2,3.4-0.1c1-1.5-0.9-1.9-1.6-2.6
		c-3.6-2.9-8.2-4.3-11.8-7.4c-1.5-1.4-2,0-2.4,1.2c-1.8,5.1-4.1,9.9-7,14.5c-0.1-1.2,0-2.4,0.4-3.6c0.4-1.6-0.9-2.6-2-1.9
		c-2,1.3-5.7,0.7-5.7,4.6c0,1.6-1.5,2.5-2.9,2.8c-1.1,0.2-2-0.9-2.1-2c-0.8-4.4-2.4-8.8-0.8-13.3c0.6-1.8,1.6-4.3,0-5.3
		c-2-1.3-2.9,1.8-4.4,2.7c-5.2,3.1-5,5.6-10.6-0.2c-0.8-0.9-1.6-0.7-2.6-0.9c-3.2-0.6-5.5,1.2-7.7,3c-2,1.6-4,2.4-6.6,1.4
		c-1.2-0.4-2.6-0.2-3.9-0.2c-1.6-1.5-0.6-4.5-3.3-5.5c-0.7-0.2,0.5-1.4,1.2-1.6c1.9-0.5,3.9-0.8,5.9-1.2c6.7-0.9,13.3-2.2,19.8-4.1
		l10.4-2c2.6,0.3,5,0.3,4.4-3.5c1.4-2.3,2.9-4.5,5.8-5.1c2.1,0.1,5.4-0.6,2.1,3.2c-0.6,0.6-0.5,2.1-0.2,3.1c0.6,2,2.6,2.6,4.2,3.6
		c0.6,0.4,1.3,0.2,1.6-0.4c0.1-0.1,0.1-0.2,0.1-0.3c0.6-2.2,2.1-2.8,4.1-3.1c1.2-0.1,2.3-1,2.6-2.2c-1.3-0.7-2.3-0.1-3.2,0.8
		s-1.7,1.3-2.8,0.5c-1.1-0.6-1.6-1.9-1.3-3.1c0.3-1.1,0.9-2.9,2-2.6c4.9,1.3,7.2-4.6,11.9-3.7c-1.2-0.8-2.5-1.3-3.9-1.4
		c-3.2,0.1-3.8-1.1-2.2-3.7c5.4-3.1,10.2-7.3,16.2-9.3c1.3-0.4,0.6-1.2,0.2-2c-1.6-4.1-3.1-8.2-4.6-12.3c1.1-0.7,2-2,3.5-2.2
		c-0.3,2.7-0.3,2.7,1.8,5c0.1,0.2,0.3,0.4,0.3,0.6c2.4,4.4,4.8,4.4,7.9,0.3c1.1-1.5,1.3-4.1,4-4l0,0c0,1.3-0.3,2.6-0.7,3.8
		c-0.2,1-0.1,1.8,1.5,1.6c4.7-0.7,9.4-1.7,14.2-1.2c3.4,0.4,6.3-1.6,9.5-1.9c0.6-0.1,1.4,0.8,1.9-0.1s-0.3-1.6-1-2.1
		c-0.6-0.4-1.1-0.9-1.6-1.4c-0.3-0.5-1.1-1.2-0.3-1.9s1.2,0,1.8,0.5c2.1,1.7,4.2,3.5,6.1,5.4c1.5,1.5,2.1,2.2-0.2,3.2
		c-1.1,0.5-2.5,1.4-0.9,2.5s2.7,2.8,4.7,3.1c1.8,0.3,2.5,0.9,1.9,2.9c-0.5,1.5,0.4,2.4,1.8,1.1c0.6-0.6,0.9-0.5,1.4-0.2
		c0.8,0.5,0,1,0,1.5c0.1,2.6-3.1,3.5-3.1,6.1c6.7,0,9.2,2,10.6,8.6c0.5,2.4,0.9,4.9,1.2,7.4c0.9,6.3,0.9,6.3,3.4,8.4
		c-1-7.1-0.4-14.4,1.8-21.3c0.4-1.6,0.9-3.3,3.3-2.8c4.5,0.9,9.2,1.1,13.8,2.2c13.8,3.2,27.5,6.5,40.9,11.3c0.4,3,0.4,6.1,0,9.1
		c-6.3,0.5-12.7,0.1-18.7,2.5c6.3,0.7,12.5-1,18.8-0.2v2.8c-6,0.4-12,1.4-18,0c0,1.9,2,0.8,2.3,2.1c-5.5,0-10.8,1.8-15.3,4.9
		c10-3.1,20.4-5,30.9-5.5v2.7c-7.4,0.6-15,0.4-22,3.5C326.7,216.5,334.1,217.1,341.4,217.9z M199.6,208.5c0.3,0.4,0.5,0.9,0.9,1
		c5.9,2.1,11.8,3.9,17.1,7.2c0.9,0.6,1.6,0.1,2.3-0.3c7.9-4.6,15.8-9.2,23.7-13.9c2.4-1.4,3.7-4.1,3.5-6.8c-4.7,3.4,0-2.8-2.7-1.8
		c-0.9,0.9-3.2,0.9-3.2,3.4c0,0.8-0.8,1.2-1.6,0.6c-2-1.4-3.8-2.6-4.4,1.2c-0.2,1-1.7,1.1-2.1,0.5c-1.2-1.5-3.8-3-2.3-5.3
		c2.5-3.8-1.8-2.5-2.5-3.7c-0.9-1.6,2.6-4.3-1.2-5.1c-3.2-0.6-5.1-2-5.1-5.5c0-1-0.9-2.1-1.6-3.7c-0.2,6.3-0.3,11.8,2.6,17
		c0.6,1,1.3,2.4,0.8,3.8c-1.8,5-2.9,10.4-7.5,14c-1.4,1.1-2.5,1.5-3.8,0.8C208.6,209.8,204,209.7,199.6,208.5L199.6,208.5z
		 M249.6,261.7c2.7,0.1,4-1.5,4.3-3.8c0.3-1.5-0.7-2.9-2.2-3.2c-0.1,0-0.2,0-0.2,0c-2.1-0.2-6.2,3.1-5.6,4.5
		C246.4,260.7,247.9,261.7,249.6,261.7L249.6,261.7z M218.1,234.7c1.8-2.4,4.7-4.5,1.1-7.4c-1.4-1.2-3.1-1.1-4.1,0.3
		C212.7,231.2,215.3,233,218.1,234.7L218.1,234.7z M284.2,206.4c2.7,0.3,4.3-1.7,6.3-2.4c1.6-0.6,1.1-2.1,0-3.1
		c-1.4-1.2-4.7-0.3-5.3,1.5C284.8,203.6,284.5,204.8,284.2,206.4L284.2,206.4z M237.4,183.8c2.2-1.3,4.9-2.2,3.3-5.5
		c-0.3-0.6-0.7-1.4-1.6-0.9C236.7,178.9,235.5,180.8,237.4,183.8L237.4,183.8z M178.8,252.4c6.5,1.2,6.5,1.2,8.3,0.2
		C184.2,251.9,181.5,252.4,178.8,252.4L178.8,252.4z M198.2,206.3c-0.2-0.2-0.5-0.4-0.7-0.5c-0.4-0.1-0.7,0.1-0.5,0.5
		c0.2,0.3,0.4,0.5,0.7,0.5C198,207,198.3,206.9,198.2,206.3L198.2,206.3z M251.5,267c-0.1,0.2-0.2,0.3-0.3,0.5c0,0,0.1,0.1,0.2,0.2
		c0.1-0.2,0.2-0.3,0.3-0.5C251.7,267.2,251.6,267,251.5,267z"/>
	<path class="st1" d="M273.6,211.6c1.4,0,2.6-1.5,4.1-0.9c1.6,2.4,3.2-0.6,4.9,0c2.8,0.6,4.1-2,6.1-3.1c3.7-1.9,7.5-3.7,9.1-8
		c0.6-1.6,10-4.7,11.4-3.6c4.1,3,8.2,2,12-0.2c3.1-1.8,6-0.5,9.2,0c-2.4,0.6-4.7,1.5-7.1,1.9c-4.8,0.8-8.1,3.7-10.7,7.6
		c-0.7,1.2-1.8,2.2-3.1,2.7c-2.4,1-4.1,3.2-4.3,5.8c-0.3,2-1,4.1-3.2,5.1c-3.9,1.8-3.9,1.8-4.3,5.7c-2.5-4.6-3.8-0.5-5.6,0.4
		c-0.9-1.2,1-2,0.4-3.2c1.2-1,2.1-2.2,2.9-3.5c0.5-0.6,1.9-0.3,1.3-1.9c-0.5-1.3-1.1-2.3-2.8-2.1c-4.5,0.3-9,0.6-13.4,1
		c-4.9,0.5-8.7,4.8-13.9,3.4c-0.8-0.2-1.2,0.6-1.1,1.5c0.2,1.1,0.8,0.5,1.5,0.6c3,0.3,6.2-0.9,8.9,1.2c0.2,1.4-1.1,2.1-1.4,3.3
		c-1.7,0.9-3.7,0.9-5.5,0c-0.8-0.4-1.6-1.2-2.5-0.3c-0.2,0.3-0.2,0.7-0.1,1c0.6,1,1.7,0.6,2.5,0.8c2.1,0.5,4.2-0.4,6.2,0.6l-1,3.4
		c-3.2-0.4-6.4-1.1-9.5,0.8h14.4l-2.4-1.4c-0.1-1,0.2-2,0.9-2.7l2.3,0.4c0.5,1,0.8,2.1,0.6,3.2l-0.1,2.1l0,0
		c-2.8,3.2-6.5,2.7-10,2.3s-6.9,0.6-10.1-0.9c-0.5-1.1,1.3-2.5-0.5-3.4c-2.5-1.4-6.6,0.1-7.6,2.8c-1.7,0-3.5-0.1-5.2-0.3
		c-1.3-0.3-1.7,0.1-2,1.2l-5.9-0.4c-1-0.1-1.8,0.5-2.1,1.4c-0.7,1.3,0.6,1.5,1.1,2.1c2,3.6,5.9,2.9,8.9,3c6.8,0.3,13.5,1.5,20.2,1.5
		c1.4-0.1,2.8,0.5,3.8,1.6c-5.1,1.3-8.8,4.6-12.4,8c-0.7,0.6-1.3-0.1-2-0.1c-0.9,0-1.7-0.2-1.8,1.1c-0.1,0.6,1.5,1.1,0.2,1.6
		s-1.5-0.6-1.9-1.5c-1.4-3-3.2-5.4-7-3.8c2.2,3.9,2,3.8-2.2,6.6c-1.9,1.3-4.9,2.8-2.8,6.2c0.7,1.1-0.4,1.1-1,1.1
		c-1.2,0-2.4-0.4-3.3-1.2c-3.6-3.2-8.3-3.9-12.6-5.4c-1.9-0.6-3.7-1.5-5.4-2.7c-1.8-1.5-3.4-1.4-4.2,1.2c-1.1,3.4-2.2,6.8-3.6,10.1
		c-1.2,2.9,0.2,3.8,2.5,3.7c6.2-0.3,12.3,1.1,18.5,1.7c5.8,0.5,11.6,1,17.1-1.5c0.2-0.1,0.6,0.2,1.1,0.3c-2.5,3.4-5.4,6.5-8.6,9.3
		c1.2,0.6,2.5,0.6,3.7,0c5.9-2,12.1-2.9,18.3-2.7c1.9-0.1,3.8-0.2,5.7-0.5c1-0.1,2.1-0.1,2.2-1.4c0-1-0.8-1.9-1.8-2
		c-3.4-0.7-6.2-3-9.6-3.8c-0.7-0.1-1.4-0.4-1.9-0.9c-1.5-2.1-3.1-2.5-5.4-0.5c0.4-2.8,2.4-3.7,4.2-4.4c4.7-1.9,9.6-3.4,12.6-7.9
		c0.1-0.1,0.2-0.2,0.3-0.2c8.2-0.4,10.4-8.6,16-12.3c6.9-4.6,14.1-8.2,22.5-9.1c1.5-0.1,3-0.6,4.1-1.6c-4.1-1.3-7.4,0.6-10.9,1.4
		c-1,0.2-2.3,1.7-3.1,0c-0.6-1.4-0.1-3,1.2-3.8c5.1-3.8,10.3-7.2,16.9-7.5c8.2-0.4,16.4-1,24.6-1.5c0,6,0,12,0.1,18.1
		c-0.7,0.1-1.2,0.6-2,0.3c-11.6-4.5-23.4-3.8-35.2-1.2c4.3-0.7,8.4,0.7,12.9,0c3.8-0.7,8.2,1.5,12.3,2.5c4.3,1,7.5,4.4,12,4.9
		c0,14.2,0,28.3,0,42.5c-3.5,0.7-5.6-2.6-8.8-2.9c-0.7-0.1-1.5-0.8-2.3-0.7c-2.5,0.3-3.9-0.2-4.2-3.2c-0.3-2.3-2.3-3.9-4.6-4.5
		c-1.2-0.3-2.9-0.7-3.8,0.3s0.5,1.9,1,2.8c1.3,2.6-0.2,4.9-0.3,7.3c-0.1,1.2-1.5,0.9-2.4,0.9c-1.6,0-3.4-0.1-4.4,1.2
		c-3.4,4.4-8.1,3.3-12.5,2.9c-2.2-0.2-4.4-1-6.6-0.4c-3.3,1-6.2-1-9.3-0.8c-1.8,0-3.5,0.7-4.9,1.9c-3.5,3.2-7.4,3.2-11.9,2.1
		c-9-2.2-17.7-5.4-26.4-8.2c-6.1-2-11.5-0.8-17.4,0.7c0.9,1,2.3,1.6,3.7,1.5c5.2,0.1,10.3,1.7,14.7,4.6c5.6,4,11.8,3.8,18,3.9
		c3.4,0,6.5,1.1,9.8,1.6c0.7,0.1,1.4,0.5,1.4,1.3c0,0.8-0.7,1.4-1.4,1.4c-0.1,0-0.2,0-0.3,0c-2.3-0.4-4.6,1.2-7,0.2
		c-1.4-0.5-3.3-0.4-3.1,2.1l0,0c-4.3-0.7-7.4-4-11.5-5.4c-0.7-0.2-1.2-0.9-1.9-1c-1-0.1-2.5-0.6-2.9,0.6c-0.5,1.7,1.1,1.4,2.1,1.4
		c1.7,0,2.1,1,1.8,2.4c-0.2,1.6-1.6,2.8-3.3,2.7c-0.2,0-0.5-0.1-0.7-0.2c-5.1-1.9-10.6-2-15.6-3.9c-3.3-1.2-6.4,0.5-9.3,1.6
		c-5,2-10.6,2.6-14.5,6.9c-0.4,0.4-1.1,0.6-1.4,1c-3.9,5.8-10,7.2-16.4,7.6c-7.3,0.6-14.5,1.7-21.6,3.2c-0.5,0-0.9,0-1.4-0.1
		c-2.6,0.1-5.8-2.4-7.1,2.5c-0.4,1.6-3.4,1.1-4.9,0.4c-1-0.5-0.9-2.2-0.6-3.8c0.5-2.6,1.8-2.8,4.1-3.2c6-1.2,11.9-1.1,17.9-0.7
		c2.6,0.1,4.4-2,5.8-3.3c5-4.2,11.1-3,16.6-4.7c0.6-0.2,1.2-0.2,1.7,0.1c1.8,1.5,3.1,1.9,4.6,0.7c3.6-3,5.5-7.1,7.3-11.3
		c0.4-0.6,0.2-1.4-0.4-1.8c0,0-0.1,0-0.1-0.1c-1.1-0.4-2.3,0-2.8,1.1c-0.6,1.7-1.7,2.7-3.7,4.4c0.8-3,1.8-4.9,3.4-6.1s1.8-2-0.4-2.7
		c-1-0.4-2-0.7-3-1c-1.8-0.3-2.6-1.1-1.9-2.9s0-2.4-2-3c-3-0.9-6.3-0.1-9.3-1.9c-1.4-0.8-4.3,0.5-6.6,0.1s-2.9-1.1-1.8-3.3
		c0.8-1.7,2.3-3.1,2.1-5.2c0.3-1.5,2.3-1.7,2.5-3.3c3.6,0.3,5.4-1.6,6.8-4.7c3.4-7.7,7.3-15.2,10.6-22.9c1.8-4.1,2.1-8.7,4.5-12.6
		c0.2-0.4,0.6-0.6,1.1-0.7c0.2,3.9-2.8,6.8-3.2,10.5s-2.1,7.2-3,11c2.2-3.8,7-5.7,7.1-11.6c1.9,3.6,0.7,6.2-0.3,8.7
		c-2,5.1-4.2,10.1-6.2,15.2c-0.4,1.1-0.1,2.9,1,2.2c2.8-1.6,4.6,7.6,7.4,0.5c0.7-1.6,0.9-3.5,1.6-5.1c3.8-9.5,8.3-18.7,14.4-26.9
		c5.5-7.3,10.4-15.3,19.6-19.3c4.5-1.9,8.8-4.7,13.4-6.9c-1.3,1.6-0.7,5-4.3,4c-0.1,0-0.2,0-0.4,0.1c-2.7,2.3-4.8,5.1-7.1,7.8
		l-3.1,1.4c-5.2,2.8-9.2,7.4-11.2,12.9l0,0c-1,0-1.5,0.5-1.4,1.6c0.1,1.3,1.3,1.3,2.1,1.6c0.5,0.3,1.2,0.1,1.5-0.4
		c0.1-0.1,0.1-0.3,0.1-0.4c0.5-1.5,1-3,3.1-2.7c0.5,0.1,1-0.5,0.8-0.9c-1.5-2.4,2.9-3.2,1.6-5.7c-0.3-0.5,1.3-1.1,2.3-0.6
		c0.7,0.4,1.3,0.6,0.6,1.9c-1,1.7-0.8,1.9,1.2,1.7c0.8-0.1,1,0.4,1.4,0.8c1.3,1.5,3.5,1.6,5,0.3c0.3-0.3,0.5-0.5,0.7-0.9
		c1.5-2.6,4.1-4.3,7-4.9c3.3,0.2,2.5-2.6,3.4-4.4c-1.5-0.5-3.2-0.8-3.8,0.3c-1.5,2.7-2.6,1.3-3.8,0c0-0.8-0.4-1.9,0.7-2.1
		c3.4-0.8,5.2-3.3,7-5.9c0.2-0.4,0.7-1.1,0.7-1.1c3.9,1.9,7.6-2,11.5-0.4c-0.1,0.2-0.4,0.4-0.3,0.5
		C273.2,212.1,273.4,211.8,273.6,211.6z M191.5,270.1c1.9,3.6,4.9,2.2,8.4,1.9c-2.1-0.5-4.2,0.3-4.4-2.3c2.1,0,3.8-1.6,3.9-3.6
		c-3.5-1.9-5.6,1.7-8.6,2.3C189.5,268.7,190.6,269.8,191.5,270.1z M291.6,250.7c1.7,0.9,2.7,2.8,4.8,3c5.3,0.4,10.2,2,15.2,3.8
		c1.5,0.5,3.2,0,4.4,1.2c3.2,3.2,7.7,4.3,11.3,6.8c2,1.4,4.5,1.4,6.9,1c1.9-0.3,2.1-1.8,0.8-2.7c-4.3-3.5-9.1-6.4-14.1-8.8
		c-5.1-2.2-10.5-3.7-16-4.5C300.6,249.9,296.1,248.4,291.6,250.7z M290.8,263.8c-1.4,0-3.2,0-5,0c-1,0-1.6,0.4-1.6,1.5
		c0,0.7,0,1.6,0.8,1.8c5,0.7,9.9,3.9,15.2,1.6c1-0.4,2.9-0.2,2.8-1.5s-1.5-2.3-3-2.6C297,263.8,293.9,263.6,290.8,263.8L290.8,263.8
		z M260.2,279.4c7.2,1.9,14.5,3.5,22.1,2.3C275.3,277.7,267.7,279,260.2,279.4L260.2,279.4z M297.4,274.9c2.6-0.7,5-1.7,7.6-0.5
		c0.8,0.4,1.4-0.4,1.6-1.1c0.5-1.5-1-2.6-0.8-4.2c0.1-0.4-1.1-0.5-1.6-0.2C301.8,270.6,299,272,297.4,274.9L297.4,274.9z
		 M262.2,229.4c1.2-0.4,1.7-1.6,1.9-3.1c0.1-0.7,0.2-2-1-1.8c-2,0.2-1.4,2.4-2.3,3.6C260.2,228.7,261,229.2,262.2,229.4L262.2,229.4
		z M289.6,280.4c2.9,0.6,4-1.6,6.1-3.5C292.2,276.4,291.4,279.2,289.6,280.4L289.6,280.4z"/>
	<path class="st1" d="M140.9,214.8c1.3,0.1,2.7-0.2,3.9,0.2c2.6,0.9,4.6,0.2,6.6-1.4c2.2-1.8,4.5-3.5,7.7-3c0.9,0.2,1.7,0,2.6,0.9
		c5.6,5.8,5.3,3.3,10.6,0.2c1.5-0.9,2.4-3.9,4.4-2.7c1.6,1,0.6,3.5,0,5.3c-1.6,4.6,0,8.9,0.8,13.3c0.2,1.1,1,2.2,2.1,2
		c1.3-0.3,2.9-1.1,2.9-2.8c0-4,3.7-3.3,5.7-4.6c1.1-0.7,2.3,0.3,2,1.9c-0.4,1.1-0.6,2.4-0.4,3.6c2.9-4.6,5.2-9.4,7-14.5
		c0.4-1.2,0.9-2.5,2.4-1.2c3.5,3.1,8.2,4.4,11.8,7.4c0.8,0.6,2.6,1,1.6,2.6c-0.8,1.3-2.2,1.2-3.4,0.1c-2.1-1.9-4.9-2.2-7.3-3.5
		s-3.8,0.6-4.2,2.3c-1.2,5.3-4.6,10-3.3,16.1c1,4.4-6.2,10.4-11.6,10.2c-1.8-0.1-3.7,0.4-5.3,1.3c-1.1,0.7-3.9,1.2-1.9,3.8
		c0.6,0.8,0,1.3-0.9,1.4c-1.3,0.1-2.6,0.1-3.9,0.1c-7.4-0.3-14.5,1.6-21.8,2.1c-0.7,0.1-1.5,0.2-1.4,1.2s1,1,1.7,0.9
		c3.2-0.2,6.4-0.3,9.6-0.8c8.8-1.3,17.6-0.3,26.4-0.6c3.2-0.1,2.4,2.2,1.9,3.7c-1,3.3-2.4,6.5-4.2,9.4c-1.8,0.9-3.8,1.3-5.8,1.2
		c-3.4-0.1-6.8,0-10.2,0v0.6H178l0.1,0.5l-29.2,9.4c4.3,0.8,8.4-0.2,12.4-1.1c1.9-0.4,3.8-1.4,5.8-0.3c0.1,2.4-1,2.9-3.3,3
		c-8.8,0.2-17.6,1.2-25.9,4.4c-3.1,1.2-5.4-1-8-1.4c-10.3-1.6-20.4-4.3-30.7-5.8c-2.7-0.6-5.4,0.7-6.5,3.2c-2.7,5.6-5.8,11-9.1,16.2
		c-1.3,2-2.6,4.2-5.4,5.3c1.4-6.4,7.5-9.9,9.3-16.4c-1.7,0.6-3.3,1.5-4.5,2.8c-7.2,7-14.7,13.6-20.1,22.1c-1.4,2.2-4.1,1.8-5.3,3.8
		c-1.5-4.4-1.6-8.7,0.7-12.9c0.5-0.2,1.3-0.2,1.6-0.6c3-5.4,7.2-10,10.7-14.9c0.5-0.7,0.5-1.7-0.2-2.3c-1-1-1.4,0.3-1.9,0.8
		c-2.1,2.2-3.7,4.9-6.3,6.5c-1.7-5.3,2.5-13.7,8.2-16.3c4.2-2,7.6-5.5,12.5-6.4c1-0.2,2-1.2,3.3-1.1s2.5-1.1,2.4-1.8
		c-0.6-5.2,3.7-5.1,6.5-5.6s4.6-1.7,5.3-4.3c0.9-3.1,3.1-4,5.8-3.1s3.6-0.6,4-2.5c0.9-4,3-6.3,7.3-6.3c0.9,0,1.7-0.5,1.9-1.4
		c0.4-3.1,2.5-4.7,4.9-6.1c1.5-0.9,1.1-1.9,0.5-3c-1.3-2.2-0.4-3.7,1.9-3.6c3.3,0.1,4.1-2.3,5.1-4.6c1.4-3.3,2.7-6.5,6.1-8.4
		C139.4,218.8,139.9,216.5,140.9,214.8z M147.9,236.5c-0.7-0.1-1.4,0.1-1.9,0.7c-3.9,3.3-5.5,10.9-3.2,16.3
		C145.5,248,146.4,242.1,147.9,236.5l0.5-0.7l-0.4-0.2L147.9,236.5z M139,270.5c1.7-5.3,5-10.5,1.9-16.4c-0.5-0.9-0.7-2-0.6-3.1
		c0.3-3.7-0.8-7.3-1.2-11c-0.1-2-0.8-3.9-2-5.6c-0.1-0.1-0.9,0.1-0.9,0.2c0.3,2.1-0.1,4.2,1,6.1c1.2,1.9,0.9,4.4-0.7,5.9
		c-1.4,1.3-1.4,2.5-1.5,4c-0.1,3.3-1.5,4.1-4.5,2.6c-2.6-1.3-3.7-0.8-4.1,2c-0.2,1.3,0.3,2.6-0.9,3.7c-1.5,1.3-2.4-1.1-3.8-0.6
		c-0.1,1.2,1.1,2.8-0.1,3.4c-1.8,0.8-2.2-2.3-4.3-2c0.1,2.2,0.8,5.5-3.3,2.6c-0.5-0.3-1.2-0.2-1.6,0.3c0,0,0,0,0,0
		c-0.3,0.7,0,1.5,0.7,1.8c0.6,0.3,1.4,0.4,2.1,0.3c5.9-0.5,10.7,2.3,15.5,5.2c-2,2.4,1.1,2.9,1.6,4.4c0.2,0.5,0.9,0.8,1.4,0.5
		c0.2-0.1,0.3-0.2,0.4-0.3C135.5,273.2,137.9,272.6,139,270.5L139,270.5z M111.7,271.6c0,0.4-0.1,0.6,0,0.6
		c6.6,5.1,14.9,6.2,22.4,9.2c0.5,0.2,1.1,0.1,1.1-0.5c0.1-0.9-0.6-1.2-1.3-1.3c-3.2-0.9-6.2-2.2-9.1-3.7
		C120.6,274.1,116.6,271.3,111.7,271.6L111.7,271.6z M140.7,277.9c3.4-4.2,8.2-2.8,12.6-5c-3.1-1-5.5,0.1-7.9-0.1
		C141.9,272.5,140.5,273.6,140.7,277.9L140.7,277.9z M160.8,223.2c0.1,0.8,0.7,1.5,0.3,2.4c-0.2,0.6-0.2,1.2,0.6,1.4
		c0.6,0.2,1.2,0,1.6-0.5c1-1.5,1.9-3,2.8-4.5c0.4-0.8,0.5-1.6-0.6-2c-1.7-0.8-3.7,0-4.5,1.8C160.8,222.3,160.7,222.8,160.8,223.2
		L160.8,223.2z M85.1,275l0.2,0.9l14.8-2.5l-0.2-1C94.6,271.8,89.9,273.8,85.1,275z M146.1,281.9c-0.2,0.1-0.6,0.2-0.7,0.4
		c-0.2,0.6,0.4,0.8,0.8,0.9c0.2,0,0.7-0.1,0.7-0.3C147,282.3,146.7,282,146.1,281.9L146.1,281.9z"/>
	<path class="st1" d="M341.4,195.7c-13.3-4.8-27.1-8.1-40.9-11.3c-4.5-1.1-9.2-1.3-13.8-2.2c-2.4-0.5-2.9,1.3-3.3,2.8
		c-2,6.8-2.6,14-1.6,21.1c-2.5-2.1-2.5-2.1-3.4-8.4c-0.4-2.5-0.7-5-1.2-7.4c-1.4-6.6-3.9-8.6-10.6-8.6c0-2.6,3.2-3.5,3.1-6.1
		c0-0.5,0.8-1.1,0-1.5c-0.5-0.3-0.8-0.4-1.4,0.2c-1.4,1.3-2.2,0.4-1.8-1.1c0.6-2-0.1-2.6-1.9-2.9c-2-0.3-3.2-2-4.7-3.1
		s-0.2-2,0.9-2.5c2.3-1,1.7-1.7,0.2-3.2c-2-1.9-4-3.6-6.1-5.4c-0.6-0.5-1.1-1.1-1.8-0.5s0,1.3,0.3,1.9c0.5,0.5,1,1,1.6,1.4
		c0.6,0.6,1.3,1.2,1,2.1s-1.2,0.1-1.9,0.1c-3.2,0.4-6.1,2.3-9.5,1.9c-4.8-0.5-9.5,0.5-14.2,1.2c-1.6,0.2-1.7-0.6-1.5-1.6
		c0.4-1.2,0.7-2.5,0.7-3.8l0.1-0.3l-0.2,0.3c-2.7-0.1-2.9,2.5-4,4c-3,4.1-5.4,4.1-7.9-0.3c-0.1-0.2-0.2-0.4-0.3-0.6
		c-2.1-2.3-2.1-2.3-1.8-5c-1.5,0.2-2.4,1.5-3.5,2.2c-2.3-2.5-2.4-5.9-3.2-8.9c-2.4-8.9-3.7-17.9-5.4-26.9c-0.2-1.2-0.3-2.4-0.2-3.6
		c0.3-2.3,0.3-4.2-2.1-5.9c-1.6-1.1-1.7-3.7-1.6-5.9c0.8,0.1,1.8,0.1,2.2,0.9c0.8,1.6,0.8,4.2,3.8,3.1c0.1,0,0.2,0.1,0.3,0.2
		c0.3,4.2,4.2,3.9,6.5,5.8c2,1.6,3.3,0.8,4.8,0.3c6.3-2.1,9.1-7.2,11.3-12.9c0.5-1.2,1-2.4,1.7-3.6c0.8-1.7,2.6-2.6,4.4-2.4
		c2.1,0.2,2.4,2,2.6,3.3c0.4,2.3,1.9,4.4,4,5.5c1,0.6,4.5,1.2,1.8,3.9c0.2,0.4,0.5,0.7,0.8,1c2.9,2.5,6.6,3.9,10.4,4.1
		c1,0,2.5,0.5,2.5-1.1s-1.4-0.4-2.2-0.7c-0.7-0.2-1.4-0.5-2-0.9c3.6,0.1,6.5-1.9,9.8-2.8s4.6-4.2,4.8-7.6c0.1-1.7,0.1-3.3-0.1-5
		c-0.3-1.9-0.5-4.6-3.5-1.7c-1.1,1-0.9,0-1.3-1c-1-2.4-3.6-2-6.2-1.4c4-2.8,8.7-2.7,10.3,0c2,2.3,4.8,0.8,7.1,1.3
		c2.5,2.2,5.5,2.7,8.6,3l0.4,0.3l-0.3-0.4c-2.1-1.9-5.1-1.8-7.4-3.1l0.1-1.4c1.4-1,3.1-1,4.7-1.3c0.9-0.2,2.1-0.3,2.5,0.8
		c1.5,4.3,6.3,5.1,8.8,8.5c-0.6,1-1.7,0.6-2.5,0.3c-5.7-2.2-11.9-2.6-17.6-5.1c-0.7-0.4-1.7-0.2-2.1,0.6c-0.2,0.4-0.3,0.9-0.1,1.3
		c0.6,2.1,0,4-0.4,5.9c-0.3,1.1-0.7,2.3,0.7,2.7c1.1,0.2,2.2,1.1,3.5-0.7c2.8-3.7,7.1-3.9,11.2-3.1c2,0.5,3.4,2.5,3.2,4.6
		c0,4.7,0.4,9.4,1.1,14c0.1,0.8,0.1,1.9,1,2.1c1.2,0.3,1.6-1,1.9-1.7c1.7-3.5,2.4-7.4,4-10.9c0.7-1.6,1.1-2.6,3-2.9
		c1.6-0.3,3.1-1.3,4.6-1.9c2.5-1.1,4.8-1.2,7,0.7l0.1,2.1c-0.8-0.1-1.6-0.3-2.4-0.3c-2.9-0.3-5.7,1-7.3,3.4c-0.7,0.7-0.7,1.8,0,2.5
		c0,0,0.1,0.1,0.1,0.1c0.7,0.5,1.9,0.6,2.1-0.4c1-4,3.5-2.3,5.8-1.7c1.3,0.3,2.7,1.3,3.5-0.8c3.5,4.6,2.1,9.5,0.1,13.9
		c-2.7,6.1-6.1,11.9-9.2,17.8c-0.9-1.1-1.4-1.5-3-0.4c-5.3,3.6-3.5,9.2-4.5,14c0,0.2,0.7,0.5,1.1,0.8c1.4,4.2,2.8,8.5,4.3,12.7
		c0.5,1.3,1.6,2.6,1.7,3.9c0.3,4.9,3.8,5.2,7.4,5.8c8.7,1.3,17.3,3.2,25.8,5.7c1.3,0.4,2.5,2.7,4.1,0.3c0.1-0.2,1.5,0.5,1.9,1.6
		C341.5,191.6,341.6,193.7,341.4,195.7z M280.5,170.5c-0.7-1.5,1.1-2.4,1-4c-2.3,0.6-2.5,2.2-2.5,4c-4.8,0.3-3.3,6.1-6.9,7.5
		c2.4,0.2,3.6-1.8,5.3-2.5c2.9-1.2,3.5-2.6,1.6-5L280.5,170.5c2.6,1.7,4-0.8,5.7-1.9c0.7-0.4,1.7-1.2,1-2.3s-2-0.4-2.8,0.2
		C283,167.7,282.4,169.7,280.5,170.5z M296.2,180.4c0.3-2.3-1.8-3.5-2.4-5.4c-0.1-0.5-0.7-0.8-1.1-0.6c-0.1,0-0.2,0.1-0.3,0.2
		c-1.7,1.2-4.1,1.5-5.1,3.7c-0.4,0.8-1.4,1.6-0.7,2.6c0.5,0.8,1.5,0.3,2.3,0.4c1.7,0,3.3,0,5,0.1c1.7,1.2,3.7,1,5.7,1.2
		C299.2,180.1,297.4,180.9,296.2,180.4L296.2,180.4z M241.2,115.1c-0.2-0.5-0.3-1.2-1.1-1c-0.1,0-0.3,0.5-0.2,0.5
		c0.3,0.3,0.7,0.5,1.1,0.7c0.2,2,2.6,2.4,3,4.3c0.1,0.6,0.5,1.3,0.3,1.7c-0.4,0.8-1.3,0.4-1.9,0.1c-1.9-1-3.8-2.8-5.6-2.8
		c-3.3,0.1-6.3,1-9.9,0.6c-2.3-0.3-5.3,2.6-7.5,4.6c-4.6,4-3.2,10.4-5.5,15.4c-0.4,0.9-0.3,1.9,0.3,2.7c2,2,2.2,4.5,2.3,7
		c0.1,1.6,0.8,2,2,0.9c0.6-0.7,1.2-1.5,1.7-2.3c2.2-3.2,5.2-5.2,9.2-5.1c2.8,0.1,5.5,0.1,8.2,0.3c6.9,0.4,12.7,2.6,16.2,9.1
		c0.4,0.7,0.7,1.9,1.9,1.8c0.6-1.2-0.1-2.1-0.4-3.1c-1-2.5-2-4.9,0.4-7.5c1.5-1.7,0.7-3.9-0.3-6c-1.9-3.9-4.6-7.3-6-11.6
		C248.1,121.3,247,116,241.2,115.1L241.2,115.1z M296.9,134.9c1.4,1.2,2.7-2.6,4.2-0.1c0.3,0.4,0.8-0.3,0.5-0.7
		c-0.8-1.5,0.5-2.4,1.1-3.5c2-3.5,0.9-9.7-2.1-10.2c-2.8-0.4-4.3-1.5-4.9-4.3c-1.1,2.8-1.9,5.3,0,8
		C298,127.4,298.8,131.1,296.9,134.9L296.9,134.9z M226.7,152.9c3.8-0.4,7.2-1.2,10.6-0.8s2.4-1.6,2.1-2.9c-0.5-2.9-3.1-3.9-5.5-4.3
		c-2.8-0.4-5.8-0.6-7.8,2.1c-0.4,0.5-0.9,1.6,0.1,1.7C229.9,149.2,227.2,151.1,226.7,152.9L226.7,152.9z M272.6,171.7
		c3.5-5.5,6.6-10.4,9.7-15.3c0.7-1.2,2.8-2.1,1.2-3.9c-1-1.2-2.3-2-3.8-2.6c-1.8-0.6-3.2-0.4-3.5,2.4c-0.5,5.3,0.9,10.9-2.7,15.7
		C272.4,168.9,272.1,170.3,272.6,171.7L272.6,171.7z M291.6,142.4c-0.3,0.3-0.5,0.7-0.7,1c-0.9,1.7,0.3,2.6,1.3,3.6
		c0.3,0.3,1.1,0.4,1.2,0.3c1-1.3-0.6-2-0.8-3C292.5,143.6,292.6,142.8,291.6,142.4L291.6,142.4z M205.5,122.5
		c1.5-1.6,1.3-3.1,1.3-4.6c0-0.1-0.8-0.3-0.9-0.2C204.6,119,205.4,120.5,205.5,122.5L205.5,122.5z"/>
	<path class="st1" d="M200.2,182.7c-1.6,2.6-1,3.8,2.2,3.7c1.4,0.1,2.8,0.6,3.9,1.4c-4.7-0.9-7,5-11.9,3.7c-1.1-0.3-1.7,1.5-2,2.6
		c-0.3,1.2,0.2,2.5,1.3,3.1c1.1,0.8,2,0.3,2.8-0.5s1.8-1.5,3.2-0.8c-0.3,1.2-1.4,2.1-2.6,2.2c-2,0.3-3.6,0.9-4.1,3.1
		c-0.2,0.6-0.9,1-1.5,0.8c-0.1,0-0.2-0.1-0.3-0.1c-1.6-1-3.6-1.6-4.2-3.6c-0.3-0.9-0.4-2.4,0.2-3.1c3.3-3.8,0-3.1-2.1-3.2
		C189.8,188.2,194.5,184.6,200.2,182.7z"/>
	<path class="st1" d="M294.9,69.3c4.3,0.6,5,5.1,7.8,7.3c2.6,2.1,4.2,5.1,6.1,7.8c0.6,0.8,1.1,1.6,2.2,1.2c-1,4.1,0.7,8.3-0.3,12.5
		c-4.2-6.5-8.5-13-11-20.6c-0.7-2.2-2.5-4.2-4-6.1C295.2,70.9,294.9,70.1,294.9,69.3L294.9,69.3z"/>
	<path class="st0" d="M341.4,244.3c-4.5-0.5-7.7-3.9-12-4.9c-4.1-0.9-8.4-3.1-12.3-2.5c-4.5,0.8-8.7-0.6-12.9,0
		c11.8-2.6,23.6-3.2,35.2,1.2c0.8,0.3,1.4-0.2,2-0.3C341.5,240,341.4,242.2,341.4,244.3z"/>
	<path class="st1" d="M147.8,323.3c0.6,2.4,2.5,1.1,3.8,1.3c1,0.2,2.7-1.4,3,0.1c0.4,1.9-1.8,1.2-2.8,1.8c-0.2,0.1-0.3,0.6-0.4,0.9
		l-18.1,0C137.4,323.5,142.4,322.9,147.8,323.3L147.8,323.3z"/>
	<path class="st0" d="M62.2,294c2.6-1.7,4.2-4.3,6.3-6.5c0.5-0.5,0.9-1.7,1.9-0.8c0.6,0.6,0.7,1.6,0.2,2.3c-3.6,5-7.8,9.5-10.7,14.9
		c-0.2,0.4-1,0.4-1.6,0.6C58.6,300.7,60.8,297.5,62.2,294z"/>
	<path class="st1" d="M341.4,211.4c-10.5,0.6-20.9,2.4-30.9,5.5c4.5-3.2,9.8-4.9,15.3-4.9c-0.3-1.3-2.3-0.2-2.3-2.1
		c6,1.4,12,0.3,18,0L341.4,211.4z"/>
	<path class="st0" d="M295.6,159.7c-0.4-0.3-1.1-0.6-1.1-0.8c1-4.8-0.8-10.4,4.5-14c1.6-1.1,2.1-0.6,3,0.4
		C299.1,149.8,299.7,155.8,295.6,159.7z"/>
	<path class="st1" d="M164.5,202.5c-6.5,1.9-13.1,3.2-19.8,4.1c0.8-1.9,2.6-2.3,4.2-2.8c4.1-1.1,8.1-2.1,12.2-3
		C162.6,200.5,164.4,200,164.5,202.5z"/>
	<path class="st1" d="M341.4,217.9c-7.3-0.8-14.7-1.4-22-0.3c7.1-3.1,14.6-2.9,22-3.5L341.4,217.9z"/>
	<path class="st0" d="M311.1,113.6c-0.7,2.1-2.2,1.2-3.5,0.8c-2.3-0.6-4.8-2.3-5.8,1.7c-0.2,0.9-1.5,0.9-2.1,0.4
		c-0.7-0.6-0.8-1.7-0.2-2.5c0,0,0-0.1,0.1-0.1c1.6-2.4,4.4-3.7,7.3-3.4c0.8,0.1,1.6,0.2,2.4,0.3
		C310.2,111.6,310.8,112.5,311.1,113.6z"/>
	<path class="st1" d="M200.8,94.4c7.5-4.8,21.5-5.2,26.1,0c-9.6-4.6-18-4-25.9,2.2C200.9,95.9,199.8,95.3,200.8,94.4z"/>
	<path class="st1" d="M341.4,207.1c-6.3-0.8-12.5,0.9-18.8,0.2c6-2.4,12.4-2,18.7-2.5L341.4,207.1z"/>
	<path class="st1" d="M179.3,197c0.7,3.8-1.8,3.8-4.4,3.5c-0.5-1-2.5,0-2.3-1.4c0.1-1.2,1.6-1,2.6-1.2
		C176.6,197.7,178,197.3,179.3,197z"/>
	<path class="st1" d="M201,96.8c2.3,0.8,3.8,2,1.7,4.7l-2.7-2.3C200,98.2,199.8,97.2,201,96.8z"/>
	<path class="st1" d="M190.8,72.2l-3.1,4.9C187.5,75,188.8,72.9,190.8,72.2z"/>
	<path class="st1" d="M187.8,80.1c0.6,0.6,0.8,1.5,0.6,2.3c-0.8-0.4-1.1-1.3-0.7-2.1C187.7,80.2,187.7,80.2,187.8,80.1z"/>
	<path class="st1" d="M191,86.5c0.7,0,1.3,0.6,1.3,1.3C191.6,87.7,191.1,87.3,191,86.5z"/>
	<path class="st1" d="M311.6,81.5c-1.1-0.7-0.9-1.1,0.2-1.5c0.4,0.4,0.3,1-0.1,1.4C311.7,81.4,311.7,81.4,311.6,81.5z"/>
	<path class="st2" d="M226.7,60.1c-0.7-0.8-1.6-1.6,0-2.4c1.4,0.8,2.9,2.1,3.8-0.5c1.3,0.6,3.1,1,3.9,2c1.9,2.2,4.2,1.5,5.7,0.5
		c2.6-1.7,4.6-3.9,7.9-1.8c0.4,0.2,1.1-0.1,1.7-0.2l-0.1,2.3c-2.9,4.4-7.3,3.3-11.5,3.7c-2.7,0.4-5.5,0.5-8.2,0.4
		c-1.5-0.1-3-0.3-1.9-2.5C228.2,60.4,228,59.8,226.7,60.1z M230.9,61.2c0.3,0.1,0.7,0.2,1,0.2c0.5-0.1,1.5-0.2,0.7-1
		C232.1,59.9,231.3,60.5,230.9,61.2L230.9,61.2z"/>
	<path class="st1" d="M249.7,49.2c2.3-0.9,2.3-0.9,2.9,0.3c-2.2,1.1-0.2,2.7-0.4,4c-0.2,0.1-0.5,0.4-0.6,0.3c-3-2.1-6.2-0.6-9.2-0.3
		c-2.5,0.2-1.7-1.6-2.3-2.7c-0.9-1.5,0.4-1.4,1.1-2.1c1.7-1.5,2.7-2,4.3,0.1c0.6,0.9,2.1,1,3.3,0.9c0.2,0.3,0.4,0.6,0.7,0.3
		S249.6,49.5,249.7,49.2z"/>
	<path class="st1" d="M241.8,90.8c-1.1,1.8-2.3,3.5-3.4,5.3c-0.4,0.7-0.8,1.2-1.6,1.2h-9.6c0.1-1.9,1.6-1.6,2.4-1.8
		C233.9,94.5,238.1,93.5,241.8,90.8L241.8,90.8z"/>
	<path class="st2" d="M226.2,51.2l2.7-0.7c1.3,1.8-1.8,3.2-0.4,5c-0.8,0.2-1.7,0.4-1.9,1.5C223.5,56.4,223.5,55.5,226.2,51.2z"/>
	<path class="st2" d="M231.1,50c1.4,0.1,2.2-0.8,2.8-1.9c1,0.5,1.7,1.5,3.1,1.5c-1.5,1.8-2,4.5-4.6,4.2
		C232,53.8,230.3,51.8,231.1,50z"/>
	<path class="st1" d="M250.5,88.4c4-0.7,8.1-0.4,11.8,1.1c0.7,0.3,1.5,0.6,1.2,1.4s-1.2,0.7-1.8,0.2
		C258.4,88.6,254.4,88.8,250.5,88.4z"/>
	<path class="st2" d="M273.4,96.5c-2.4-0.5-5.1,1-7.1-1.3c2.8-0.3,5.6-0.8,8.5-0.3l-0.1,1.4L273.4,96.5z"/>
	<path class="st1" d="M249.6,59.9l0.1-2.3c1-0.3,1.8-1.9,3-0.6c0.6,0.5,0.7,1.3,0.3,2C252.2,60.4,250.9,60.1,249.6,59.9z"/>
	<path class="st2" d="M252.2,53.6c0.2-1.3-1.8-2.9,0.4-4c3.8,1.7,2.2,3.6,0.2,5.5c0.3-0.5,0.3-1-0.5-0.8L252.2,53.6z"/>
	<path class="st1" d="M226.7,57.1c0.1-1.1,1-1.3,1.9-1.5c0.9,0.1,1.6,0.7,1.9,1.5c-0.9,2.6-2.4,1.4-3.8,0.5
		C226.5,57.5,226.6,57.3,226.7,57.1z"/>
	<path class="st1" d="M207.2,94.1c1.2,0.9,1.1,1.8,0.4,3C206.1,96.2,207.1,95.1,207.2,94.1z"/>
	<path class="st1" d="M207.8,100.2c-0.1,0.4-0.6,0.7-1,0.5c0,0-0.1,0-0.1,0c-0.5-0.1-0.8-0.7-0.6-1.1c0-0.1,0-0.1,0.1-0.2
		c0.2-0.3,0.5-0.4,0.8-0.4c0.5,0.1,0.9,0.6,0.9,1.1C207.8,100.2,207.8,100.2,207.8,100.2z"/>
	<path class="st1" d="M226.7,60.1c1.3-0.3,1.6,0.4,1.3,1.5C227,61.5,226.4,61.2,226.7,60.1z"/>
	<path class="st2" d="M249.7,49.2c0,0.3,0.1,0.8-0.1,0.9s-0.5,0-0.7-0.3L249.7,49.2z"/>
	<path class="st1" d="M252.3,54.3c0.8-0.2,0.8,0.3,0.5,0.8L252.3,54.3z"/>
	<path class="st1" d="M241.8,90.8l0.3-0.3c0,0.1,0,0.2-0.1,0.2C242,90.8,241.9,90.8,241.8,90.8L241.8,90.8z"/>
	<path class="st1" d="M294.9,69.3l-0.3-0.2L294.9,69.3L294.9,69.3z"/>
	<path class="st2" d="M167.1,280.2c-2-1.1-3.9-0.1-5.8,0.3c-4.1,0.9-8.1,1.9-12.4,1.1l29.2-9.4l-0.1-0.5h-11.3V271
		c3.4,0,6.8-0.1,10.2,0c2,0.1,4-0.3,5.8-1.2c0.2,0.1,0.4,0.1,0.6,0.2c-0.2,1.6-2.2,1.8-2.5,3.3C175.6,274.3,171.2,277,167.1,280.2z"
		/>
	<path class="st1" d="M258.3,302.5c1.5-0.1,3,0.6,3.6,2C260,304.4,258.7,304.4,258.3,302.5L258.3,302.5z"/>
	<path class="st1" d="M147.8,323.3l0.1-0.3L147.8,323.3L147.8,323.3z"/>
	<path class="st1" d="M199.6,208.5c4.4,1.3,9,1.3,12.9,3.4c1.3,0.7,2.4,0.3,3.8-0.8c4.7-3.6,5.7-9,7.5-14c0.5-1.4-0.2-2.7-0.8-3.8
		c-2.9-5.1-2.8-10.7-2.6-17c0.7,1.7,1.6,2.7,1.6,3.7c0,3.6,1.9,4.9,5.1,5.5c3.7,0.8,0.2,3.5,1.2,5.1c0.7,1.3,5,0,2.5,3.7
		c-1.5,2.2,1.1,3.8,2.3,5.3c0.4,0.5,1.9,0.5,2.1-0.5c0.7-3.8,2.5-2.6,4.4-1.2c0.8,0.6,1.6,0.1,1.6-0.6c0-2.5,2.3-2.6,3.2-3.4
		c2.6-1-2,5.1,2.7,1.8c0.3,2.8-1.1,5.4-3.5,6.8c-7.9,4.7-15.8,9.3-23.7,13.9c-0.7,0.4-1.4,0.9-2.3,0.3c-5.4-3.2-11.3-5.1-17.1-7.2
		C200.1,209.4,199.9,208.8,199.6,208.5z"/>
	<path class="st1" d="M245.9,235.4c1.2-0.5,2.5-0.6,3.8-0.5c7.4,0.8,14.8,1.5,22.1,2.5c1.4,0.2,2.8-1,4.1,0.1c0,1-0.1,2-0.1,3
		c-9.3-0.2-18.6-0.8-27.9-1.9c-1.9-0.3-2.2-1.5-1.9-3.1L245.9,235.4z"/>
	<path class="st1" d="M249.6,261.7c-1.7,0-3.2-1-3.9-2.5c-0.6-1.4,3.6-4.7,5.6-4.5c1.5,0.1,2.6,1.5,2.5,3c0,0.1,0,0.2,0,0.2
		C253.6,260.2,252.2,261.8,249.6,261.7z"/>
	<path class="st1" d="M218.1,234.7c-2.7-1.8-5.4-3.6-3-7.1c0.9-1.4,2.6-1.5,4.1-0.3C222.8,230.3,219.9,232.4,218.1,234.7z"/>
	<path class="st2" d="M284.1,206.4c0.4-1.6,0.6-2.8,1-4c0.5-1.8,3.9-2.8,5.3-1.5c1.1,1,1.6,2.5,0,3.1
		C288.4,204.7,286.9,206.7,284.1,206.4z"/>
	<path class="st2" d="M253.4,220.8c1.2,1.4,2.3,2.8,3.8,0c0.6-1.1,2.3-0.8,3.8-0.3c-0.8,1.8,0,4.6-3.4,4.4c-1.1-2-3.5-1.1-5-2.3
		l0.1-1.5L253.4,220.8z"/>
	<path class="st2" d="M245.9,235.4l0.1,0.1c-1.9,3.3-4.9,2.3-7.8,2.2c-0.5-0.6-1.8-0.8-1.1-2.1c0.3-0.9,1.2-1.5,2.1-1.4l5.9,0.4
		L245.9,235.4z"/>
	<path class="st2" d="M252.3,233.7c1-2.7,5.1-4.1,7.7-2.8c1.7,0.9,0,2.3,0.5,3.4l-4.8-0.1c-0.7-0.5-1.6-0.5-2.3-0.2L252.3,233.7z"/>
	<path class="st1" d="M237.4,183.8c-1.8-3-0.7-4.9,1.7-6.4c0.9-0.6,1.2,0.3,1.6,0.9C242.3,181.7,239.6,182.5,237.4,183.8z"/>
	<path class="st2" d="M275.8,240.5c0-1,0.1-2,0.1-3c2-0.7,4-0.2,5.9-0.3l-1.4,3.5L275.8,240.5z"/>
	<path class="st1" d="M252.7,221.2l-0.1,1.5c-1.8,0.9-3.9,0.9-5.8,0.2l1.3-3.6C249.9,219.4,251.7,219.5,252.7,221.2z"/>
	<path class="st2" d="M248.2,219.3l-1.3,3.6c-1.3-0.8-4.1,1.1-3.9-2.2l3.1-1.4L248.2,219.3z"/>
	<path class="st1" d="M288.4,230.9c-1.8,0.5-3.5-0.3-5.3-0.6c0.2-1,0.6-1.9,1.4-2.5c1.4,0.1,2.8-0.3,4.1,0.4L288.4,230.9z"/>
	<path class="st1" d="M280.5,240.7l1.4-3.5h3.9C285.5,240.9,283.3,241.3,280.5,240.7z"/>
	<path class="st2" d="M284.5,227.8c-0.7,0.7-1.2,1.6-1.4,2.5c-0.7,0.6-1.7,0.7-2.5,0.4c0.1-1.1-0.1-2.2-0.6-3.2
		C281.5,228.3,283.1,225.4,284.5,227.8z"/>
	<path class="st2" d="M282.6,210.6c-1.6-0.5-3.2,2.5-4.9,0c1.2-2,3.3-1.5,5-1.5C284,209.2,282.4,210.1,282.6,210.6z"/>
	<path class="st1" d="M280.6,232.9c2.2-1.4,3.4,2,5.6,1.3c0.1,0,0.2,1.4-0.4,1.4c-1.6,0.2-3.2,0.1-4.8-0.2
		C279.8,235.1,280.7,233.8,280.6,232.9L280.6,232.9z"/>
	<path class="st2" d="M292.5,221.8c0.7,1.1-1.2,2-0.4,3.2v0.3l-2.8,0.3l-0.1-0.1c0-1.3,1.7-1.7,1.5-3.1
		C291.2,221.6,291.9,221.8,292.5,221.8z"/>
	<path class="st1" d="M178.8,252.4c2.7,0,5.4-0.5,8.3,0.2C185.2,253.7,185.2,253.7,178.8,252.4z"/>
	<path class="st2" d="M288.4,230.9l0.1-2.7l0.9-0.8l1.8-0.2C290.9,228.8,291,230.8,288.4,230.9z"/>
	<path class="st1" d="M291.3,227.1l-1.8,0.2c0-0.6,0-1.2,0-1.8l2.8-0.3C292.7,226.2,291.9,226.7,291.3,227.1z"/>
	<path class="st1" d="M198.2,206.4c0.1,0.6-0.2,0.7-0.5,0.6c-0.3-0.1-0.6-0.3-0.7-0.5c-0.1-0.4,0.1-0.6,0.5-0.5
		C197.7,206,198,206.2,198.2,206.4z"/>
	<path class="st1" d="M253.2,234c0.7-0.4,1.6-0.3,2.3,0.2C254.8,234.5,253.9,234.4,253.2,234z"/>
	<path class="st1" d="M251.5,267c0.1,0.1,0.2,0.2,0.2,0.2c-0.1,0.2-0.2,0.4-0.3,0.5c-0.1-0.1-0.2-0.2-0.2-0.2
		C251.3,267.3,251.4,267.2,251.5,267z"/>
	<path class="st0" d="M291.6,250.7c4.5-2.2,9-0.8,13.2-0.1c5.5,0.8,10.9,2.3,16,4.5c5.1,2.4,9.8,5.3,14.1,8.8c1.3,1,1.1,2.5-0.8,2.7
		c-2.4,0.4-4.9,0.3-6.9-1c-3.6-2.5-8.1-3.6-11.3-6.8c-1.2-1.2-2.9-0.7-4.4-1.2c-4.9-1.8-9.9-3.4-15.2-3.8
		C294.3,253.5,293.4,251.6,291.6,250.7z"/>
	<path class="st0" d="M289.4,225.5c0,0.6,0,1.2,0,1.8l-0.9,0.8c-1.3-0.6-2.7-0.3-4.1-0.4c-1.4-2.4-3,0.5-4.5-0.2l-2.3-0.4
		c-0.8-1.1-1.6-0.2-2.4,0c-2-1-4.2-0.1-6.2-0.6c-0.9-0.2-2,0.2-2.5-0.8c-0.2-0.3-0.1-0.7,0.1-1c0.9-0.9,1.8-0.1,2.5,0.3
		c1.7,0.9,3.7,0.9,5.5,0.1c1.3,0.1,2.8,1.2,3.7-0.6c0.4-0.8,1.2-1.8,0.6-2.6c-0.8-1.1-1.9-0.4-2.9-0.1c-2.7-2.1-5.9-0.9-8.9-1.2
		c-0.7-0.1-1.3,0.5-1.5-0.6c-0.1-0.8,0.3-1.7,1.1-1.5c5.2,1.4,9-3,13.9-3.4c4.5-0.4,8.9-0.7,13.4-1c1.7-0.1,2.2,0.8,2.8,2.1
		c0.7,1.6-0.8,1.3-1.3,1.9c-0.8,1.3-1.8,2.5-2.9,3.5c-0.6,0-1.3-0.1-1.7,0.6c-2.1-0.5-4.2-1.5-6.5-0.3c-1.1,0.6-1.1,1.4-1,2.3
		s0.8,1.3,1.7,1.3c1.4-0.1,2.8-0.1,4.2-0.2L289.4,225.5z"/>
	<path class="st0" d="M242.9,220.7c-0.2,3.4,2.6,1.4,3.9,2.2c1.9,0.7,4,0.6,5.8-0.2c1.4,1.2,3.9,0.3,5,2.3c-2.9,0.6-5.5,2.3-7,4.9
		c-1,1.7-3.1,2.3-4.8,1.3c-0.3-0.2-0.6-0.4-0.9-0.7c-0.4-0.4-0.6-0.9-1.4-0.8c-1.9,0.2-2.2,0-1.2-1.7c0.7-1.2,0.1-1.5-0.6-1.9
		c-1-0.6-2.6,0.1-2.3,0.6c1.3,2.5-3,3.3-1.6,5.7c0.3,0.4-0.2,1-0.8,0.9c-2.1-0.2-2.6,1.2-3.1,2.7c-0.1,0.6-0.7,1-1.3,0.9
		c-0.1,0-0.3-0.1-0.4-0.1c-0.8-0.4-2-0.3-2.1-1.6c-0.1-1.1,0.4-1.6,1.4-1.6l0.3,0.2l-0.3-0.1C233.8,228.1,237.7,223.5,242.9,220.7z"
		/>
	<path class="st0" d="M290.8,263.8c3.1-0.3,6.2,0,9.2,0.7c1.5,0.4,3,1.3,3,2.6s-1.8,1.1-2.8,1.5c-5.4,2.3-10.2-0.8-15.2-1.6
		c-0.8-0.1-0.8-1.1-0.8-1.8c0-1.1,0.7-1.5,1.6-1.5C287.6,263.8,289.4,263.8,290.8,263.8z"/>
	<path class="st0" d="M260.2,279.4c7.5-0.3,15.1-1.6,22.1,2.3C274.7,282.9,267.5,281.2,260.2,279.4z"/>
	<path class="st0" d="M297.4,274.9c1.6-2.9,4.3-4.3,6.8-6c0.5-0.3,1.6-0.2,1.6,0.2c-0.3,1.5,1.2,2.7,0.8,4.2
		c-0.2,0.7-0.8,1.4-1.6,1.1C302.4,273.2,300,274.1,297.4,274.9z"/>
	<path class="st0" d="M191.5,270.1c-0.9-0.4-2.1-1.5-0.6-1.7c3-0.6,5.1-4.2,8.6-2.3c-0.1,2-1.8,3.6-3.9,3.6L191.5,270.1z"/>
	<path class="st0" d="M276.8,229.9l2.4,1.4h-14.4c3-1.9,6.3-1.1,9.5-0.8C275.2,230.9,276.2,230.6,276.8,229.9z"/>
	<path class="st2" d="M276,221.9c1-0.3,2.1-1,2.9,0.1c0.6,0.9-0.2,1.8-0.6,2.6c-0.9,1.8-2.4,0.7-3.7,0.6
		C274.9,224,276.2,223.2,276,221.9z"/>
	<path class="st2" d="M191.5,270.1l4.1-0.4c0.1,2.6,2.2,1.8,4.4,2.3C196.5,272.3,193.4,273.7,191.5,270.1z"/>
	<path class="st2" d="M262.2,229.4c-1.2-0.1-1.9-0.6-1.4-1.4c0.8-1.2,0.3-3.3,2.3-3.6c1.2-0.1,1,1.1,1,1.8
		C263.9,227.7,263.4,228.9,262.2,229.4z"/>
	<path class="st0" d="M289.6,280.4c1.8-1.2,2.6-4,6.1-3.5C293.7,278.8,292.5,280.9,289.6,280.4z"/>
	<path class="st2" d="M276.8,229.9c-0.6,0.7-1.6,1-2.5,0.7l1-3.4c0.8-0.3,1.6-1.1,2.4,0C277,227.9,276.7,228.9,276.8,229.9z"/>
	<path class="st0" d="M273.6,211.6c-0.2,0.2-0.4,0.5-0.7,0.1c0-0.1,0.2-0.3,0.3-0.5L273.6,211.6z"/>
	<path class="st0" d="M130.6,270.1c-4.8-2.9-9.6-5.7-15.5-5.2c-0.7,0.1-1.4,0-2.1-0.3c-0.7-0.3-1-1.1-0.7-1.8c0.3-0.5,1-0.7,1.6-0.4
		c0,0,0,0,0,0c4,2.9,3.3-0.5,3.3-2.6c2.2-0.3,2.6,2.8,4.3,2c1.3-0.6,0-2.1,0.1-3.4c1.4-0.5,2.4,1.8,3.8,0.6c1.2-1,0.7-2.4,0.9-3.7
		c0.3-2.8,1.5-3.4,4.1-2c2.9,1.5,4.4,0.7,4.5-2.6c0-1.5,0.1-2.7,1.5-4c1.6-1.6,1.9-4,0.7-5.9c-1.2-2-0.8-4.1-1-6.1
		c0,0,0.8-0.3,0.9-0.2c1.2,1.6,1.9,3.6,2,5.6c0.4,3.6,1.5,7.2,1.2,11c-0.1,1.1,0.1,2.2,0.6,3.1c3.1,5.9-0.2,11-1.9,16.4L130.6,270.1
		z"/>
	<path class="st0" d="M111.6,271.6c5-0.3,9,2.5,13.1,4.4c2.9,1.5,6,2.7,9.1,3.7c0.7,0.2,1.5,0.4,1.3,1.3c-0.1,0.5-0.7,0.6-1.1,0.5
		c-7.5-3-15.8-4-22.4-9.2C111.6,272.2,111.6,272,111.6,271.6z"/>
	<path class="st0" d="M147.8,236.5c-1.4,5.7-2.3,11.5-5,17c-2.3-5.4-0.8-13,3.2-16.3C146.4,236.6,147.1,236.3,147.8,236.5
		L147.8,236.5z"/>
	<path class="st2" d="M130.6,270.1l8.3,0.4c-1,2.1-3.4,2.7-4.9,4.3c-0.4,0.5-1,0.5-1.5,0.1c-0.1-0.1-0.2-0.2-0.3-0.4
		C131.7,273.1,128.6,272.5,130.6,270.1z"/>
	<path class="st2" d="M140.7,277.9c-0.2-4.3,1.2-5.4,4.7-5.1c2.3,0.2,4.7-0.9,7.9,0.1C148.9,275.1,144.1,273.7,140.7,277.9z"/>
	<path class="st0" d="M160.8,223.3c0-1.9,1.5-3.4,3.3-3.5c0.5,0,0.9,0.1,1.4,0.3c1.1,0.5,1,1.2,0.6,2c-0.9,1.5-1.8,3-2.8,4.5
		c-0.4,0.5-1,0.7-1.6,0.5c-0.8-0.2-0.9-0.8-0.6-1.4C161.4,224.8,160.8,224.1,160.8,223.3z"/>
	<path class="st2" d="M85.1,275c4.9-1.2,9.6-3.2,14.8-2.5l0.2,1L85.2,276L85.1,275z"/>
	<path class="st2" d="M146,281.9c0.7,0.1,1,0.4,0.8,1c0,0.2-0.5,0.3-0.7,0.3c-0.4-0.1-1-0.2-0.8-0.9
		C145.4,282.1,145.9,282,146,281.9z"/>
	<path class="st0" d="M147.8,236.5l0.1-0.9l0.4,0.2L147.8,236.5L147.8,236.5z"/>
	<path class="st0" d="M241.2,115.1c5.8,1,6.9,6.2,8.2,10.3c1.4,4.3,4.1,7.7,6,11.6c1,2.1,1.8,4.3,0.3,6c-2.4,2.6-1.4,5-0.4,7.5
		c0.4,1,1,1.9,0.4,3.1c-1.2,0.1-1.6-1.1-1.9-1.8c-3.4-6.6-9.3-8.7-16.2-9.1c-2.7-0.2-5.5-0.2-8.2-0.3c-4.1-0.1-7,1.9-9.2,5.1
		c-0.5,0.8-1.1,1.6-1.7,2.3c-1.2,1.1-1.9,0.8-2-0.9c-0.2-2.5-0.3-5-2.3-7c-0.5-0.8-0.6-1.8-0.3-2.7c2.3-5,0.9-11.4,5.5-15.4
		c2.2-2,5.2-4.9,7.5-4.6c3.5,0.4,6.6-0.5,9.9-0.6c1.9,0,3.7,1.8,5.6,2.8c0.6,0.3,1.4,0.7,1.9-0.1c0.2-0.4-0.1-1.1-0.3-1.7
		c-0.4-1.8-2.8-2.3-3-4.3L241.2,115.1z M240,135.3c0.9-0.3,1.5-2.4,2.9-0.4c0.7,1,1,2.7,2.8,3.1c0.8-1.4-0.7-4.6,3-3.7
		c1,0.2,1.3-1.8,0.4-2.5c-1.9-1.6-3.1-6.9-5.9-4c-2.6,2.7-4.7-0.1-6.5,1.4c-0.5,0.4-0.6,1.1-0.3,1.6c0.7,1.1-0.1,2.7,1.4,3.4
		c0.9-0.5,0.1-2.7,1.7-2.2C241.4,132.5,238.8,134.2,240,135.3z M220.1,140c2.4-0.9,0.8-3.3,2-4.4s1.6-3,3.5-2.6
		c0.9,1.3-1.6,3.1,0.5,3.5c2.3,0.4-0.1-1.9,0.9-2.6c0.1-0.1,0.1-0.2,0.2-0.3c2.6-2.9,3.5-5.1-1.9-4.9c-0.2,0-0.4-0.2-0.6-0.3
		c-1.5-1.3-2.6-0.4-3,1C220.9,132.8,218.4,136,220.1,140z M239,136.8c-3.7-0.5-5.6,1.8-8.2,1.4c-0.5-0.1-1,0.3-1,0.8
		c0,0.1,0,0.2,0,0.3c0.1,0.6,0.6,0.7,1,0.8C233.7,140.1,236.2,139.2,239,136.8L239,136.8z M230.3,136.6c0.9-0.7,1.5-1.6,1.9-2.6
		c0.2-0.4-0.4-1.2-0.6-1c-0.9,0.8-2.7,0.6-2.6,2.4C229,136.1,229.2,136.5,230.3,136.6L230.3,136.6z"/>
	<path class="st0" d="M296.9,134.9c1.9-3.8,1.2-7.4-1.2-10.7c-1.9-2.7-1.1-5.2,0-8c0.6,2.8,2.1,3.9,4.9,4.3c3,0.4,4.1,6.6,2.1,10.2
		c-0.6,1.1-1.9,1.9-1.1,3.5c0.2,0.5-0.3,1.2-0.5,0.7C299.5,132.3,298.3,136,296.9,134.9z"/>
	<path class="st0" d="M226.8,152.8c0.4-1.8,3.1-3.6-0.6-4.1c-1-0.1-0.4-1.2-0.1-1.7c2-2.8,5-2.6,7.8-2.1c2.5,0.4,5,1.3,5.5,4.3
		c0.2,1.4,1.1,3.2-2.1,2.9S230.6,152.5,226.8,152.8z"/>
	<path class="st0" d="M272.6,171.6c-0.5-1.3-0.1-2.8,0.9-3.7c3.6-4.8,2.2-10.4,2.7-15.7c0.3-2.8,1.7-3,3.5-2.4
		c1.4,0.6,2.7,1.4,3.8,2.6c1.6,1.7-0.4,2.7-1.2,3.9C279.2,161.2,276,166.2,272.6,171.6z"/>
	<path class="st0" d="M294,181.1c-1.7,0-3.3,0-5-0.1c-0.8,0-1.8,0.4-2.3-0.4c-0.7-1,0.3-1.8,0.7-2.6c1-2.1,3.4-2.5,5.1-3.7
		c0.4-0.3,1-0.3,1.3,0.1c0.1,0.1,0.1,0.2,0.2,0.3c0.5,1.9,2.6,3.2,2.4,5.4L294,181.1z"/>
	<path class="st0" d="M279.1,170.5c1.9,2.5,1.3,3.8-1.6,5c-1.7,0.7-2.8,2.7-5.3,2.5C275.8,176.5,274.3,170.8,279.1,170.5
		L279.1,170.5z"/>
	<path class="st0" d="M280.5,170.5c1.8-0.8,2.5-2.8,3.9-4c0.8-0.6,1.9-1.5,2.8-0.2s-0.2,1.9-1,2.3
		C284.5,169.5,283.2,172,280.5,170.5L280.5,170.5z"/>
	<path class="st0" d="M291.6,142.4c0.9,0.4,0.9,1.2,1.1,1.9c0.2,1,1.8,1.8,0.8,3c-0.1,0.1-0.9,0-1.2-0.3c-1.1-0.9-2.2-1.9-1.3-3.6
		C291.1,143,291.4,142.7,291.6,142.4z"/>
	<path class="st0" d="M273.4,96.5l1.2-0.2c2.3,1.3,5.3,1.2,7.4,3.1l0,0C278.9,99.2,275.8,98.6,273.4,96.5z"/>
	<path class="st2" d="M294,181.1l2.2-0.8c1.2,0.5,3-0.3,3.5,2C297.7,182.1,295.7,182.3,294,181.1z"/>
	<path class="st2" d="M205.5,122.4c-0.1-2-0.9-3.4,0.4-4.7c0.1-0.1,0.9,0.1,0.9,0.2C206.8,119.3,207,120.9,205.5,122.4z"/>
	<path class="st0" d="M279.1,170.5c0-1.8,0.1-3.5,2.5-4c0.1,1.6-1.7,2.5-1,4l0,0H279.1z"/>
	<path class="st0" d="M241,115.3c-0.4-0.2-0.7-0.4-1.1-0.7c0,0,0.1-0.5,0.2-0.5c0.8-0.2,0.9,0.5,1.1,1L241,115.3z"/>
	<path class="st0" d="M229.6,159l0.2-0.3L229.6,159L229.6,159z"/>
	<path class="st0" d="M282,99.4l0.3,0.4L282,99.4L282,99.4z"/>
	<path class="st1" d="M230.9,61.2c0.5-0.7,1.2-1.3,1.7-0.8c0.8,0.7-0.2,0.9-0.7,1C231.5,61.4,231.2,61.3,230.9,61.2z"/>
	<path class="st1" d="M289.3,225.5c-1.4,0.1-2.8,0.1-4.2,0.2c-0.9,0.1-1.6-0.2-1.7-1.3s-0.1-1.7,1-2.3c2.3-1.2,4.3-0.2,6.5,0.3
		C291,223.8,289.4,224.2,289.3,225.5z"/>
	<path class="st1" d="M231.7,233.6l0.3,0.1L231.7,233.6L231.7,233.6z"/>
	<path class="st1" d="M240,135.3c-1.2-1.1,1.4-2.7-0.5-3.4c-1.6-0.5-0.8,1.7-1.7,2.2c-1.5-0.7-0.8-2.4-1.4-3.4
		c-0.3-0.5-0.2-1.2,0.3-1.6c1.8-1.5,3.9,1.4,6.5-1.4c2.8-2.9,4,2.4,5.9,4c0.9,0.8,0.5,2.8-0.4,2.5c-3.7-0.9-2.2,2.3-3,3.7
		c-1.8-0.4-2-2-2.8-3.1C241.5,132.9,240.8,135,240,135.3z"/>
	<path class="st1" d="M220.1,140c-1.8-4.1,0.7-7.3,1.7-10.6c0.4-1.3,1.5-2.3,3-1c0.2,0.1,0.4,0.4,0.6,0.3c5.4-0.2,4.6,2,1.9,4.9
		c-0.1,0.1-0.1,0.2-0.2,0.3c-1.1,0.6,1.4,3-0.9,2.6c-2.1-0.4,0.3-2.2-0.5-3.5c-2-0.4-2.5,1.6-3.5,2.6S222.5,139.1,220.1,140z"/>
	<path class="st1" d="M239,136.8c-2.8,2.4-5.3,3.3-8.2,3.3c-0.5,0-1-0.1-1-0.8c-0.1-0.5,0.2-1,0.7-1.1c0.1,0,0.2,0,0.3,0
		C233.4,138.6,235.4,136.3,239,136.8z"/>
	<path class="st1" d="M230.3,136.7c-1-0.1-1.3-0.6-1.3-1.3c-0.1-1.8,1.8-1.6,2.6-2.4c0.2-0.2,0.8,0.6,0.6,1
		C231.8,135.1,231.1,136,230.3,136.7z"/>
</g>
</svg>
