<svg id="图层_1" data-name="图层 1" xmlns="http://www.w3.org/2000/svg" viewBox="0 0 347 428"><defs><style>.cls-1,.cls-3,.cls-4{fill:none;}.cls-1,.cls-2,.cls-3,.cls-4,.cls-5,.cls-6,.cls-7,.cls-8,.cls-9{stroke:#68584c;stroke-miterlimit:10;}.cls-1{stroke-width:0.25px;}.cls-2,.cls-5,.cls-6{fill:#fff;}.cls-4,.cls-5,.cls-6,.cls-9{stroke-width:0.5px;}.cls-6{stroke-linecap:round;}.cls-8{stroke-width:0.75px;}</style></defs><title>timeline_01</title><line class="cls-1" x1="162.5" y1="59.5" x2="167.5" y2="56.5"/><path class="cls-2" d="M125.5,307.5l38,1s1,3-1,4-17,5-20,8v43h-19Z"/><path class="cls-2" d="M203.5,307.5l-38,1s-1,3,1,4,17,5,20,8v43h19Z"/><path class="cls-2" d="M109.5,151.5s-1-9,7-13,19-6.5,19-6.5l67,.5,15,7s3,0,6,14-10,10-10,10l-104-3Z"/><path class="cls-2" d="M139.5,130.5a21.06,21.06,0,0,1,6-8c4-3,17-9,20-10a6.93,6.93,0,0,1,5,0s13,8,17,11S193,132,193,132Z"/><polygon class="cls-2" points="143.5 128.5 167.5 117.5 197.5 132.5 167.5 132.5 143.5 128.5"/><rect class="cls-3" x="135.5" y="137.5" width="65" height="14" rx="7" ry="7"/><rect class="cls-3" x="132.5" y="129.5" width="72" height="24" rx="12" ry="12"/><path class="cls-2" d="M119,213h8s-1-36,37-40V160H119Z"/><path class="cls-2" d="M215.5,213.5h-8s1-36-37-40v-13h45Z"/><line class="cls-2" x1="68.5" y1="291.5" x2="110.5" y2="291.5"/><rect class="cls-2" x="70.5" y="301.5" width="37" height="6"/><rect class="cls-2" x="70.5" y="315.5" width="37" height="5"/><line class="cls-2" x1="262.5" y1="291.5" x2="220.5" y2="291.5"/><rect class="cls-2" x="223.5" y="301.5" width="37" height="6" transform="translate(484 609) rotate(-180)"/><rect class="cls-2" x="223.5" y="315.5" width="37" height="5" transform="translate(484 636) rotate(-180)"/><path class="cls-2" d="M130.5,128.5s2,6,8,6,64,1,64,1a6.29,6.29,0,0,0,3-7Z"/><path class="cls-2" d="M106.5,159.5s-8,7-1,17v17s-4,2-3,9c0,0-8,1-6,14h26v-59Z"/><path class="cls-4" d="M110.5,160.5s-8,7-1,17v17s-4,2-3,9c0,0-8,1-6,14"/><path class="cls-2" d="M226.5,159.5s8,7,1,17v17s4,2,3,9c0,0,8,1,6,14h-26v-59Z"/><path class="cls-4" d="M223.5,160.5s8,7,1,17v17s4,2,3,9c0,0,8,1,6,14"/><rect class="cls-2" x="105.5" y="156.5" width="121" height="9" rx="4.5" ry="4.5"/><path class="cls-2" d="M64,219v63h8s17-17,36,1h20V221Z"/><rect class="cls-5" x="66.5" y="219.5" height="66"/><rect class="cls-4" x="117.5" y="219.5" width="8" height="64" transform="translate(243 503) rotate(180)"/><path class="cls-2" d="M267.5,219.5v63h-8s-17-17-36,1h-20v-62Z"/><rect class="cls-5" x="264.5" y="216.5" height="66"/><rect class="cls-4" x="205.5" y="220.5" width="8" height="64" transform="translate(419 505) rotate(180)"/><path class="cls-2" d="M60.5,215.5s-1,5,2,7h68l2-6Z"/><polygon class="cls-2" points="56.5 284.5 55.5 363.5 71.5 363.5 71.5 284.5 56.5 284.5"/><path class="cls-2" d="M271.34,215.5s1,5-2,7h-68l-2-6Z"/><path class="cls-2" d="M57,239s-1,7,3,10h70s6-5,6-10Z"/><path class="cls-2" d="M273.89,239.5s1,7-3,10h-70s-6-5-6-10Z"/><polygon class="cls-2" points="275.7 284.5 276.7 363.5 260.7 363.5 260.7 284.5 275.7 284.5"/><path class="cls-2" d="M56.5,281.5s-2,3,0,5h18s3-1,0-5Z"/><path class="cls-4" d="M64.5,298.5h1a2,2,0,0,1,2,2v62.15a.85.85,0,0,1-.85.85H63.24a.74.74,0,0,1-.74-.74V300.5a2,2,0,0,1,2-2Z"/><path class="cls-2" d="M275.7,281.5s2,3,0,5h-18s-3-1,0-5Z"/><path class="cls-4" d="M140.33,363.5l.17-44s12-7,23-9"/><path class="cls-4" d="M188.5,363.5l-.17-44s-12-7-23-9"/><path class="cls-2" d="M126.75,302.5l37.12.5s1.19,4-3.56,6H127Z"/><path class="cls-2" d="M205.11,302.5l-39,.5s-1.25,4,3.74,6H204.8Z"/><path class="cls-2" d="M58.5,296.5s0,4,4,4h12a3.1,3.1,0,0,0,2-4Z"/><polygon class="cls-2" points="107.5 284.5 106.5 363.5 130.5 363.5 127.5 284.5 107.5 284.5"/><path class="cls-4" d="M265.63,298.5h3.5a.57.57,0,0,1,.57.57V361.5a2,2,0,0,1-2,2h-1a2,2,0,0,1-2-2V299.43A.93.93,0,0,1,265.63,298.5Z" transform="translate(534.41 662) rotate(-180)"/><path class="cls-2" d="M106.73,282.5s-2.51,3,0,5h22.6s3.77-1,0-5Z"/><path class="cls-2" d="M273.7,296.5s0,4-4,4h-12a3.1,3.1,0,0,1-2-4Z"/><path class="cls-2" d="M103.5,297.5s0,4,3,5h23s5-1,4-5Z"/><polygon class="cls-2" points="223.63 284.5 224.63 363.5 200.63 363.5 203.63 284.5 223.63 284.5"/><rect class="cls-4" x="110.5" y="305.5" width="4" height="58" rx="2" ry="2"/><path class="cls-2" d="M224.41,282.5s2.51,3,0,5h-22.6s-3.77-1,0-5Z"/><path class="cls-2" d="M227.63,297.5s0,4-3,5h-23s-5-1-4-5Z"/><rect class="cls-4" x="216.63" y="305.5" width="4" height="58" rx="2" ry="2" transform="translate(437.26 669) rotate(-180)"/><rect class="cls-5" x="120.5" y="305.5" width="4" height="58" rx="2" ry="2"/><path class="cls-4" d="M132.89,62.92s15.47-13.72,26.54-19.07l3.07-4.35s-21,9-32,21Z"/><path class="cls-4" d="M135.46,68.81s8-12.31,20-16.31v5A40.78,40.78,0,0,0,136,73.5Z"/><path class="cls-4" d="M142.5,73.5c-.85,2.55-5.32,4.25-6.65,4.71-.16,1.41-.35,2.29-.35,2.29a5.76,5.76,0,0,0,3.18-.14c1.25-1.21,2.91-2.8,4.61-4.36a30.6,30.6,0,0,1,2.21-2.5,16.77,16.77,0,0,1,4-2.67h0c4-2.67,14-7.33,14-7.33l-2-3C151.5,64.5,143.5,70.5,142.5,73.5Z"/><rect class="cls-5" x="206.63" y="305.5" width="4" height="58" rx="2" ry="2" transform="translate(417.26 669) rotate(180)"/><line class="cls-1" x1="163.5" y1="64.5" x2="167.5" y2="62.75"/><path class="cls-3" d="M163.5,36.5v29s-14,4-18,8-5,8-10,7c0,0,3-14-5-20C130.5,60.5,138.5,46.5,163.5,36.5Z"/><polygon class="cls-5" points="163.5 37.5 150.5 56.5 163.5 64 163.5 37.5"/><rect class="cls-2" x="166.5" y="28.5" width="2" height="90"/><circle class="cls-5" cx="89" cy="263" r="5.5"/><circle class="cls-5" cx="242" cy="263" r="5.5"/><polygon class="cls-6" points="159.86 54.43 161.04 51.43 158.55 52.8 158.41 52.87 155.79 50.57 156.33 54.01 153.95 55.32 156.69 55.86 157.18 59.02 158.79 56.34 162.13 56.42 159.86 54.43"/><line class="cls-7" x1="31.5" y1="363.5" x2="303.5" y2="363.5"/><line class="cls-8" x1="39.5" y1="369.5" x2="290.5" y2="369.5"/><line class="cls-9" x1="105.5" y1="375.5" x2="227.5" y2="375.5"/></svg>