<?xml version="1.0" encoding="utf-8"?>
<!-- Generator: Adobe Illustrator 21.1.0, SVG Export Plug-In . SVG Version: 6.00 Build 0)  -->
<svg version="1.1" id="图层_1" xmlns="http://www.w3.org/2000/svg" xmlns:xlink="http://www.w3.org/1999/xlink" x="0px" y="0px"
	 viewBox="0 0 272 268" style="enable-background:new 0 0 272 268;" xml:space="preserve">
<style type="text/css">
	.st0{fill:none;stroke:#67574B;stroke-miterlimit:10;}
</style>
<title>timeline</title>
<g>
	<g id="g3098">
		<path id="path3100" class="st0" d="M147,116c15.7,0,30.2,8.4,38.2,21.9l45.9,0.1v-24.6c0-9.2-7.4-16.6-16.6-16.6H43.4
			c-9.1,0-16.5,7.4-16.5,16.6l0,24.4l81.9,0.1C116.8,124.3,131.3,116,147,116"/>
	</g>
	<g id="g3102">
		<path id="path3104" class="st0" d="M69.8,89H54.6l-1.8,5.5h18.2L69.8,89z"/>
	</g>
	<g id="g3106">
		<path id="path3108" class="st0" d="M207,86h-20.2l-3.6,8.5h27.1L207,86z"/>
	</g>
	<path id="path3110" class="st0" d="M137.5,91.6H120v-8.4h17.4L137.5,91.6z M153.5,79.7h-49.3L94.1,94.6h68.7L153.5,79.7z"/>
	<g id="g3112">
		<path id="path3114" class="st0" d="M187.6,142.3c2.6,5.7,4,12,4,18.3c0.4,24.6-19.3,44.9-43.9,45.2s-44.9-19.3-45.2-43.9
			c0-0.4,0-0.9,0-1.3c0-6.3,1.4-12.6,4-18.3H26.9v67.2c0,9.1,7.4,16.5,16.5,16.5c0,0,0,0,0,0h171.1c9.1,0,16.6-7.4,16.6-16.5
			l0.1-67.2L187.6,142.3z"/>
	</g>
	<g id="g3116">
		<path id="path3118" class="st0" d="M171.3,145.9c-0.7-1.3-1.6-2.4-2.5-3.5c-9.8-12-27.5-13.8-39.6-4c-1.5,1.2-2.8,2.5-4,4
			c-1,1.1-1.8,2.3-2.6,3.6c-2.7,4.4-4.2,9.5-4.2,14.6c0,15.8,12.8,28.5,28.5,28.5c15.7,0,28.5-12.8,28.5-28.5
			C175.5,155.4,174.1,150.3,171.3,145.9"/>
	</g>
</g>
</svg>
