<svg id="图层_1" data-name="图层 1" xmlns="http://www.w3.org/2000/svg" viewBox="0 0 281 378"><defs><style>.cls-1{fill:none;}.cls-1,.cls-2,.cls-3{stroke:#67574b;}.cls-1,.cls-2{stroke-linecap:round;stroke-linejoin:round;}.cls-2,.cls-3{fill:#fff;}.cls-3{stroke-miterlimit:10;}</style></defs><title>timeline</title><path class="cls-1" d="M180,261.73s-2,8,2,9.32,4.66-5.33,2.66-11.32S180,261.73,180,261.73Z"/><path class="cls-2" d="M53.43,319.58c7.67,9.76,21.66,13.09,33.64,17.09,6,1.33,12.66.67,18.65,2.66,30.64.67,58.61-8,89.25-15.32,1.33,0,2.66,0,3.33.67s.67,2,1.33,3.33c3.33,4.66,9.32,4.66,14,1.33.67-.67,2-2,2-3.33-4-9.32-17.32-7.33-26-6.66-2,0-3.33.67-5.33,1.33a8.27,8.27,0,0,0-3,.33"/><path class="cls-2" d="M151,215.94c1.92-2.31,4.79-2.94,7.33-4.16,3.44-1.67,6.89-3.31,10.32-5a5.51,5.51,0,0,1,2.87-.64c.73,1.51.37,2.93.47,4.32.15,2.2,1.69,3.43,3.65,2.63a11.9,11.9,0,0,0,7-7.31c.91-2.64-.32-4.84-2.94-6.31-5.36-3-10.5-1.65-15.66.65-9.21,4.11-18.2,8.69-27.59,12.45a58,58,0,0,1-27.34,3.77c-3.83-.35-7.57-1.84-11.32-2.93a8.59,8.59,0,0,0-3-.3"/><path class="cls-2" d="M103.06,231.76c-2.78-5.22-6.07-10.23-8.23-15.69C88.78,200.75,83.76,185,77.23,169.9c-5-11.48-13.7-20-26.13-23.7-5.6-1.69-11.1-1.53-16.33,1.61-3,1.8-3.78,5-5.18,7.75-.78,1.51.8,3.17,2.2,4.26a97.93,97.93,0,0,0,11.33,7.32,20.13,20.13,0,0,1,9.66,12.67c3.5,12.78,8.57,25,12.67,37.63.85,2.6,2,5.12,3,7.66a3.7,3.7,0,0,1-.17,3.67c-.7,1.06-.21,2.25-.1,3.32a4.19,4.19,0,0,0,1.29,2.63c6,4.83,7,12.28,9.94,18.7,3.47,7.53,8.12,13.72,16.66,16a45.68,45.68,0,0,0,14,1.66c1.39-.06,2.92-.39,4,1"/><path class="cls-2" d="M171.67,323.34c-7.66,1.67-15.27,3.67-23,4.88-5.4.84-10.83,1.66-16.28,2.28-4.67.53-9.36.62-14,1-5,.4-10.21-.4-15.32-1-3-.37-6-.82-9-1.12"/><path class="cls-2" d="M172,318.68c-4,0-7.76,1.4-11.65,2-4.89.77-9.73,1.77-14.65,2.36-5.87.71-11.74,1.16-17.65,1.38a134.6,134.6,0,0,1-17-.66c-4.51-.4-8.89-1.32-13.33-2-1-.16-1.44-1-2.32-1.09"/><path class="cls-2" d="M68.43,163.49c.77,4.57,3.27,8.46,5,12.65,6,14.34,12,28.62,17.93,43,1.63,4,3.53,7.81,4.77,12,.54,1.82,2.66,3.23,4.2,2.55,3.81-1.68,8-1.89,11.76-3.76,8.72-4.31,17.8-7.92,26.55-12.18A20,20,0,0,1,149,215.8c5.66.36,8.08,5.28,5,10a11.16,11.16,0,0,1-5,4.32c-2.16.91-3.49,0-3.66-2.33-.1-1.39.26-2.81-.47-4.32-4.32,1-7.84,3.89-11.88,5.6-7.75,3.27-15,7.74-22.71,10.83a59.72,59.72,0,0,1-18.89,4.24,28.53,28.53,0,0,1-13.32-2c-.74-.33-1.45-.94-2.33-.34"/><path class="cls-2" d="M63.43,165.82c-1,3.65,1.53,6.34,2.74,9.29,7.62,18.6,15.47,37.1,23.23,55.65,1.57,3.76,3.73,4.51,7,2.33"/><path class="cls-2" d="M171,311.35c-2.75,1.72-6,1.73-9,2.25-7.84,1.35-15.72,2.84-23.64,3.25-7.17.37-14.42.71-21.65-.4-3.66-.56-7.39-.67-11-1.77"/><path class="cls-2" d="M115.38,273.05a42.56,42.56,0,0,1,14-3.38c6.23-.58,12.44-1.51,18.65-2.28,4.44-.56,8.87-1.31,13.32-1.61a75.18,75.18,0,0,0,13-2.39c.55-.13,1.22-.48,1.65-.3,3.58,1.51,7.16,0,10.66.16,5.86.27,9.06-2.31,11.36-7.18,2.52-5.32,1.53-9.36-3.72-11.95a29,29,0,0,0-17-2.56c-8.43,1-16.29,4.35-24.63,5.41-3.69.47-7.3,1.28-11,1.76"/><path class="cls-2" d="M180,316.68c6.27-2.34,12.86-3.42,19.32-5,3.51-.84,7.1-1.37,10.88-2.08.9,3.63,2.54,6.85,6.77,7.34,4.84.57,8.63-1.21,11-5.67-3.06-5.35-8.6-5.63-13.71-6.59-5.63-1.06-11.13.22-16.65,1.25-2.7.5-5.14.81-7.09,3.3-1.59,2-4.1,1.61-6.56-.25"/><path class="cls-2" d="M106.39,278.38a6.15,6.15,0,0,1-1,1.32c-3.71,2.78-4,3.46-2.65,7.68.55,1.76,2,1.92,3.69,1.06,3.05-1.52,3.65-3.23,2.87-6.77-.73-3.35,2.24-6,5.09-7.94a5.85,5.85,0,0,0,.53-.53c2.46,3.59,2.18,7.35,1.12,11.18a1.66,1.66,0,0,1-1.31,1.37c-1.6.37-1.58,1.84-1.29,2.95.91,3.51-.73,6.4-2.1,9.31-.84,1.79-2.35,3.26-3.24,5-1.25,2.51-2.92,4.82-2.78,8,.25,5.62-1,6.27-6.26,4"/><path class="cls-2" d="M182.32,267.73c-2.57,3.58-4,7.26-1,11.32.62.83.25,1.56,0,2.34-1.34,4.08-.69,8.06.68,12,.82,2.35,2,4.62,2.6,7,.72,2.66,0,5.58-.86,7.89-.75,2-4.14,1.6-6.41,2.09"/><path class="cls-2" d="M166.34,208.45c1,6.88,1.83,13.8,3.06,20.64.76,4.22.64,8.6,2.27,12.67"/><path class="cls-2" d="M162.34,210.45c.56,4.88,1.16,9.76,1.65,14.65.61,6.1,1.12,12.21,1.68,18.32"/><path class="cls-2" d="M102.56,302c.5,2.66-.83,4.66-1.5,7.33-.67,1.33-1.33,3.33-2,4.66a31,31,0,0,0-6,15.32c0,.67-1.33,3.33-4,1.33A17.24,17.24,0,0,0,81.75,326c-8.66-2-16.65-5.33-25.31-7.33a6.42,6.42,0,0,1-2.5-.31"/><path class="cls-2" d="M90.24,233.09c-4.65,1.45-6.17,1.07-8.14-3.67q-4.76-11.45-9.31-23c-1-2.48-3.45-3.79-4.39-6.3-3-8-6.22-16-9.27-24-.7-1.85-2.61-3.32-1.86-5.65"/><path class="cls-2" d="M170,282c-1.19,2.53-2.19,5.12-2,8,0,.67-.43,1.52.33,2,2.18,1.34,1.72,3.17,1,5-1.16,2.85-.5,5.69.43,8.3,1,2.78,1.54,5.69,2.76,8.43.55,1.24,1.29,3.13,0,5a4.25,4.25,0,0,0-.12,4.55c1.45,2,3.95,2.24,6.31.68s2.81-2.75.94-5.28c-2.41-3.25-2.89-6.88-3.34-10.69-.28-2.35,0-4.68-.28-7a11.42,11.42,0,0,0-.26-2.69c-.82-2.45-2.34-4.52-1-7.74,1.17-2.77-1.64-5.75-2.92-8.56"/><path class="cls-2" d="M68.76,202.12c-1.45,1.74-1.28,3.77-.63,5.65,2.57,7.4,5.41,14.7,7.33,22.32.56,2.21,3.54,2.82,7,1.68"/><path class="cls-2" d="M183,267.73a28.57,28.57,0,0,1,2.93,4.69c.93,2.37,1.55,4.94-1,6.88A15.9,15.9,0,0,1,188,289.37a37.56,37.56,0,0,0,0,5.32c.49,3.53-.33,7.64,3.89,9.79.15.07,1.43,1.13,1.06,2.2"/><path class="cls-2" d="M92.24,312q-12-3.39-23.83-7.6c-.85-.31-2-.87-3-.06"/><path class="cls-2" d="M31.79,152.83C34.55,158,39.41,161,44.19,163.7c3.67,2.09,7.43,3.85,10.28,7.09a2.76,2.76,0,0,0,2.3,1"/><path class="cls-2" d="M65.22,305.21c5.87,7.47,15.86,10.8,24.52,14.47"/><path class="cls-2" d="M110.39,240.42c4.69,6.17,11.49,7.87,18.66,8.6a16,16,0,0,0,6.65-.27"/><path class="cls-2" d="M135.37,228.76c2.89,7.58,4.37,15.56,6.63,23.32,1,3.28,1.58,6.65,2.36,10"/><path class="cls-2" d="M132,230.09q3.5,14.32,7,28.64c.29,1.2.45,2.44.68,3.66"/><path class="cls-2" d="M102.73,288.71c-1.22,1.55-2.48,3.08-3.64,4.68-.43.59-1.18,1.1-1,2,1.16,6-4.49,9.77-5.18,15.3-.22,1.79-.35,4-1.48,5.69-1.49,2.27-.71,5.92-4.64,6.79-1.22.27-1.35,2.44-1.69,3.86"/><path class="cls-2" d="M114.38,227.76l-14-2.33"/><path class="cls-2" d="M105.73,289.37c-.94,3.76-.2,7.91-2.66,11.33-.43.6-.73,1.3-1.67,1"/><path class="cls-2" d="M164.67,266.39c0,.93.83,1.17,1.34,1.66,2.86,2.76,3,3.45,1,7-1.2,2.1-2.08,3.81,1.32,4.76,1.27.35,1.81,2.47,3.72,1.93.42-2,3-4.37,1.76-5.84-1.46-1.78-2.11-4.82-5.12-5.17"/><path class="cls-2" d="M103.06,271.39c.43,2.47,3.22,3.62,3.46,6.32.06.64,1.74,1.07,2.87,1"/><path class="cls-2" d="M172.33,264.73l-2.33,6"/><path class="cls-2" d="M82.08,244.08c2.5,10.75,13,19.76,23.64,20.31,4.44.23,8.89.73,13.32.6a132.89,132.89,0,0,0,19-1.39c7.86-1.37,15.83-1.3,23.66-2.58,4.76-.78,9.56-1,14.33-1.61,4.61-.55,6.1.49,6.33,4.32"/><path class="cls-3" d="M68.82,227.26a50.51,50.51,0,0,0,38.57,4.92l-2.33,4.57-16,1.33-14-3.33-6.66-5.33Z"/></svg>