<svg id="图层_1" data-name="图层 1" xmlns="http://www.w3.org/2000/svg" viewBox="0 0 305 318"><defs><style>.cls-1{fill:none;stroke:#68584c;stroke-miterlimit:10;}</style></defs><title>timeline-03</title><path class="cls-1" d="M182.26,196.58l-56-56"/><path class="cls-1" d="M156.59,186.71l-20.53-20.53a12.35,12.35,0,0,1-.92-1h0l-1,1.6,1-1.6a51.11,51.11,0,1,0,22.49,22.48A12.18,12.18,0,0,1,156.59,186.71Z"/><path class="cls-1" d="M217.43,134.72a35.14,35.14,0,0,0,31-9.68C262.25,111.25,262,88.6,248,74.55a36.13,36.13,0,0,0-25.32-10.69h-.36a34.8,34.8,0,0,0-24.8,10.22,35.15,35.15,0,0,0-9.68,31l-9.53,9.53-22.78,11.3-30-30a15.5,15.5,0,0,0-21.93,21.93l22.49,22.49A71.75,71.75,0,1,0,112,282.5h0a71.76,71.76,0,0,0,70.36-85.84l22.26,22.26A15.5,15.5,0,0,0,226.57,197l-30-30,11.3-22.78Z"/><path class="cls-1" d="M135.12,165.15h0a12.35,12.35,0,0,0,.92,1l20.53,20.53a12.18,12.18,0,0,0,1,.91,51.11,51.11,0,1,1-22.49-22.48"/><path class="cls-1" d="M135.75,165.89l21.38,21.38a11.89,11.89,0,0,0,16.28.45L135.3,149.61A11.89,11.89,0,0,0,135.75,165.89Z"/><path class="cls-1" d="M177.22,175a1.63,1.63,0,0,0,2.31-2.31L169,162.21a1.63,1.63,0,0,0-2.31,2.31Z"/><path class="cls-1" d="M218.61,216.89a2,2,0,1,0,2.81-2.81l-32.77-32.78a2,2,0,1,0-2.81,2.81Z"/><path class="cls-1" d="M238.58,84a2,2,0,0,0,2.84-2.84c-10.75-10.75-28.09-10.91-38.65-.35a2,2,0,1,0,2.84,2.84C214.6,74.61,229.39,74.77,238.58,84Z"/><path class="cls-1" d="M51.83,212.06a59.75,59.75,0,0,1,17.62-42.53,1.9,1.9,0,0,0-2.69-2.69,64,64,0,0,0,0,90.44,1.9,1.9,0,1,0,2.69-2.69A59.75,59.75,0,0,1,51.83,212.06Z"/></svg>