<svg id="图层_1" data-name="图层 1" xmlns="http://www.w3.org/2000/svg" viewBox="0 0 365 346"><defs><style>.cls-1{fill:#fcfdfd;}.cls-2{fill:#5e4c41;}.cls-3{fill:#aa8e7f;}</style></defs><title>timeline</title><g id="y9Pcsm.tif"><path class="cls-1" d="M282.69,40.59c19.37,0,38.75,0,58.12,0,1.79,0,2.2.41,2.2,2.2q-.08,142.06,0,284.13c0,1.79-.4,2.2-2.2,2.2q-142.06-.08-284.13,0c-1.79,0-2.2-.4-2.2-2.2q.08-142.06,0-284.13c0-2.88,1.51-2.14,3-2.14H226a10.65,10.65,0,0,1-3.85,3.59c-8.61,4.76-16.36,10.33-18.8,20.7-.31,1.32-1.38,1.36-2.41,1.71-3.66,1.25-7.55,2.12-10,5.54l-.12.09a4.65,4.65,0,0,0-3.1,4.92l.08,2.94a1.55,1.55,0,0,0,.61,2.28L191,86.5c.05.82.58,1.16,1.31,1.28,2.22,3,6.2,3.76,8.52,6.64-1.07.87.09,1.44.3,2.14l-.17.19c-1.14.47-.93,1.48-.94,2.39.08,1.62-3,2.21-2,3.25,1.71,1.82.85,3.85,1.47,5.67-.07,2.15.05,4.8,1.61,5.89,2.42,1.68,2.35,3.53,2.09,5.86a12.2,12.2,0,0,0,.21,3.56c1.72,9,3.07,18.06,5.42,26.93.81,3,.94,6.38,3.22,8.91,1.53,4.1,3,8.21,4.62,12.29.3.78,1,1.54-.25,2-6.06,2-10.85,6.12-16.23,9.26-5.74,1.9-10.44,5.49-15.08,9.19-2.9.6-4.41,2.78-5.81,5.09-1.35.31-2.7.71-4.07.89-1,.14-2.46,0-2.6,1.19-.18,1.45,1.85.39,2.31,1.43l-10.45,2c-.13-2.51-1.91-2-3.34-1.66q-6.14,1.37-12.22,3c-1.68.44-3.5.82-4.25,2.76-2,.39-4,.71-5.91,1.2-.73.18-1.89,1.33-1.21,1.58,2.76,1,1.75,4,3.3,5.46-.93,1.62-1.48,3.93-2.87,4.71-3.48,1.95-4.74,5.12-6.14,8.41-1,2.25-1.73,4.61-5.07,4.55-2.29,0-3.15,1.39-1.9,3.62.62,1.1,1,2.15-.48,3-2.38,1.41-4.49,3.05-4.92,6.13a1.94,1.94,0,0,1-1.93,1.37c-4.29,0-6.37,2.35-7.28,6.33-.43,1.9-1.28,3.45-4,2.47s-4.89,0-5.77,3.09c-.76,2.64-2.44,3.79-5.32,4.34s-7.12.48-6.54,5.63c.07.6-1.18,1.79-2.43,1.75s-2.23.94-3.27,1.12c-4.88.83-8.27,4.43-12.51,6.39-5.63,2.6-9.8,10.95-8.16,16.26-1.48,3.46-3.65,6.67-3.9,10.59-2.29,4.17-2.17,8.47-.69,12.85,1.06,5.34,5,10.16,8.61,10.15q33.53,0,67.06-.22l18.13.05c1.19,0,2.39.09,3.58.09l144,.08c13.25,0,26.51,0,39.76.09,2.48,0,2.76-.72,2.73-3-.17-12.65-.1-25.3-.12-38q0-21.23,0-42.47l0-6.36-.08-18.06v-5.73l0-2.71.06-1.55,0-2.8-.07-2.27a39,39,0,0,0,0-9.15,15.47,15.47,0,0,0-.54-6c-.38-1.14-1.79-1.83-1.93-1.62-1.64,2.45-2.82.09-4.13-.3a196.47,196.47,0,0,0-25.8-5.67c-3.61-.55-7.12-.9-7.4-5.8-.07-1.33-1.19-2.57-1.66-3.92-1.48-4.22-2.88-8.47-4.32-12.71,4.16-3.88,3.57-9.88,6.41-14.35,3.09-5.93,6.44-11.74,9.18-17.83,2-4.48,3.37-9.33-.09-13.95a5.49,5.49,0,0,0-1.73-2.67l-.09-2.11c3.19-3.16,1.65-7,1.51-10.63,1-4.14-.72-8.33.27-12.47l.62-4.19a1,1,0,0,0,.21-1.49l-.74-4.15c0-.23.14-.5.06-.7-5.7-14-13.19-26.58-27.44-33.63A5.4,5.4,0,0,1,282.69,40.59Z"/><path class="cls-2" d="M311.12,75.83l.74,4.15c-1.08.35-1.34.82-.21,1.49L311,85.66c-1.15.31-1.64-.41-2.24-1.25-1.92-2.7-3.51-5.72-6.13-7.8-2.81-2.23-3.46-6.74-7.79-7.3l-.27-.19.3.16a3.59,3.59,0,0,0,.86,2.22c1.49,1.91,3.27,3.83,4,6.06,2.45,7.54,6.75,14,11,20.57.14,3.64,1.67,7.47-1.51,10.63-2.14-1.94-4.51-1.84-7-.74-1.52.67-3,1.66-4.58,1.93-1.88.32-2.32,1.31-3,2.89-1.57,3.58-2.28,7.44-4,10.95-.32.68-.73,2-1.94,1.72-.91-.24-.86-1.32-1-2.14a87.86,87.86,0,0,1-1.1-14,4.31,4.31,0,0,0-3.16-4.56c-4.12-.78-8.5-.63-11.25,3.08-1.32,1.79-2.46,1-3.55.72-1.38-.32-1-1.55-.68-2.66.47-1.93,1.07-3.81.42-5.94a1.52,1.52,0,0,1,2.19-1.83c5.65,2.43,11.86,2.88,17.57,5.06.72.28,1.81.66,2.45-.32-2.49-3.35-7.27-4.15-8.75-8.49-.37-1.08-1.63-1-2.53-.81-1.59.3-3.29.32-4.68,1.34-2.85-.53-5.67,0-8.5.26-1.54-2.69-6.31-2.81-10.26,0,2.58-.6,5.2-1,6.21,1.37.42,1,.21,2.06,1.31,1,3-2.83,3.16-.14,3.48,1.74a22.35,22.35,0,0,1,.13,5c-.19,3.41-1.51,6.7-4.78,7.62s-6.19,2.87-9.77,2.81a7.1,7.1,0,0,0,2,.87c.75.23,2.2-1,2.18.67s-1.6,1.06-2.55,1.05a17.12,17.12,0,0,1-10.44-4.08,3.49,3.49,0,0,1-.82-1c2.66-2.76-.83-3.28-1.81-3.91a8,8,0,0,1-4-5.52c-.25-1.3-.52-3.16-2.65-3.34a4.31,4.31,0,0,0-4.4,2.43,25.8,25.8,0,0,0-1.67,3.55c-2.16,5.72-5,10.85-11.28,12.92-1.55.51-2.86,1.23-4.82-.34-2.26-1.82-6.2-1.59-6.46-5.75,0-.08-.2-.24-.26-.22-3,1.06-3-1.49-3.79-3.11-.42-.84-1.4-.79-2.23-.9-.62-1.82.24-3.85-1.47-5.67-1-1,2.06-1.64,2-3.25l2.64,2.28c2.11-2.73.65-3.88-1.69-4.68l.17-.19c7.84-6.18,16.3-6.77,25.85-2.18-4.61-5.17-18.61-4.79-26.14,0-2.32-2.88-6.3-3.63-8.52-6.64A1.31,1.31,0,0,0,191,86.5l-2.6-4.13a2.52,2.52,0,0,0-.61-2.28l-.08-2.94,3.1-4.92.11-.09c2.3-1.2,4.52-2.59,6.91-3.55,7-2.83,14.44-3.46,21.85-4.27,1.55-.17,3.71-3.63,3-4.9-2.35-4.06-1.22-6.65,3.56-8.16-2.75,4.3-2.68,5.16.46,5.85a.62.62,0,0,0,0,.58c-1.6.81-.64,1.59,0,2.38-.3,1.12.38,1.4,1.28,1.48-1.09,2.2.4,2.34,1.95,2.45a50.06,50.06,0,0,0,8.19-.44c4.23-.38,8.65.74,11.51-3.67,1.29.19,2.63.5,3.46-.93a1.6,1.6,0,0,0-.33-2c-1.25-1.33-2,.26-3,.56-.59.09-1.35.47-1.73.23-3.35-2.09-5.39.2-7.94,1.84-1.5,1-3.82,1.67-5.71-.52-.89-1-2.61-1.34-3.95-2a2.32,2.32,0,0,0-1.86-1.53c-1.39-1.8,1.75-3.24.41-5,.37-1.69,1.17-1.56,2.2-.53-.86,1.77.9,3.74,1.36,3.79,2.6.3,3.08-2.32,4.56-4.16-1.36,0-2.1-1-3.1-1.54.21-.61-1.13-1.85.51-1.79,2.16.08,3.94.1,4.55-2.6.19-.85,1.61-.77,2.42-1.19s2.53-.25,2.52-2h2.15c1.14,3.31,3.81,1.79,6.26,1.84-.17,1.23-.94,2.54.53,3.51a18.92,18.92,0,0,1,3.77,3.15c.95,1.07,1.41,1.32,2.86.51,4.62-2.58,9.19-2.74,13.27,1.35.62.62,1.7,1.37,2.59.73,2.52-1.8,5-.86,7,.44,3.44,2.2,8.45,2.32,10.15,7.45-.64-3,2.35-1.46,2.92-2.79.8-1.87,1.51-1.15,2.13,0,1.34,2.5,3.49,4.75,4.5,7.08C304.21,68.76,307.62,72.24,311.12,75.83ZM252.34,54.28l.5.8c2-1.93,3.54-3.84-.23-5.53-.61-1.27-.61-1.27-2.95-.32l-.81.63c-1.22.08-2.69,0-3.34-.87-1.55-2.07-2.59-1.59-4.26-.11-.77.68-2,.53-1.15,2.07.6,1-.17,2.89,2.31,2.66,3-.29,6.21-1.79,9.22.3.08.06.39-.22.59-.34ZM241.81,90.84c-3.66,2.62-7.89,3.7-12.2,4.65-.8.18-2.35-.11-2.41,1.8h9.54c.85,0,1.21-.54,1.6-1.18,1.1-1.8,2.28-3.55,3.43-5.31a1,1,0,0,0,.25-.09s0-.12.06-.18Zm8.72-2.46c3.86.44,7.87.19,11.23,2.69.63.47,1.5.6,1.81-.18s-.55-1.19-1.21-1.45A21.93,21.93,0,0,0,250.53,88.38Zm-43.35,5.74c-.09.94-1.08,2.08.4,3C208.23,95.93,208.43,95,207.18,94.12Zm.61,6.12a1,1,0,0,0-.85-1.22.91.91,0,0,0-.81.37.93.93,0,0,0,.56,1.35A.81.81,0,0,0,207.79,100.23Z"/><path class="cls-3" d="M311.12,75.83c-3.51-3.59-6.91-7.08-9-12-1-2.34-3.16-4.59-4.5-7.08-.62-1.15-1.33-1.87-2.13,0-.57,1.33-3.56-.17-2.92,2.79-1.71-5.13-6.72-5.25-10.15-7.45-2-1.3-4.51-2.24-7-.44-.89.64-2-.11-2.59-.73-4.08-4.1-8.64-3.94-13.27-1.35-1.45.81-1.91.56-2.86-.51a18.92,18.92,0,0,0-3.77-3.15c-1.47-1-.69-2.28-.53-3.51-2.45-.05-5.12,1.47-6.26-1.84h36.59a5.4,5.4,0,0,0,1,.92c14.25,7,21.74,19.61,27.44,33.63C311.26,75.33,311.15,75.6,311.12,75.83Z"/><path class="cls-3" d="M243.95,40.59c0,1.72-1.59,1.48-2.52,2s-2.23.34-2.42,1.19c-.61,2.7-2.39,2.68-4.55,2.6-1.64-.06-.3,1.19-.51,1.79-.6,1.14-1.38,2-2.83,1.9-1-1-1.83-1.16-2.2.53l-2.72.68c-4.78,1.51-5.91,4.1-3.56,8.16.74,1.28-1.42,4.74-3,4.9-7.4.81-14.86,1.44-21.85,4.27-2.39,1-4.61,2.36-6.91,3.55,2.47-3.42,6.36-4.29,10-5.54,1-.35,2.1-.39,2.41-1.71,2.44-10.37,10.19-15.93,18.8-20.7A10.65,10.65,0,0,0,226,40.59Z"/><path class="cls-2" d="M341.42,286.77c0,12.65-.06,25.31.12,38,0,2.29-.25,3-2.73,3-13.25-.14-26.51-.08-39.76-.09l-144-.08c-1.19,0-2.39-.06-3.58-.09.12-.32.15-.81.38-.94,1-.56,3.25,0,2.81-1.81-.37-1.55-2,.1-3-.11-1.32-.27-3.25,1.07-3.83-1.33L148,323l-.13.3c-5.34-.42-10.39.18-14.49,4.11q-33.53.12-67.06.22c-3.6,0-7.55-4.82-8.61-10.15,1.23-2,3.93-1.63,5.3-3.79,5.41-8.5,13-15.14,20.1-22.11a11.1,11.1,0,0,1,4.51-2.79c-1.8,6.44-7.85,9.93-9.27,16.36,2.87-1.12,4.1-3.3,5.44-5.34a178.67,178.67,0,0,0,9.05-16.2,5.71,5.71,0,0,1,6.49-3.23c10.31,1.49,20.41,4.12,30.68,5.76,2.67.43,4.92,2.6,8,1.41,8.29-3.18,17-4.15,25.85-4.39,2.25-.06,3.41-.65,3.28-3,4.12-3.12,8.42-5.87,13.62-6.83.21,2.09-1.27,3.55-2.07,5.23-1,2.17-.5,2.92,1.83,3.31s5.25-.93,6.6-.15c3.05,1.77,6.29,1,9.32,1.91,2,.6,2.75,1.08,2,3s.05,2.63,1.87,2.94a27.84,27.84,0,0,1,3,1c2.19.64,2.12,1.34.36,2.67s-2.61,3.14-3.44,6.14c2-1.68,3.09-2.71,3.72-4.37a2.15,2.15,0,0,1,2.75-1.08,1.29,1.29,0,0,1,.57,1.84c-1.74,4.2-3.67,8.33-7.28,11.3-1.51,1.24-2.82.84-4.58-.66a2.15,2.15,0,0,0-1.7-.06c-5.44,1.72-11.59.53-16.57,4.72-1.48,1.25-3.2,3.44-5.83,3.3-6-.32-11.9-.51-17.87.74-2.28.48-3.58.62-4.12,3.24-.32,1.56-.37,3.25.6,3.75,1.46.77,4.44,1.18,4.85-.38,1.31-4.87,4.57-2.33,7.14-2.48a10.36,10.36,0,0,0,1.37.11,159.5,159.5,0,0,1,21.59-3.24c6.42-.43,12.44-1.75,16.38-7.59.3-.45,1-.62,1.39-1,3.89-4.25,9.53-4.91,14.48-6.86,2.86-1.12,6-2.79,9.27-1.58C231.48,301,237,301.17,242,303a3,3,0,0,0,4-2.52c.26-1.35-.17-2.33-1.84-2.35-1,0-2.6.3-2.1-1.42.36-1.23,1.87-.74,2.86-.6.65.09,1.2.75,1.86,1,4,1.36,7.15,4.65,11.48,5.37.42,1.88,1.67,2,3.59,2a3.66,3.66,0,0,0-3.63-2c-.17-2.46,1.7-2.64,3.09-2.09,2.46,1,4.68-.53,7-.18a1.41,1.41,0,0,0,1.77-1.34c0-.87-.66-1.21-1.4-1.33C265.5,297,262.38,296,259,296c-6.17-.1-12.31,0-18-3.92a27.32,27.32,0,0,0-14.77-4.59,4.7,4.7,0,0,1-3.67-1.52c5.88-1.51,11.31-2.69,17.4-.7,8.76,2.86,17.45,6,26.43,8.22,4.49,1.11,8.36,1.06,11.9-2.11a7.49,7.49,0,0,1,4.9-1.86c3.15-.13,6.07,1.79,9.34.84,2.17-.63,4.37.15,6.57.38,4.32.45,9,1.51,12.45-2.87,1-1.25,2.77-1.21,4.36-1.17.9,0,2.32.32,2.4-.89.17-2.42,1.58-4.77.32-7.34-.42-.86-1.86-1.85-1-2.78s2.54-.6,3.77-.27c2.33.63,4.37,2.19,4.63,4.52.33,3,1.78,3.49,4.22,3.22.87-.09,1.6.62,2.33.69C335.81,284.16,338,287.42,341.42,286.77Z"/><path class="cls-2" d="M341.39,217.9v2c-8.19.5-16.37,1.09-24.57,1.48-6.66.32-11.83,3.76-16.93,7.53a3,3,0,0,0-1.24,3.75c.75,1.66,2.11.19,3.06,0,3.46-.84,6.75-2.7,10.88-1.42a7,7,0,0,1-4.12,1.59c-8.38.88-15.62,4.53-22.52,9.09-5.65,3.73-7.89,11.89-16,12.34-.09,0-.19.14-.26.24-3,4.52-7.92,6-12.64,7.91-1.79.71-3.75,1.58-4.18,4.37,2.29-2,3.9-1.56,5.36.54a3.35,3.35,0,0,0,1.92.89c3.4.79,6.19,3.08,9.63,3.79a2.1,2.1,0,0,1,1.82,2c0,1.24-1.21,1.26-2.16,1.35a43.44,43.44,0,0,1-5.67.53,52.09,52.09,0,0,0-18.3,2.66,4.11,4.11,0,0,1-3.71,0,60.89,60.89,0,0,0,8.55-9.31c-.51-.15-.92-.43-1.15-.33-5.53,2.47-11.29,2-17.09,1.47-6.15-.58-12.23-1.93-18.47-1.67-2.36.1-3.76-.85-2.54-3.71,1.4-3.29,2.54-6.69,3.65-10.09.86-2.63,2.43-2.71,4.23-1.23a17,17,0,0,0,5.35,2.72c4.31,1.54,9,2.23,12.6,5.42a4.76,4.76,0,0,0,3.29,1.23c.67,0,1.71,0,1-1.11-2.09-3.42.87-4.9,2.76-6.17,4.18-2.83,4.33-2.68,2.18-6.59,3.87-1.58,5.65.87,7,3.83.44.94.78,2,1.94,1.53s-.27-1-.21-1.59c.13-1.26,1-1.14,1.82-1.1.67,0,1.34.77,2,.13,3.56-3.43,7.25-6.66,12.38-8a4.61,4.61,0,0,0-3.76-1.63c-6.78,0-13.47-1.19-20.23-1.48-2.93-.13-6.85.6-8.87-3,2.84.16,5.91,1.14,7.78-2.18-.26,1.59,0,2.83,1.93,3.1a265.6,265.6,0,0,0,27.86,1.95l4.7.2c2.84.57,5,.11,5.26-3.47h-3.89c-2,.1-4-.44-5.94.28-1.3-1.12-2.68.06-4.07-.13-7.35-1-14.74-1.7-22.11-2.53a8.27,8.27,0,0,0-3.84.47l-.74-.82c.26-1,.64-1.48,2-1.18a30.64,30.64,0,0,0,5.2.34l1,.34a2.43,2.43,0,0,0,2.32.17l4.82.13c3.26,1.54,6.76.54,10.14.89s7.25.83,10-2.34c.15.86-.71,2.22.47,2.51a15,15,0,0,0,4.79.16c.57,0,.43-1.44.36-1.42-2.15.71-3.35-2.68-5.59-1.28q0-1.08.07-2.15a2.55,2.55,0,0,0,2.52-.42c1.75.28,3.44,1.08,5.28.58,2.54,0,2.47-2,2.85-3.72.67-.46,1.38-.89,1-1.9l0-.3c1.77-.95,3.06-5,5.57-.41.47-3.91.46-3.93,4.32-5.69,2.2-1,2.93-3.08,3.21-5.09a6.78,6.78,0,0,1,4.28-5.79,6.2,6.2,0,0,0,3.06-2.73c2.6-3.92,5.85-6.78,10.69-7.61,2.41-.41,4.74-1.25,7.1-1.9-3.15-.52-6.06-1.8-9.2,0-3.79,2.17-7.86,3.24-12,.2-1.4-1-10.82,2-11.44,3.65-1.65,4.34-5.44,6.13-9.11,8-2,1-3.31,3.64-6.13,3.07-.2-.55,1.43-1.43.16-1.45-1.68,0-3.8-.47-5,1.5-1.57-.57-2.69.9-4.13.91l-.37-.36c-3.87-1.58-7.56,2.38-11.47.45,0,0-.45.74-.71,1.12-1.75,2.65-3.6,5.14-7,5.92-1.06.24-.7,1.33-.7,2.13l-.64.37c-1-1.73-2.78-1.84-4.52-1.92l-2.1,0c2.32-2.65,4.43-5.48,7.15-7.76a.44.44,0,0,1,.35-.06c3.54,1,3-2.42,4.28-4-4.55,2.19-8.84,4.93-13.38,6.87-9.21,3.93-14.06,11.94-19.59,19.26-6.17,8.16-10.67,17.37-14.44,26.89-.65,1.65-.91,3.46-1.56,5.11-2.79,7-4.6-2.18-7.42-.54-1.13.66-1.43-1.16-1-2.23,2.05-5.07,4.2-10.1,6.23-15.18,1-2.52,2.21-5.09.31-8.72-.1,5.95-4.91,7.85-7.07,11.64.89-3.77,2.58-7.22,3-11s3.44-6.63,3.24-10.48a1.45,1.45,0,0,0-1.07.68c-2.41,3.89-2.75,8.55-4.5,12.64-3.31,7.73-7.23,15.21-10.59,22.92-1.39,3.18-3.18,5-6.75,4.74-.2-.08-.4-.16-.6-.22a40.7,40.7,0,0,0,4.2-9.42c.52-1.53,1.33-3.81-1.86-3.72-8.81.23-17.65-.72-26.45.56-3.17.46-6.4.54-9.6.75-.7,0-1.57,0-1.67-.92s.7-1.13,1.44-1.18c7.29-.5,14.43-2.46,21.8-2.13a38.74,38.74,0,0,0,3.94-.06c.86,0,1.47-.56.85-1.38-1.92-2.57.84-3.12,1.93-3.78a9.56,9.56,0,0,1,5.28-1.31c5.41.15,12.6-5.84,11.64-10.22-1.33-6.07,2.1-10.76,3.28-16.07.39-1.77,1.83-3.65,4.23-2.34s5.25,1.6,7.34,3.47c1.22,1.1,2.55,1.21,3.39-.07,1-1.54-.85-1.91-1.64-2.55-3.61-2.95-8.25-4.26-11.79-7.36-1.54-1.35-2,0-2.43,1.19a73.91,73.91,0,0,1-7,14.48,7.83,7.83,0,0,1,.42-3.59c.37-1.65-.92-2.62-2-1.92-2,1.33-5.71.69-5.71,4.64,0,1.64-1.52,2.5-2.86,2.79-1.15.25-2-.91-2.15-2-.77-4.4-2.38-8.77-.75-13.33.64-1.79,1.64-4.3,0-5.31-2-1.27-2.89,1.75-4.42,2.66-5.24,3.15-5,5.62-10.58-.17-.81-.85-1.64-.73-2.55-.88-3.18-.55-5.48,1.16-7.7,3-2,1.63-4,2.38-6.6,1.45-1.17-.42-2.58-.17-3.88-.23-1.56-1.5-.55-4.47-3.3-5.46-.68-.25.48-1.39,1.21-1.58,1.95-.49,3.94-.81,5.91-1.2a133,133,0,0,0,19.81-4.08l10.45-2c2.61.27,5,.3,4.36-3.51,1.4-2.31,2.91-4.49,5.81-5.09,2.09.13,5.36-.6,2.09,3.2-.55.64-.47,2.14-.18,3.09.6,2,2.59,2.65,4.18,3.61a1.19,1.19,0,0,0,1.78-.66c.57-2.21,2.13-2.75,4.13-3.06a3,3,0,0,0,2.59-2.2c-1.33-.69-2.28-.07-3.16.83s-1.72,1.33-2.82.52a2.69,2.69,0,0,1-1.32-3.05c.34-1.14.92-2.91,2-2.61,4.88,1.33,7.19-4.65,11.89-3.71a8,8,0,0,0-3.93-1.41c-3.2.06-3.78-1.13-2.2-3.74,5.38-3.15,10.17-7.3,16.23-9.26,1.29-.42.56-1.17.25-2-1.58-4.08-3.09-8.19-4.62-12.29,1.14-.72,2-2,3.51-2.19-.28,2.7-.27,2.7,1.79,5a3.24,3.24,0,0,1,.34.63c2.42,4.42,4.83,4.44,7.85.32,1.1-1.5,1.34-4.06,4-4l0,0a12.16,12.16,0,0,1-.69,3.84c-.23,1-.14,1.81,1.47,1.56,4.69-.72,9.36-1.74,14.16-1.2,3.37.37,6.28-1.55,9.5-1.91.62-.07,1.42.82,1.85-.14s-.34-1.56-1-2.13a9.41,9.41,0,0,1-1.56-1.42c-.34-.51-1.11-1.21-.33-1.86s1.18,0,1.78.5c2.09,1.74,4.16,3.48,6.12,5.37,1.52,1.47,2.06,2.16-.2,3.16-1.1.48-2.52,1.42-.88,2.51s2.74,2.77,4.71,3.06c1.79.27,2.5.87,1.91,2.85-.45,1.5.37,2.39,1.75,1.09.62-.58.91-.53,1.42-.23.8.48,0,1,0,1.54.07,2.56-3.13,3.51-3.09,6.1,6.74,0,9.25,2,10.62,8.57.51,2.44.85,4.92,1.2,7.39.89,6.34.87,6.34,3.36,8.45A50.35,50.35,0,0,1,283.42,185c.43-1.58.88-3.32,3.3-2.83,4.55.91,9.2,1.12,13.75,2.19,13.78,3.24,27.54,6.52,40.88,11.34a39,39,0,0,1,0,9.15c-6.28.47-12.67.15-18.72,2.5,6.29.68,12.53-1,18.79-.23l0,2.8c-6,.36-12,1.43-18,0,0,1.86,2,.82,2.32,2.09a26.85,26.85,0,0,0-15.3,4.92,127.72,127.72,0,0,1,30.92-5.51l0,2.71c-7.43.61-15,.36-22.05,3.47C326.73,216.53,334.07,217.1,341.39,217.9Zm-141.8-9.42c.28.35.49.9.85,1,5.85,2.05,11.78,3.92,17.13,7.17.92.56,1.56.13,2.29-.3,7.9-4.62,15.83-9.18,23.69-13.88a7.16,7.16,0,0,0,3.48-6.81c-4.71,3.36,0-2.76-2.67-1.75-.89.88-3.2.92-3.18,3.43,0,.75-.79,1.18-1.6.59-2-1.41-3.76-2.61-4.44,1.17-.18,1-1.66,1.05-2.08.52-1.21-1.54-3.77-3-2.29-5.29,2.48-3.78-1.75-2.46-2.48-3.73-.91-1.6,2.58-4.33-1.16-5.09-3.18-.64-5.11-2-5.1-5.52,0-1-.85-2.07-1.57-3.68-.23,6.3-.27,11.83,2.61,17,.59,1,1.3,2.41.81,3.76-1.8,5-2.85,10.37-7.51,14-1.37,1.06-2.53,1.48-3.82.8C208.58,209.75,204,209.74,199.59,208.48Zm50,53.22c2.67.11,4-1.45,4.26-3.81a2.77,2.77,0,0,0-2.47-3.25c-2.06-.18-6.2,3.12-5.65,4.54A4.07,4.07,0,0,0,249.58,261.7Zm-31.53-27c1.8-2.37,4.74-4.46,1.14-7.38-1.44-1.16-3.15-1.05-4.09.32C212.7,231.18,215.32,233,218.06,234.73Zm66.09-28.34c2.74.26,4.29-1.67,6.32-2.42,1.59-.59,1.07-2.11,0-3.13-1.37-1.25-4.74-.27-5.28,1.53C284.79,203.59,284.53,204.84,284.15,206.39Zm-46.78-22.57c2.24-1.32,4.94-2.17,3.27-5.54-.31-.64-.7-1.44-1.57-.89C236.7,178.88,235.53,180.81,237.37,183.83Zm-58.61,68.61c6.48,1.23,6.48,1.23,8.27.19C184.16,251.89,181.47,252.41,178.76,252.43Zm19.42-46.06a2.91,2.91,0,0,0-.74-.47c-.39-.11-.69.14-.53.52a1.2,1.2,0,0,0,.73.53C198,207,198.29,206.94,198.18,206.37ZM251.51,267a3.47,3.47,0,0,0-.26.52s.15.14.23.21a3.51,3.51,0,0,0,.26-.52S251.59,267,251.51,267Z"/><path class="cls-3" d="M273.59,211.59c1.44,0,2.56-1.48,4.13-.91,1.64,2.45,3.23-.58,4.85,0,2.83.58,4.1-2,6.13-3.07,3.67-1.87,7.46-3.66,9.11-8,.61-1.62,10-4.67,11.44-3.65,4.15,3,8.22,2,12-.2,3.14-1.79,6-.52,9.2,0-2.37.65-4.7,1.49-7.1,1.9-4.84.83-8.09,3.69-10.69,7.61a6.2,6.2,0,0,1-3.06,2.73,6.78,6.78,0,0,0-4.28,5.79c-.28,2-1,4.09-3.21,5.09-3.86,1.76-3.85,1.78-4.32,5.69-2.52-4.59-3.8-.54-5.57.41-.91-1.17,1-2,.35-3.19a14.12,14.12,0,0,0,2.93-3.46c.46-.61,1.94-.32,1.26-1.94-.55-1.31-1.07-2.26-2.77-2.14-4.48.31-9,.57-13.42,1-4.94.47-8.69,4.8-13.89,3.42-.79-.21-1.21.65-1.1,1.46.16,1.09.83.5,1.48.56,3,.29,6.19-.93,8.92,1.18.25,1.39-1.1,2.1-1.4,3.27a6.07,6.07,0,0,1-5.45,0c-.79-.37-1.63-1.21-2.55-.27a1,1,0,0,0-.09,1c.59,1,1.66.58,2.54.8,2.06.52,4.23-.38,6.23.59l-1,3.39c-3.19-.39-6.41-1.11-9.46.75H279.2l-2.41-1.45a3.32,3.32,0,0,1,.89-2.73l2.31.39a5.52,5.52,0,0,1,.64,3.2l-.07,2.15,0,0c-2.77,3.17-6.53,2.7-10,2.34s-6.88.65-10.14-.89c-.5-1.09,1.28-2.48-.46-3.42-2.52-1.37-6.61.1-7.65,2.77a30.64,30.64,0,0,1-5.2-.34c-1.31-.3-1.69.14-2,1.18l-5.93-.42a2.06,2.06,0,0,0-2.12,1.44c-.67,1.34.6,1.5,1.11,2.12,2,3.64,5.94,2.91,8.87,3,6.77.3,13.46,1.53,20.23,1.48a4.61,4.61,0,0,1,3.76,1.63c-5.13,1.32-8.82,4.55-12.38,8-.66.64-1.33-.1-2-.13-.85,0-1.69-.16-1.82,1.1-.06.6,1.46,1.11.21,1.59s-1.5-.59-1.94-1.53c-1.39-3-3.17-5.41-7-3.83,2.16,3.91,2,3.76-2.18,6.59-1.89,1.28-4.85,2.75-2.76,6.17.68,1.11-.37,1.08-1,1.11a4.76,4.76,0,0,1-3.29-1.23c-3.63-3.19-8.29-3.87-12.6-5.42a17,17,0,0,1-5.35-2.72c-1.79-1.49-3.37-1.4-4.23,1.23-1.11,3.4-2.25,6.81-3.65,10.09-1.22,2.86.19,3.8,2.54,3.71,6.25-.26,12.32,1.09,18.47,1.67,5.79.54,11.56,1,17.09-1.47.24-.11.65.17,1.15.33a60.89,60.89,0,0,1-8.55,9.31,4.11,4.11,0,0,0,3.71,0,52.09,52.09,0,0,1,18.3-2.66,43.44,43.44,0,0,0,5.67-.53c1-.1,2.12-.11,2.16-1.35a2.1,2.1,0,0,0-1.82-2c-3.44-.7-6.23-3-9.63-3.79a3.35,3.35,0,0,1-1.92-.89c-1.45-2.1-3.06-2.52-5.36-.54.43-2.78,2.39-3.66,4.18-4.37,4.72-1.87,9.6-3.39,12.64-7.91.07-.1.17-.24.26-.24,8.16-.45,10.4-8.61,16-12.34,6.9-4.56,14.14-8.2,22.52-9.09a7,7,0,0,0,4.12-1.59c-4.14-1.28-7.43.58-10.88,1.42-.95.23-2.31,1.69-3.06,0a3,3,0,0,1,1.24-3.75c5.09-3.76,10.26-7.21,16.93-7.53,8.19-.39,16.38-1,24.57-1.48q0,9,.08,18.06c-.67.12-1.19.62-2,.3-11.58-4.47-23.37-3.79-35.22-1.22,4.28-.67,8.44.73,12.93,0,3.83-.66,8.16,1.52,12.27,2.46,4.27,1,7.53,4.39,12,4.87q0,21.23,0,42.47c-3.45.66-5.6-2.61-8.77-2.94-.72-.08-1.46-.79-2.33-.69-2.45.26-3.89-.25-4.22-3.22-.26-2.33-2.3-3.89-4.63-4.52-1.23-.33-2.85-.69-3.77.27s.54,1.92,1,2.78c1.26,2.57-.16,4.92-.32,7.34-.08,1.21-1.5.91-2.4.89-1.59,0-3.38-.08-4.36,1.17-3.42,4.37-8.13,3.31-12.45,2.87-2.2-.23-4.4-1-6.57-.38-3.27,1-6.19-1-9.34-.84a7.49,7.49,0,0,0-4.9,1.86c-3.54,3.16-7.4,3.22-11.9,2.11-9-2.23-17.68-5.35-26.43-8.22-6.09-2-11.52-.81-17.4.7a4.7,4.7,0,0,0,3.67,1.52A27.32,27.32,0,0,1,241,292c5.65,4,11.79,3.82,18,3.92,3.41.05,6.52,1.06,9.78,1.59.74.12,1.44.47,1.4,1.33a1.41,1.41,0,0,1-1.77,1.34c-2.34-.35-4.56,1.16-7,.18-1.38-.55-3.26-.37-3.09,2.09l0,0c-4.33-.71-7.45-4-11.48-5.37-.66-.22-1.21-.88-1.86-1-1-.14-2.51-.63-2.86.6-.5,1.72,1.14,1.4,2.1,1.42,1.67,0,2.1,1,1.84,2.35a3,3,0,0,1-4,2.52c-5.09-1.85-10.57-2-15.64-3.9-3.26-1.21-6.41.45-9.27,1.58-5,1.95-10.59,2.61-14.48,6.86-.38.42-1.09.58-1.39,1-3.94,5.84-10,7.17-16.38,7.59a159.5,159.5,0,0,0-21.59,3.24,10.36,10.36,0,0,1-1.37-.11c-2.57.15-5.83-2.39-7.14,2.48-.42,1.56-3.4,1.14-4.85.38-1-.51-.92-2.19-.6-3.75.53-2.62,1.84-2.76,4.12-3.24,6-1.25,11.89-1.06,17.87-.74,2.63.14,4.35-2.05,5.83-3.3,5-4.19,11.12-3,16.57-4.72a2.15,2.15,0,0,1,1.7.06c1.76,1.5,3.07,1.9,4.58.66,3.61-3,5.54-7.1,7.28-11.3a1.29,1.29,0,0,0-.57-1.84,2.15,2.15,0,0,0-2.75,1.08c-.63,1.67-1.72,2.69-3.72,4.37.84-3,1.77-4.88,3.44-6.14s1.83-2-.36-2.67a27.84,27.84,0,0,0-3-1c-1.82-.3-2.57-1.1-1.87-2.94s0-2.43-2-3c-3-.92-6.26-.14-9.32-1.91-1.35-.78-4.26.53-6.6.15s-2.87-1.14-1.83-3.31c.81-1.68,2.29-3.13,2.07-5.23.33-1.48,2.32-1.71,2.51-3.3,3.58.3,5.37-1.56,6.76-4.74,3.36-7.71,7.28-15.19,10.59-22.92,1.75-4.09,2.09-8.74,4.5-12.64a1.45,1.45,0,0,1,1.07-.68c.2,3.85-2.83,6.81-3.24,10.48s-2.1,7.24-3,11c2.16-3.8,7-5.69,7.07-11.64,1.9,3.63.7,6.2-.31,8.72-2,5.08-4.18,10.11-6.23,15.18-.43,1.06-.13,2.89,1,2.23,2.83-1.65,4.63,7.56,7.42.54.66-1.65.91-3.46,1.56-5.11,3.77-9.52,8.27-18.72,14.44-26.89,5.53-7.32,10.38-15.33,19.59-19.26,4.54-1.94,8.83-4.68,13.38-6.87-1.26,1.57-.74,5-4.28,4a.44.44,0,0,0-.35.06c-2.72,2.28-4.84,5.11-7.15,7.76l-3.15,1.44a24,24,0,0,0-11.21,12.91l0,0c-1,0-1.52.52-1.43,1.58.1,1.3,1.26,1.27,2.06,1.64a1.1,1.1,0,0,0,1.65-.78c.5-1.52,1-3,3.11-2.7.54.07,1-.49.76-.91-1.46-2.42,2.89-3.19,1.56-5.73-.26-.5,1.34-1.14,2.32-.57.68.4,1.33.63.6,1.86-1,1.68-.75,1.88,1.17,1.7.77-.07,1,.42,1.39.81a3.54,3.54,0,0,0,5.71-.59,10.47,10.47,0,0,1,7-4.9c3.33.16,2.51-2.64,3.35-4.4-1.49-.51-3.22-.76-3.81.3-1.53,2.74-2.59,1.3-3.84,0,0-.8-.36-1.89.7-2.13,3.39-.77,5.24-3.26,7-5.92.25-.38.67-1.14.71-1.12,3.92,1.93,7.6-2,11.47-.44-.12.16-.37.41-.33.47C273.17,212.13,273.39,211.82,273.59,211.59Zm-82.06,58.56c1.91,3.6,4.95,2.19,8.44,1.88-2.12-.49-4.23.27-4.36-2.31a3.82,3.82,0,0,0,3.88-3.61c-3.53-1.89-5.63,1.73-8.61,2.29C189.47,268.67,190.6,269.77,191.53,270.15ZM291.65,250.7c1.73.95,2.68,2.81,4.83,3,5.27.37,10.25,2,15.17,3.83,1.45.53,3.17,0,4.38,1.24,3.2,3.22,7.69,4.31,11.33,6.83,2,1.38,4.55,1.4,6.93,1,1.9-.29,2.11-1.75.81-2.74A68.91,68.91,0,0,0,321,255.07a66.21,66.21,0,0,0-16-4.5C300.65,249.89,296.1,248.45,291.65,250.7Zm-.84,13.12c-1.44,0-3.22,0-5,0-1,0-1.6.4-1.62,1.46,0,.72,0,1.65.79,1.78,5,.74,9.87,3.85,15.22,1.58,1-.43,2.91-.19,2.82-1.53s-1.52-2.26-3-2.62A29.48,29.48,0,0,0,290.82,263.82Zm-30.61,15.53c7.25,1.85,14.53,3.53,22.09,2.31C275.29,277.71,267.7,279,260.21,279.35Zm37.21-4.49c2.58-.74,5-1.7,7.56-.55.79.35,1.37-.37,1.58-1.07.45-1.47-1-2.62-.77-4.16.07-.38-1.11-.48-1.57-.17C301.75,270.6,299,272,297.42,274.86Zm-35.24-45.51c1.21-.42,1.74-1.65,1.86-3.07.06-.74.19-2-1-1.84-2,.2-1.44,2.39-2.27,3.55C260.25,228.73,261,229.22,262.18,229.35Zm27.46,51c2.86.57,4-1.61,6.11-3.51C292.2,276.37,291.42,279.18,289.64,280.37Z"/><path class="cls-3" d="M140.88,214.84c1.3.05,2.71-.19,3.88.23,2.6.93,4.61.17,6.6-1.45,2.22-1.81,4.52-3.53,7.7-3,.91.16,1.73,0,2.55.88,5.56,5.79,5.34,3.32,10.58.17,1.52-.92,2.4-3.94,4.42-2.66,1.62,1,.62,3.52,0,5.31-1.62,4.56,0,8.92.75,13.33.19,1.09,1,2.24,2.15,2,1.34-.3,2.86-1.15,2.86-2.79,0-4,3.7-3.31,5.71-4.64,1.06-.7,2.34.27,2,1.92a7.83,7.83,0,0,0-.42,3.59,73.91,73.91,0,0,0,7-14.48c.44-1.19.89-2.54,2.43-1.19,3.54,3.1,8.18,4.41,11.79,7.36.79.64,2.65,1,1.64,2.55-.84,1.28-2.17,1.16-3.39.07-2.08-1.87-4.95-2.17-7.34-3.47s-3.84.57-4.23,2.34c-1.18,5.31-4.61,10-3.28,16.07,1,4.38-6.24,10.37-11.64,10.22a9.56,9.56,0,0,0-5.28,1.31c-1.09.66-3.85,1.21-1.93,3.78.61.82,0,1.34-.85,1.38a38.74,38.74,0,0,1-3.94.06c-7.37-.34-14.52,1.63-21.8,2.13-.74.05-1.53.24-1.44,1.18s1,1,1.67.92c3.2-.21,6.43-.28,9.6-.75,8.8-1.28,17.64-.33,26.45-.56,3.18-.08,2.37,2.19,1.86,3.72a40.69,40.69,0,0,1-4.2,9.42,11.08,11.08,0,0,1-5.84,1.21c-3.38-.13-6.77,0-10.16,0v.64H178l.11.49-29.18,9.39c4.33.8,8.38-.21,12.44-1.06,1.9-.4,3.79-1.38,5.77-.28.14,2.35-1,2.94-3.28,3-8.81.24-17.55,1.21-25.85,4.39-3.12,1.19-5.37-1-8-1.41-10.27-1.64-20.37-4.26-30.68-5.76a5.71,5.71,0,0,0-6.49,3.23,178.67,178.67,0,0,1-9.05,16.2c-1.34,2-2.57,4.23-5.44,5.34,1.42-6.43,7.48-9.92,9.27-16.36a11.1,11.1,0,0,0-4.51,2.79c-7.15,7-14.69,13.61-20.1,22.11-1.37,2.16-4.07,1.81-5.3,3.79-1.48-4.37-1.6-8.68.69-12.85.54-.2,1.35-.25,1.56-.63,3-5.41,7.17-10,10.74-14.94a1.73,1.73,0,0,0-.15-2.31c-1-1-1.45.28-1.92.78-2.1,2.18-3.7,4.85-6.34,6.51-1.65-5.31,2.53-13.66,8.16-16.26,4.25-2,7.63-5.55,12.51-6.39,1-.18,2-1.16,3.27-1.12s2.5-1.15,2.43-1.75c-.57-5.16,3.71-5.09,6.54-5.63s4.56-1.7,5.32-4.34c.88-3.06,3.09-4,5.77-3.09s3.6-.58,4-2.47c.91-4,3-6.33,7.28-6.33a1.94,1.94,0,0,0,1.93-1.37c.43-3.08,2.54-4.72,4.92-6.13,1.47-.87,1.1-1.92.48-3-1.26-2.22-.39-3.66,1.9-3.62,3.34.06,4.11-2.3,5.07-4.55,1.39-3.29,2.66-6.47,6.14-8.41C139.4,218.77,139.95,216.46,140.88,214.84Zm7,21.66a2,2,0,0,0-1.91.67c-3.91,3.29-5.48,10.93-3.16,16.33,2.72-5.52,3.62-11.36,5-17l.54-.74-.43-.16Zm-8.91,34c1.7-5.34,5-10.49,1.88-16.38a5.49,5.49,0,0,1-.63-3.1c.32-3.72-.76-7.31-1.2-11a10.7,10.7,0,0,0-2-5.56c-.09-.12-.9.15-.89.17.27,2.05-.14,4.17,1,6.13a4.74,4.74,0,0,1-.74,5.94c-1.43,1.3-1.45,2.51-1.5,4-.11,3.27-1.54,4.11-4.46,2.61-2.6-1.33-3.73-.78-4.08,2-.16,1.26.31,2.64-.9,3.67-1.47,1.26-2.45-1.1-3.85-.56-.13,1.21,1.14,2.79-.12,3.35-1.78.8-2.2-2.33-4.35-2,.08,2.18.79,5.5-3.26,2.65a1.14,1.14,0,0,0-1.59.35,1.45,1.45,0,0,0,.72,1.83,3.76,3.76,0,0,0,2.06.29c5.93-.51,10.74,2.26,15.51,5.19-2,2.37,1.12,2.93,1.62,4.42a1.06,1.06,0,0,0,1.79.25C135.52,273.22,137.89,272.64,138.92,270.53Zm-27.3,1.09c0,.4-.05.59,0,.63,6.63,5.15,14.92,6.24,22.45,9.2.47.18,1.06.08,1.14-.46.14-.92-.64-1.16-1.34-1.34a54,54,0,0,1-9.14-3.69C120.6,274.09,116.58,271.3,111.62,271.61Zm29.07,6.29c3.42-4.19,8.25-2.77,12.56-5-3.14-1-5.54.09-7.85-.08C141.92,272.52,140.53,273.65,140.69,277.91Zm20.06-54.64c.08.81.69,1.52.34,2.41-.24.61-.17,1.18.62,1.36a1.4,1.4,0,0,0,1.6-.46c1-1.48,1.89-3,2.75-4.52.43-.78.5-1.55-.59-2A3.41,3.41,0,0,0,160.75,223.27ZM85.06,275l.18.92L100,273.43l-.18-1C94.61,271.78,89.92,273.83,85.06,275Zm61,6.88c-.16.09-.6.18-.67.39-.19.6.37.75.78.85.22.05.68-.13.72-.29C147,282.32,146.71,282,146,281.88Z"/><path class="cls-3" d="M341.35,195.68c-13.34-4.83-27.1-8.11-40.88-11.34-4.54-1.07-9.2-1.28-13.75-2.19-2.43-.49-2.88,1.26-3.3,2.83a50.35,50.35,0,0,0-1.63,21.12c-2.49-2.11-2.47-2.11-3.36-8.45-.35-2.47-.69-5-1.2-7.39-1.37-6.6-3.88-8.61-10.62-8.57,0-2.59,3.16-3.53,3.09-6.1,0-.52.76-1.06,0-1.54-.51-.31-.8-.35-1.42.23-1.37,1.29-2.2.4-1.75-1.09.59-2-.11-2.58-1.91-2.85-2-.3-3.16-2-4.71-3.06s-.22-2,.88-2.51c2.26-1,1.72-1.69.2-3.16-2-1.89-4-3.63-6.12-5.37-.6-.5-1.11-1.05-1.78-.5s0,1.34.33,1.86a9.41,9.41,0,0,0,1.56,1.42c.62.58,1.35,1.23,1,2.13s-1.23.07-1.85.14c-3.22.36-6.13,2.29-9.5,1.91-4.8-.53-9.47.49-14.16,1.2-1.6.25-1.69-.58-1.47-1.56a12.16,12.16,0,0,0,.69-3.84l.15-.29-.17.27c-2.7-.05-2.94,2.51-4,4-3,4.11-5.44,4.09-7.85-.32a3.24,3.24,0,0,0-.34-.63c-2.06-2.3-2.06-2.3-1.79-5-1.54.24-2.37,1.48-3.51,2.19-2.28-2.53-2.41-5.86-3.22-8.91-2.35-8.86-3.71-17.93-5.42-26.93a12.2,12.2,0,0,1-.21-3.56c.26-2.33.33-4.18-2.09-5.86-1.56-1.08-1.68-3.73-1.61-5.89.82.12,1.8.07,2.23.9.82,1.62.78,4.17,3.79,3.11.06,0,.25.14.26.22.26,4.16,4.2,3.93,6.46,5.75,2,1.58,3.27.85,4.82.34,6.28-2.07,9.12-7.2,11.28-12.92a25.8,25.8,0,0,1,1.67-3.55,4.31,4.31,0,0,1,4.4-2.43c2.13.18,2.4,2,2.65,3.34a8,8,0,0,0,4,5.52c1,.64,4.48,1.15,1.81,3.91a3.49,3.49,0,0,0,.82,1,17.12,17.12,0,0,0,10.44,4.08c1,0,2.54.54,2.55-1.05s-1.43-.44-2.18-.67a7.1,7.1,0,0,1-2-.87c3.58.06,6.53-1.9,9.77-2.81s4.59-4.21,4.78-7.62a22.35,22.35,0,0,0-.13-5c-.32-1.87-.46-4.57-3.48-1.74-1.1,1-.88,0-1.31-1-1-2.42-3.63-2-6.21-1.37,3.95-2.82,8.71-2.7,10.26,0,2,2.31,4.77.82,7.15,1.28,2.45,2.17,5.47,2.69,8.57,3l.36.32-.31-.37c-2.1-1.9-5.06-1.77-7.4-3.1l.14-1.39c1.39-1,3.09-1,4.68-1.34.9-.17,2.15-.27,2.53.81,1.48,4.33,6.26,5.14,8.75,8.49-.64,1-1.73.6-2.45.32-5.72-2.18-11.92-2.63-17.57-5.06a1.52,1.52,0,0,0-2.19,1.83c.65,2.13.05,4-.42,5.94-.27,1.11-.7,2.34.68,2.66,1.09.25,2.23,1.07,3.55-.72,2.75-3.71,7.13-3.87,11.25-3.08a4.31,4.31,0,0,1,3.16,4.56,87.86,87.86,0,0,0,1.1,14c.12.82.06,1.9,1,2.14,1.22.32,1.62-1,1.94-1.72,1.68-3.5,2.39-7.37,4-10.95.69-1.58,1.13-2.57,3-2.89,1.59-.27,3.06-1.26,4.58-1.93,2.47-1.09,4.83-1.2,7,.74l.09,2.11c-.8-.12-1.6-.28-2.41-.35a7.84,7.84,0,0,0-7.32,3.37,1.75,1.75,0,0,0,.12,2.55c.66.51,1.88.57,2.11-.36,1-4,3.49-2.32,5.77-1.71,1.27.34,2.74,1.29,3.46-.81,3.46,4.62,2.11,9.47.09,13.95-2.74,6.09-6.09,11.9-9.18,17.83-.86-1.06-1.36-1.5-3-.42-5.29,3.58-3.54,9.19-4.53,14,0,.17.7.51,1.08.76,1.43,4.24,2.83,8.49,4.32,12.71.47,1.34,1.58,2.59,1.66,3.92.28,4.91,3.79,5.25,7.4,5.8a196.47,196.47,0,0,1,25.8,5.67c1.31.38,2.49,2.74,4.13.3.14-.21,1.55.48,1.93,1.62A15.47,15.47,0,0,1,341.35,195.68Zm-60.82-25.21c-.67-1.53,1.15-2.44,1-4-2.34.55-2.46,2.25-2.47,4-4.76.34-3.31,6.06-6.85,7.53,2.44.24,3.57-1.78,5.26-2.49,2.91-1.22,3.51-2.56,1.6-5h1.44c2.63,1.63,4-.88,5.71-1.89.71-.41,1.74-1.24.95-2.3s-2-.38-2.77.25C283,167.69,282.36,169.66,280.53,170.47Zm15.7,9.89c.27-2.27-1.81-3.52-2.35-5.45a.91.91,0,0,0-1.46-.43c-1.73,1.18-4.08,1.52-5.1,3.66-.39.81-1.35,1.61-.66,2.58.55.78,1.54.34,2.34.36,1.66,0,3.33,0,5,.06,1.73,1.16,3.69,1,5.72,1.23C299.23,180.1,297.4,180.87,296.23,180.37Zm-55-65.29c-.19-.52-.31-1.15-1.08-1-.12,0-.28.5-.23.54a10.32,10.32,0,0,0,1.06.7c.21,2,2.62,2.42,3,4.27.12.56.48,1.28.26,1.66-.45.8-1.26.39-1.89.07-1.88-1-3.75-2.84-5.6-2.8-3.26.06-6.34,1-9.87.58-2.31-.29-5.29,2.64-7.54,4.62-4.58,4-3.21,10.39-5.48,15.39a3,3,0,0,0,.27,2.73c2,2,2.16,4.46,2.33,7,.11,1.6.8,2,2,.85a14.3,14.3,0,0,0,1.72-2.27c2.23-3.23,5.16-5.18,9.22-5.08,2.75.07,5.49.13,8.23.29,6.87.41,12.74,2.58,16.18,9.14.36.69.68,1.85,1.92,1.76.62-1.16-.05-2.08-.43-3.07-1-2.54-2-4.91.42-7.51,1.54-1.66.73-3.85-.3-6-1.91-3.9-4.58-7.3-6-11.61C248.1,121.31,247,116,241.24,115.08Zm55.62,19.79c1.4,1.18,2.69-2.59,4.23-.06.26.43.78-.28.54-.74-.8-1.54.45-2.4,1.06-3.48,2-3.52.85-9.71-2.15-10.15-2.78-.41-4.31-1.46-4.87-4.28-1.07,2.81-1.86,5.32,0,8C298,127.45,298.8,131.06,296.86,134.87Zm-70.11,18c3.82-.35,7.25-1.17,10.57-.83s2.37-1.55,2.12-2.91c-.54-2.95-3.08-3.9-5.54-4.27-2.78-.42-5.77-.62-7.78,2.13-.39.54-.93,1.59.05,1.74C229.9,149.23,227.18,151.07,226.75,152.83Zm45.82,18.8c3.46-5.47,6.6-10.38,9.68-15.32.73-1.17,2.82-2.13,1.17-3.87a9.58,9.58,0,0,0-3.75-2.6c-1.79-.57-3.23-.37-3.51,2.4-.53,5.26.86,10.88-2.7,15.69A3.32,3.32,0,0,0,272.57,171.63Zm19.05-29.28a10.08,10.08,0,0,0-.71,1c-.87,1.67.27,2.64,1.34,3.56.3.26,1.11.44,1.23.29,1-1.29-.57-2-.8-3C292.54,143.59,292.56,142.77,291.62,142.36Zm-86.12-19.92c1.54-1.56,1.32-3.12,1.32-4.58,0-.06-.77-.28-.9-.15C204.64,119,205.45,120.48,205.51,122.43Z"/><path class="cls-3" d="M200.2,182.72c-1.58,2.61-1,3.8,2.2,3.74a8,8,0,0,1,3.93,1.41c-4.7-.93-7,5-11.89,3.71-1.11-.3-1.69,1.46-2,2.61a2.69,2.69,0,0,0,1.32,3.05c1.1.81,2,.32,2.82-.52s1.83-1.52,3.16-.83a3,3,0,0,1-2.59,2.2c-2,.32-3.56.86-4.13,3.06a1.19,1.19,0,0,1-1.78.66c-1.6-1-3.58-1.64-4.18-3.61-.29-.95-.36-2.45.18-3.09,3.27-3.8,0-3.06-2.09-3.2C189.76,188.22,194.46,184.62,200.2,182.72Z"/><path class="cls-3" d="M294.88,69.31c4.33.56,5,5.07,7.79,7.3,2.62,2.08,4.21,5.11,6.13,7.8.6.84,1.08,1.55,2.24,1.25-1,4.14.71,8.33-.27,12.47-4.25-6.54-8.55-13-11-20.57-.72-2.22-2.5-4.15-4-6.06a3.59,3.59,0,0,1-.86-2.22Z"/><path class="cls-2" d="M341.43,244.3c-4.46-.48-7.73-3.9-12-4.87-4.11-.93-8.44-3.12-12.27-2.46-4.49.78-8.66-.63-12.93,0,11.84-2.57,23.63-3.25,35.22,1.22.83.32,1.35-.18,2-.3Q341.45,241.12,341.43,244.3Z"/><path class="cls-3" d="M147.79,323.28c.58,2.4,2.51,1.06,3.83,1.33,1,.21,2.67-1.43,3,.11.44,1.85-1.79,1.24-2.81,1.81-.23.13-.26.62-.38.94l-18.13-.05c4.1-3.93,9.15-4.53,14.49-4.11Z"/><path class="cls-2" d="M62.25,294.05c2.64-1.66,4.24-4.33,6.34-6.51.48-.5.92-1.73,1.92-.78a1.73,1.73,0,0,1,.15,2.31c-3.58,5-7.75,9.53-10.74,14.94-.21.38-1,.43-1.56.63C58.59,300.72,60.77,297.52,62.25,294.05Z"/><path class="cls-3" d="M341.39,211.44a127.72,127.72,0,0,0-30.92,5.51,26.85,26.85,0,0,1,15.3-4.92c-.34-1.28-2.28-.24-2.32-2.09,6,1.39,12,.33,18,0Z"/><path class="cls-2" d="M295.58,159.68c-.38-.26-1.11-.59-1.08-.76,1-4.81-.76-10.42,4.53-14,1.6-1.08,2.1-.64,3,.42C299.15,149.8,299.73,155.8,295.58,159.68Z"/><path class="cls-3" d="M164.5,202.52a133,133,0,0,1-19.81,4.08c.76-1.93,2.57-2.32,4.25-2.76q6.08-1.6,12.22-3C162.59,200.54,164.37,200,164.5,202.52Z"/><path class="cls-3" d="M341.39,217.9c-7.33-.8-14.66-1.37-22-.28,7.06-3.1,14.63-2.86,22.05-3.47Z"/><path class="cls-2" d="M311.07,113.55c-.72,2.11-2.19,1.15-3.46.81-2.28-.6-4.77-2.26-5.77,1.71-.23.93-1.45.88-2.11.36a1.75,1.75,0,0,1-.12-2.55,7.84,7.84,0,0,1,7.32-3.37c.81.07,1.61.23,2.41.35A5.49,5.49,0,0,1,311.07,113.55Z"/><path class="cls-3" d="M200.83,94.43c7.53-4.83,21.53-5.21,26.14,0-9.55-4.59-18-4-25.85,2.18C200.92,95.87,199.76,95.3,200.83,94.43Z"/><path class="cls-3" d="M341.43,207.09c-6.27-.76-12.51.91-18.79.23,6.05-2.35,12.44-2,18.72-2.5Z"/><path class="cls-3" d="M179.32,197c.67,3.81-1.75,3.78-4.36,3.51-.46-1-2.49,0-2.31-1.43.15-1.2,1.56-1,2.6-1.19C176.62,197.71,178,197.31,179.32,197Z"/><path class="cls-3" d="M201,96.76c2.34.8,3.8,2,1.69,4.68L200,99.15C200,98.24,199.81,97.23,201,96.76Z"/><path class="cls-3" d="M190.82,72.23l-3.1,4.92A4.65,4.65,0,0,1,190.82,72.23Z"/><path class="cls-3" d="M187.79,80.09a2.52,2.52,0,0,1,.61,2.28A1.55,1.55,0,0,1,187.79,80.09Z"/><path class="cls-3" d="M191,86.5a1.31,1.31,0,0,1,1.31,1.28C191.58,87.66,191.05,87.33,191,86.5Z"/><path class="cls-3" d="M311.65,81.47c-1.14-.67-.87-1.13.21-1.49A1,1,0,0,1,311.65,81.47Z"/><path class="cls-1" d="M226.66,60.07c-.67-.78-1.63-1.57,0-2.38,1.4.82,2.86,2.06,3.75-.55,1.34.64,3.06,1,3.95,2,1.89,2.19,4.21,1.49,5.71.52,2.55-1.65,4.59-3.93,7.94-1.84.38.24,1.15-.14,1.73-.23l-.13,2.32c-2.86,4.41-7.28,3.29-11.51,3.67a50.06,50.06,0,0,1-8.19.44c-1.54-.11-3-.26-1.95-2.45C228.23,60.43,228,59.8,226.66,60.07Zm4.2,1.13a3.37,3.37,0,0,0,1,.18c.52-.09,1.47-.24.69-1C232.06,59.91,231.33,60.5,230.85,61.2Z"/><path class="cls-3" d="M249.67,49.23c2.34-.94,2.34-.94,2.95.32-2.21,1.13-.24,2.69-.4,4-.2.12-.51.39-.59.34-3-2.09-6.17-.59-9.22-.3-2.48.24-1.71-1.63-2.31-2.66-.89-1.54.39-1.39,1.15-2.07,1.67-1.48,2.71-2,4.26.11.65.86,2.12.95,3.34.87.17.26.38.64.7.31S249.64,49.55,249.67,49.23Z"/><path class="cls-3" d="M241.78,90.8c-1.15,1.77-2.33,3.52-3.43,5.31-.4.65-.76,1.19-1.6,1.18H227.2c.06-1.91,1.61-1.63,2.41-1.8,4.31-1,8.54-2,12.2-4.65Z"/><path class="cls-1" d="M226.21,51.25l2.72-.68c1.34,1.8-1.8,3.23-.41,5-.83.24-1.73.39-1.85,1.5C223.53,56.41,223.46,55.55,226.21,51.25Z"/><path class="cls-1" d="M231.13,50c1.44.11,2.22-.77,2.83-1.9,1,.54,1.74,1.49,3.1,1.54-1.48,1.84-2,4.46-4.56,4.16C232,53.78,230.27,51.81,231.13,50Z"/><path class="cls-3" d="M250.53,88.38a21.93,21.93,0,0,1,11.83,1.06c.66.27,1.55.62,1.21,1.45s-1.18.65-1.81.18C258.4,88.57,254.39,88.81,250.53,88.38Z"/><path class="cls-1" d="M273.39,96.47c-2.38-.46-5.1,1-7.15-1.28,2.83-.26,5.65-.79,8.51-.26l-.14,1.39Z"/><path class="cls-3" d="M249.58,59.89l.13-2.32c1-.3,1.75-1.89,3-.56a1.6,1.6,0,0,1,.33,2C252.22,60.39,250.87,60.07,249.58,59.89Z"/><path class="cls-1" d="M252.21,53.57c.17-1.34-1.81-2.89.4-4,3.77,1.69,2.23,3.6.23,5.53.26-.53.34-1-.5-.8Z"/><path class="cls-3" d="M226.67,57.11c.12-1.11,1-1.26,1.85-1.5a2.32,2.32,0,0,1,1.86,1.52c-.89,2.62-2.35,1.37-3.75.55A.62.62,0,0,1,226.67,57.11Z"/><path class="cls-3" d="M207.18,94.12c1.25.87,1.05,1.81.4,3C206.1,96.19,207.09,95.06,207.18,94.12Z"/><path class="cls-3" d="M207.79,100.23a.81.81,0,0,1-1.1.5.93.93,0,0,1-.56-1.35.91.91,0,0,1,.81-.37A1,1,0,0,1,207.79,100.23Z"/><path class="cls-3" d="M226.66,60.07c1.31-.27,1.57.36,1.28,1.48C227,61.46,226.36,61.19,226.66,60.07Z"/><path class="cls-1" d="M249.67,49.23c0,.32.06.75-.12.94s-.53,0-.7-.31Z"/><path class="cls-3" d="M252.34,54.28c.84-.16.76.26.5.8Z"/><path class="cls-3" d="M241.81,90.84l.28-.3c0,.06,0,.15-.06.18a1,1,0,0,1-.25.09Z"/><path class="cls-3" d="M294.91,69.28l-.3-.16.27.19Z"/><path class="cls-1" d="M167.13,280.16c-2-1.1-3.86-.12-5.77.28-4.07.86-8.12,1.86-12.44,1.06l29.18-9.39-.11-.49H166.66V271c3.39,0,6.78-.1,10.16,0a11.08,11.08,0,0,0,5.84-1.21c.2.07.41.14.6.22-.19,1.6-2.18,1.82-2.51,3.3C175.55,274.29,171.24,277,167.13,280.16Z"/><path class="cls-3" d="M258.28,302.5a3.66,3.66,0,0,1,3.63,2c-1.92-.06-3.17-.14-3.59-2Z"/><path class="cls-3" d="M147.82,323.31l.13-.3-.16.27Z"/><path class="cls-3" d="M199.59,208.48c4.45,1.26,9,1.27,12.95,3.36,1.29.68,2.44.26,3.82-.8,4.66-3.59,5.7-9,7.51-14,.49-1.36-.23-2.71-.81-3.76-2.88-5.13-2.84-10.67-2.61-17C221.16,178,222,179,222,180c0,3.55,1.93,4.88,5.1,5.52,3.74.76.25,3.49,1.16,5.09.72,1.27,5,0,2.48,3.73-1.47,2.24,1.08,3.75,2.29,5.29.42.54,1.9.48,2.08-.52.68-3.78,2.49-2.59,4.44-1.17.81.59,1.61.15,1.6-.59,0-2.52,2.29-2.56,3.18-3.43,2.65-1-2,5.11,2.67,1.75a7.16,7.16,0,0,1-3.48,6.81c-7.85,4.7-15.79,9.26-23.69,13.88-.73.43-1.37.86-2.29.3-5.35-3.25-11.28-5.12-17.13-7.17C200.08,209.38,199.87,208.83,199.59,208.48Z"/><path class="cls-3" d="M245.87,235.36a8.27,8.27,0,0,1,3.84-.47c7.37.83,14.76,1.53,22.11,2.53,1.4.19,2.78-1,4.07.13q-.06,1.49-.13,3a265.6,265.6,0,0,1-27.86-1.95c-1.94-.27-2.19-1.5-1.93-3.1Z"/><path class="cls-3" d="M249.58,261.7a4.07,4.07,0,0,1-3.86-2.52c-.56-1.43,3.58-4.73,5.65-4.54a2.77,2.77,0,0,1,2.47,3.25C253.63,260.25,252.25,261.81,249.58,261.7Z"/><path class="cls-3" d="M218.06,234.73c-2.73-1.75-5.36-3.55-3-7.06.94-1.37,2.65-1.48,4.09-.32C222.79,230.27,219.85,232.36,218.06,234.73Z"/><path class="cls-1" d="M284.15,206.39c.39-1.55.64-2.8,1-4,.54-1.8,3.91-2.78,5.28-1.53,1.11,1,1.63,2.54,0,3.13C288.44,204.72,286.88,206.66,284.15,206.39Z"/><path class="cls-1" d="M253.36,220.84c1.25,1.35,2.31,2.79,3.84,0,.59-1.06,2.32-.81,3.81-.3-.84,1.76,0,4.56-3.35,4.4-1.1-2-3.53-1.05-5-2.27l.05-1.51Z"/><path class="cls-1" d="M245.87,235.36l.11.14c-1.87,3.32-4.94,2.34-7.78,2.18-.52-.62-1.78-.78-1.11-2.12a2.06,2.06,0,0,1,2.12-1.44l5.93.42Z"/><path class="cls-1" d="M252.27,233.69c1-2.67,5.13-4.14,7.65-2.77,1.74.94,0,2.33.46,3.42l-4.82-.13a2.26,2.26,0,0,0-2.32-.17Z"/><path class="cls-3" d="M237.37,183.83c-1.83-3-.66-4.95,1.71-6.44.87-.55,1.25.26,1.57.89C242.3,181.66,239.61,182.5,237.37,183.83Z"/><path class="cls-1" d="M275.76,240.54q.06-1.49.13-3c2-.72,4-.18,5.94-.28l-1.37,3.47Z"/><path class="cls-3" d="M252.72,221.21l-.05,1.51a7.46,7.46,0,0,1-5.81.21l1.33-3.64C249.94,219.38,251.67,219.48,252.72,221.21Z"/><path class="cls-1" d="M248.19,219.29l-1.33,3.64c-1.27-.81-4.1,1.12-3.92-2.23l3.15-1.44Z"/><path class="cls-3" d="M288.42,230.87c-1.84.5-3.53-.3-5.28-.58a4.57,4.57,0,0,1,1.36-2.54c1.36.07,2.76-.27,4.06.38Z"/><path class="cls-3" d="M280.46,240.74l1.37-3.47h3.89C285.46,240.85,283.3,241.31,280.46,240.74Z"/><path class="cls-1" d="M284.5,227.75a4.57,4.57,0,0,0-1.36,2.54,2.55,2.55,0,0,1-2.52.42,5.52,5.52,0,0,0-.64-3.2C281.46,228.27,283.12,225.37,284.5,227.75Z"/><path class="cls-1" d="M282.57,210.64c-1.62-.54-3.21,2.5-4.85,0,1.21-2,3.33-1.53,5-1.5C284,209.21,282.37,210.09,282.57,210.64Z"/><path class="cls-3" d="M280.56,232.87c2.24-1.4,3.44,2,5.59,1.28.07,0,.21,1.37-.36,1.42a15,15,0,0,1-4.79-.16c-1.17-.29-.32-1.65-.47-2.51Z"/><path class="cls-1" d="M292.55,221.76c.69,1.15-1.25,2-.35,3.19l0,.3-2.82.29-.1-.05c0-1.27,1.66-1.73,1.54-3.07C291.21,221.61,291.92,221.79,292.55,221.76Z"/><path class="cls-3" d="M178.76,252.43c2.71,0,5.4-.54,8.27.19C185.24,253.67,185.24,253.67,178.76,252.43Z"/><path class="cls-1" d="M288.42,230.87l.14-2.73.9-.81,1.81-.18C290.89,228.82,291,230.84,288.42,230.87Z"/><path class="cls-3" d="M291.28,227.15l-1.81.18q0-.9,0-1.79l2.82-.29C292.66,226.25,291.94,226.69,291.28,227.15Z"/><path class="cls-3" d="M198.18,206.37c.11.57-.21.68-.54.58a1.2,1.2,0,0,1-.73-.53c-.15-.38.15-.63.53-.52A2.91,2.91,0,0,1,198.18,206.37Z"/><path class="cls-3" d="M253.23,234a2.26,2.26,0,0,1,2.32.17A2.43,2.43,0,0,1,253.23,234Z"/><path class="cls-3" d="M251.51,267c.08.07.24.17.23.21a3.51,3.51,0,0,1-.26.52c-.08-.07-.24-.17-.23-.21A3.39,3.39,0,0,1,251.51,267Z"/><path class="cls-2" d="M291.65,250.7c4.45-2.25,9-.81,13.25-.14a66.21,66.21,0,0,1,16,4.5,68.91,68.91,0,0,1,14.15,8.81c1.3,1,1.1,2.45-.81,2.74-2.38.36-4.94.33-6.93-1-3.64-2.52-8.13-3.61-11.33-6.83-1.21-1.22-2.93-.71-4.38-1.24-4.92-1.79-9.9-3.45-15.17-3.83C294.33,253.51,293.38,251.65,291.65,250.7Z"/><path class="cls-2" d="M289.43,225.53q0,.9,0,1.79l-.9.81c-1.3-.65-2.7-.32-4.06-.38-1.38-2.38-3,.52-4.51-.24l-2.31-.39c-.83-1.06-1.63-.23-2.44,0-2-1-4.18-.07-6.23-.59-.87-.22-1.95.18-2.54-.8a1,1,0,0,1,.09-1c.92-.95,1.76-.1,2.55.27a6.07,6.07,0,0,0,5.45.05c1.29.06,2.82,1.24,3.7-.6.38-.79,1.19-1.75.57-2.61-.78-1.08-1.9-.39-2.87-.06-2.73-2.12-5.94-.89-8.92-1.18-.66-.06-1.33.53-1.48-.56-.11-.81.31-1.67,1.1-1.46,5.2,1.38,9-3,13.89-3.42,4.46-.43,8.94-.68,13.42-1,1.7-.12,2.21.83,2.77,2.14.68,1.62-.79,1.33-1.26,1.94a14.12,14.12,0,0,1-2.93,3.46c-.63,0-1.34-.15-1.68.65-2.13-.49-4.17-1.52-6.45-.29-1.12.6-1.09,1.37-1,2.32s.77,1.33,1.72,1.27c1.4-.09,2.81-.15,4.21-.22Z"/><path class="cls-2" d="M242.94,220.7c-.17,3.35,2.65,1.42,3.92,2.23a7.46,7.46,0,0,0,5.81-.21c1.45,1.22,3.88.28,5,2.27a10.47,10.47,0,0,0-7,4.9,3.54,3.54,0,0,1-5.71.59c-.42-.39-.62-.88-1.39-.81-1.92.18-2.17,0-1.17-1.7.73-1.23.08-1.46-.6-1.86-1-.57-2.58.07-2.32.57,1.33,2.54-3,3.31-1.56,5.73.26.42-.22,1-.76.91-2.08-.25-2.61,1.18-3.11,2.7a1.1,1.1,0,0,1-1.65.78c-.81-.37-2-.34-2.06-1.64-.08-1.06.41-1.55,1.43-1.58l.28.18-.32-.14A24,24,0,0,1,242.94,220.7Z"/><path class="cls-2" d="M290.82,263.82a29.48,29.48,0,0,1,9.17.67c1.52.36,2.95,1.28,3,2.62s-1.8,1.1-2.82,1.53c-5.35,2.27-10.17-.84-15.22-1.58-.83-.12-.8-1.06-.79-1.78,0-1.06.66-1.46,1.62-1.46C287.6,263.81,289.38,263.82,290.82,263.82Z"/><path class="cls-2" d="M260.21,279.35c7.49-.33,15.08-1.64,22.09,2.31C274.74,282.89,267.46,281.2,260.21,279.35Z"/><path class="cls-2" d="M297.42,274.86c1.61-2.85,4.33-4.26,6.81-5.95.46-.31,1.63-.21,1.57.17-.27,1.54,1.21,2.7.77,4.16-.21.7-.79,1.42-1.58,1.07C302.37,273.17,300,274.12,297.42,274.86Z"/><path class="cls-2" d="M191.53,270.15c-.93-.38-2.06-1.47-.65-1.74,3-.56,5.08-4.18,8.61-2.29a3.81,3.81,0,0,1-3.87,3.61Z"/><path class="cls-2" d="M276.79,229.85l2.41,1.45H264.78c3-1.86,6.27-1.14,9.46-.75A2.28,2.28,0,0,0,276.79,229.85Z"/><path class="cls-1" d="M276,221.85c1-.33,2.09-1,2.87.06.62.86-.19,1.82-.57,2.61-.88,1.84-2.42.67-3.7.6C274.86,224,276.21,223.25,276,221.85Z"/><path class="cls-1" d="M191.53,270.15l4.08-.43c.14,2.58,2.24,1.82,4.36,2.31C196.48,272.34,193.44,273.74,191.53,270.15Z"/><path class="cls-1" d="M262.18,229.35c-1.22-.13-1.93-.62-1.39-1.36.84-1.16.26-3.34,2.27-3.55,1.17-.12,1,1.09,1,1.84C263.92,227.7,263.39,228.93,262.18,229.35Z"/><path class="cls-2" d="M289.64,280.37c1.78-1.19,2.56-4,6.11-3.51C293.67,278.75,292.51,280.94,289.64,280.37Z"/><path class="cls-1" d="M276.79,229.85a2.28,2.28,0,0,1-2.54.7l1-3.39c.81-.26,1.62-1.09,2.44,0A3.32,3.32,0,0,0,276.79,229.85Z"/><path class="cls-2" d="M273.59,211.59c-.21.23-.42.53-.7.11,0-.06.21-.31.33-.47Z"/><path class="cls-2" d="M130.61,270.15c-4.76-2.93-9.58-5.7-15.51-5.19a3.76,3.76,0,0,1-2.06-.29,1.45,1.45,0,0,1-.72-1.83,1.14,1.14,0,0,1,1.59-.35c4,2.85,3.34-.47,3.26-2.65,2.15-.29,2.57,2.84,4.35,2,1.26-.57,0-2.14.12-3.35,1.39-.55,2.37,1.82,3.85.56,1.21-1,.74-2.41.9-3.67.35-2.8,1.49-3.36,4.08-2,2.92,1.5,4.35.67,4.46-2.61,0-1.5.07-2.71,1.5-4a4.74,4.74,0,0,0,.74-5.94c-1.19-2-.78-4.08-1-6.13,0,0,.8-.29.89-.17a10.7,10.7,0,0,1,2,5.56c.44,3.64,1.52,7.23,1.2,11a5.49,5.49,0,0,0,.63,3.1c3.1,5.89-.18,11-1.88,16.38Z"/><path class="cls-2" d="M111.62,271.61c5-.32,9,2.48,13.12,4.35a54,54,0,0,0,9.14,3.69c.7.17,1.48.42,1.34,1.34-.08.54-.67.64-1.14.46-7.53-3-15.83-4-22.45-9.2C111.57,272.2,111.62,272,111.62,271.61Z"/><path class="cls-2" d="M147.79,236.46c-1.4,5.68-2.31,11.52-5,17-2.32-5.4-.75-13,3.16-16.33a2,2,0,0,1,1.91-.67Z"/><path class="cls-1" d="M130.61,270.15l8.32.38c-1,2.11-3.4,2.7-4.9,4.29a1.06,1.06,0,0,1-1.79-.25C131.73,273.08,128.6,272.52,130.61,270.15Z"/><path class="cls-1" d="M140.69,277.91c-.16-4.26,1.22-5.39,4.71-5.13,2.31.17,4.71-.91,7.85.08C148.94,275.14,144.11,273.72,140.69,277.91Z"/><path class="cls-2" d="M160.76,223.27a3.41,3.41,0,0,1,4.71-3.22c1.09.47,1,1.24.59,2-.86,1.54-1.79,3-2.75,4.52a1.4,1.4,0,0,1-1.6.46c-.78-.19-.85-.76-.62-1.36C161.44,224.79,160.84,224.08,160.76,223.27Z"/><path class="cls-1" d="M85.06,275c4.86-1.17,9.55-3.21,14.76-2.51l.18,1-14.76,2.48Z"/><path class="cls-1" d="M146,281.88c.69.1,1,.44.83.95,0,.16-.51.34-.72.29-.4-.1-1-.25-.78-.85C145.43,282.06,145.86,282,146,281.88Z"/><path class="cls-2" d="M147.84,236.5l.06-.94.43.16-.54.74Z"/><path class="cls-2" d="M241.24,115.08c5.76,1,6.86,6.23,8.19,10.29,1.42,4.31,4.1,7.7,6,11.61,1,2.1,1.84,4.29.3,6-2.41,2.6-1.4,5-.42,7.51.38,1,1,1.91.43,3.07-1.24.08-1.56-1.07-1.92-1.76-3.44-6.56-9.31-8.73-16.18-9.14-2.74-.16-5.49-.22-8.23-.29-4.05-.1-7,1.85-9.22,5.08a14.3,14.3,0,0,1-1.72,2.27c-1.18,1.13-1.88.75-2-.85-.17-2.52-.3-5-2.33-7a3,3,0,0,1-.27-2.73c2.27-5,.9-11.36,5.48-15.39,2.25-2,5.24-4.91,7.54-4.62,3.53.44,6.61-.52,9.87-.58,1.85,0,3.72,1.83,5.6,2.8.63.33,1.43.73,1.89-.07.22-.38-.14-1.1-.26-1.66-.4-1.85-2.8-2.29-3-4.27ZM240,135.28c.86-.32,1.5-2.36,2.91-.36.73,1,1,2.7,2.75,3.06.84-1.44-.69-4.57,3-3.72,1,.22,1.32-1.75.42-2.54-1.9-1.65-3.13-6.93-5.92-4-2.58,2.71-4.7-.13-6.51,1.36a1.21,1.21,0,0,0-.29,1.61c.67,1.06-.1,2.73,1.42,3.41.94-.52.1-2.71,1.71-2.18C241.36,132.54,238.79,134.22,240,135.28ZM220.15,140c2.36-.92.84-3.27,2-4.36s1.59-3,3.54-2.65c.85,1.27-1.55,3.11.52,3.49,2.31.42-.15-1.94.95-2.55.09-.05.14-.19.21-.28,2.65-2.92,3.51-5.14-1.92-4.91-.2,0-.44-.19-.61-.34-1.52-1.33-2.63-.35-3,1C220.87,132.78,218.39,136,220.15,140Zm18.88-3.2c-3.66-.54-5.62,1.78-8.19,1.42a.91.91,0,0,0-1,1.12c.08.62.58.74,1,.75C233.72,140.14,236.2,139.24,239,136.84Zm-8.77-.16a6,6,0,0,0,1.87-2.62c.24-.45-.37-1.2-.56-1-.87.79-2.71.56-2.62,2.38C229,136.07,229.24,136.54,230.26,136.69Z"/><path class="cls-2" d="M296.86,134.87c1.94-3.82,1.16-7.43-1.16-10.71-1.9-2.69-1.11-5.2,0-8,.57,2.81,2.1,3.87,4.87,4.28,3,.44,4.13,6.64,2.15,10.15-.61,1.08-1.85,1.94-1.06,3.48.24.46-.28,1.17-.54.74C299.55,132.28,298.26,136,296.86,134.87Z"/><path class="cls-2" d="M226.75,152.83c.43-1.77,3.15-3.6-.58-4.14-1-.14-.45-1.2-.05-1.74,2-2.76,5-2.56,7.78-2.13,2.47.38,5,1.33,5.54,4.27.25,1.36,1.12,3.24-2.12,2.91S230.57,152.48,226.75,152.83Z"/><path class="cls-2" d="M272.57,171.63a3.32,3.32,0,0,1,.89-3.69c3.56-4.82,2.17-10.44,2.7-15.69.28-2.76,1.72-3,3.51-2.4a9.58,9.58,0,0,1,3.75,2.6c1.65,1.74-.44,2.69-1.17,3.87C279.17,161.25,276,166.16,272.57,171.63Z"/><path class="cls-2" d="M294,181.15c-1.66,0-3.33,0-5-.06-.8,0-1.8.42-2.34-.36-.68-1,.28-1.77.66-2.58,1-2.14,3.37-2.48,5.1-3.66a.91.91,0,0,1,1.46.43c.55,1.93,2.63,3.18,2.35,5.45Z"/><path class="cls-2" d="M279.11,170.47c1.91,2.46,1.31,3.81-1.6,5-1.69.71-2.82,2.72-5.26,2.49,3.53-1.47,2.09-7.18,6.85-7.53Z"/><path class="cls-2" d="M280.53,170.47c1.83-.81,2.47-2.78,3.9-4,.77-.63,1.86-1.46,2.77-.25s-.24,1.89-.95,2.3c-1.75,1-3.08,3.52-5.71,1.89Z"/><path class="cls-2" d="M291.62,142.36c.94.41.91,1.23,1.06,1.87.23,1,1.83,1.75.8,3-.12.15-.94,0-1.23-.29-1.07-.93-2.21-1.9-1.34-3.56A10.08,10.08,0,0,1,291.62,142.36Z"/><path class="cls-2" d="M273.39,96.47l1.21-.16c2.34,1.33,5.3,1.2,7.4,3.1l0,0C278.86,99.16,275.83,98.64,273.39,96.47Z"/><path class="cls-1" d="M294,181.15l2.24-.78c1.17.5,3-.27,3.48,2C297.68,182.12,295.72,182.31,294,181.15Z"/><path class="cls-1" d="M205.51,122.43c-.06-2-.86-3.44.42-4.73.13-.13.9.09.9.15C206.83,119.32,207,120.87,205.51,122.43Z"/><path class="cls-2" d="M279.1,170.46c0-1.77.13-3.47,2.47-4,.12,1.59-1.71,2.5-1,4l0,0H279.1Z"/><path class="cls-2" d="M241,115.32a10.32,10.32,0,0,1-1.06-.7s.12-.51.23-.54c.77-.15.89.48,1.08,1Z"/><path class="cls-2" d="M229.59,159l.17-.27-.15.29Z"/><path class="cls-2" d="M282,99.41l.31.37-.36-.32Z"/><path class="cls-3" d="M230.85,61.2c.47-.69,1.2-1.29,1.73-.79.77.73-.18.88-.69,1A3.37,3.37,0,0,1,230.85,61.2Z"/><path class="cls-3" d="M289.33,225.48c-1.4.07-2.81.13-4.21.22-.94.06-1.64-.2-1.72-1.27s-.09-1.71,1-2.32c2.28-1.23,4.32-.2,6.45.29C291,223.75,289.36,224.21,289.33,225.48Z"/><path class="cls-3" d="M231.73,233.62l.32.14-.28-.18Z"/><path class="cls-3" d="M240,135.28c-1.17-1.06,1.39-2.74-.5-3.36-1.61-.53-.78,1.66-1.71,2.18-1.52-.68-.75-2.35-1.42-3.41a1.21,1.21,0,0,1,.29-1.61c1.81-1.49,3.93,1.35,6.51-1.36,2.79-2.93,4,2.35,5.92,4,.91.79.54,2.76-.42,2.54-3.69-.85-2.16,2.28-3,3.72-1.76-.36-2-2-2.75-3.06C241.46,132.92,240.82,135,240,135.28Z"/><path class="cls-3" d="M220.15,140c-1.76-4.09.72-7.26,1.67-10.65.36-1.3,1.47-2.28,3-1,.18.15.41.35.61.34,5.44-.23,4.57,2,1.92,4.91-.08.09-.12.23-.21.28-1.1.62,1.36,3-.95,2.55-2.07-.37.32-2.22-.52-3.49-2-.37-2.49,1.63-3.54,2.65S222.51,139.13,220.15,140Z"/><path class="cls-3" d="M239,136.84c-2.83,2.4-5.31,3.3-8.17,3.29-.46,0-1-.13-1-.75a.91.91,0,0,1,1-1.12C233.41,138.62,235.37,136.3,239,136.84Z"/><path class="cls-3" d="M230.26,136.69c-1-.14-1.29-.61-1.32-1.27-.09-1.81,1.75-1.58,2.62-2.38.19-.18.8.58.56,1A6,6,0,0,1,230.26,136.69Z"/></g></svg>