<svg id="图层_1" data-name="图层 1" xmlns="http://www.w3.org/2000/svg" xmlns:xlink="http://www.w3.org/1999/xlink" viewBox="0 0 464 387"><defs><style>.cls-1,.cls-11,.cls-5,.cls-8{fill:none;}.cls-2{clip-path:url(#clip-path);}.cls-3{fill:#67574b;stroke:#68584c;}.cls-10,.cls-11,.cls-3,.cls-4,.cls-5,.cls-6,.cls-7,.cls-8,.cls-9{stroke-miterlimit:10;}.cls-4,.cls-7{fill:#d3ccc7;}.cls-11,.cls-4,.cls-5,.cls-6,.cls-7{stroke:#000;}.cls-10,.cls-5,.cls-6,.cls-7,.cls-9{stroke-width:0.75px;}.cls-6{fill:#999;}.cls-8{stroke:#fff;stroke-width:2px;}.cls-9{fill:#f2f2f2;stroke:#f2f2f2;}.cls-10{fill:#ccc;stroke:#4d4d4d;}</style><clipPath id="clip-path"><rect class="cls-1" x="-8" y="-0.34" width="442" height="304.34"/></clipPath></defs><title>timeline</title><g class="cls-2"><polygon class="cls-3" points="87.37 -6.98 382.58 41.95 394.19 313.12 22.68 382.78 26.83 -36.83 87.37 -6.98"/><polygon class="cls-4" points="357.29 131.93 353.15 146.85 362.27 194.12 381.34 228.95 394.19 287.42 413.27 235.17 397.1 188.32 397.1 158.46 378.02 131.93 357.29 131.93"/><path class="cls-5" d="M381.37,167.26s6.61-6.31,13.24-5.48"/><path class="cls-5" d="M359.28,148.41s12.53-.31,14.19-1.14c0,0,.83,9.12,9.12,10"/><path class="cls-6" d="M344.44,148.93a52.85,52.85,0,0,1-5.8,1.66s.83,5,3.32,5.8,8.29-1.66,10-.83S344.44,148.93,344.44,148.93Z"/><path class="cls-6" d="M346.93,158s-2.49.83,0,4.15,9.12,1.66,9.12,1.66Z"/><path class="cls-7" d="M383,235.59s-3.73-12-8.71-16.17-14.93-22.39-14.1-28.2c.39-2.7-.31-7.2-1.24-11.4"/><path class="cls-4" d="M413.27,235.17c-6.63-12.44-6.63-41.46-5.8-46.44S410,161.37,409.12,158s-14.93-24-16.59-28.2-.83-5-6.63-5.8-16.59-.83-20.73,0-18.24,5.8-19.07,5.8,1.66,5,1.66,5l8.29,5s8.29-1.66,11.61-3.32c0,0,8.29,2.49,10.78,2.49,0,0,4.15,10.78,6.63,11.61,0,0-7.46,5-2.49,15.76,0,0-4.15,3.32-5.8,3.32"/><path class="cls-6" d="M354.39,165.51s-3.32,2.49-3.32,4.15,3.32,4.15,8.29,2.49S354.39,165.51,354.39,165.51Z"/><polyline class="cls-8" points="54.2 276.63 93.17 75.12 121.37 261.71"/><path class="cls-8" d="M64.15,209.46s42.29-19.9,52.24-14.1"/><path class="cls-8" d="M159.1,164.27s-16.59-28.2-27.37,34.83,34,53.07,27.37,14.93Z"/><path class="cls-8" d="M159.93,157.63s-2.49,77.12,1.66,83.76"/><path class="cls-8" d="M202.22,87.15S198.9,248,198.9,253.83"/><path class="cls-8" d="M198.9,91.29s9.12-11.61,14.1-10,18.24-3.32,15.76,47.27c0,0-1.66,18.24-8.29,20.73s-18.24,3.4-18.24,3.4,19.9-5.89,22.39,4.89A140.15,140.15,0,0,1,223,227.29s-6.33,21.19-23.9,17.23"/><path class="cls-8" d="M237,165.1s5.8-19.07,10.78-19.9,10,24,8.29,43.12S250.32,229,247,229h-3.32l-8.29-7.46,1.13-56,1.35-66.75"/><path class="cls-8" d="M293.44,102.9S286,80.51,276,117s-4.15,84.59-2.49,88.73,7.46,14.1,18.24-4.15c0,0,3.32-10.78,1.66-13.27"/><path class="cls-8" d="M310,143.54s-2.49-5.8-5.8,5.8-7.46,39-1.66,56.39c0,0,4.15,9.12,10-6.63"/><line class="cls-8" x1="326.61" y1="98.76" x2="326.61" y2="125.29"/><path class="cls-9" d="M326.61,125.29a7.25,7.25,0,0,1,5-6.63l30.68,25.71a14.85,14.85,0,0,1-4.15,5Z"/><path class="cls-4" d="M359,179.82A71.52,71.52,0,0,0,356,169.66c-.83-1.66-5.8-7.46-10-10.78s-5.07-15-5.07-15,.1-3.22,1.76-4.88,3.32-1.66,8.29-.83,10.78,11.61,10.78,12.44c0,.56,6.82,9.07,11.24,14.53"/><path class="cls-10" d="M341.12,147.27s-5.8-10.78,4.15-11.61c0,0,2.49-2.49,8.29,10.78,0,0-5.8,5.8-7.46,5.8S341.12,147.27,341.12,147.27Z"/><path class="cls-11" d="M380.51,228.12c3.32,3.32,13.27,58.88,13.27,58.88"/></g></svg>