<?xml version="1.0" standalone="no"?>
<!DOCTYPE svg PUBLIC "-//W3C//DTD SVG 20010904//EN"
 "http://www.w3.org/TR/2001/REC-SVG-20010904/DTD/svg10.dtd">
<svg version="1.0" xmlns="http://www.w3.org/2000/svg"
 width="16.000000pt" height="16.000000pt" viewBox="0 0 16.000000 16.000000"
 preserveAspectRatio="xMidYMid meet">
<metadata>
Created by potrace 1.11, written by Peter Selinger 2001-2013
</metadata>
<g transform="translate(0.000000,16.000000) scale(0.010458,-0.010458)"
fill="#000000" stroke="none">
<path d="M590 1516 c-161 -37 -366 -177 -460 -315 -91 -135 -131 -279 -126
-446 5 -125 7 -139 42 -235 91 -252 290 -439 528 -495 33 -8 75 -14 91 -14 25
0 23 2 -16 13 -136 36 -237 152 -269 309 -20 97 0 138 67 142 24 1 42 9 55 24
22 28 22 43 2 101 -38 108 38 186 134 136 17 -9 32 -20 32 -25 0 -9 46 -31 76
-35 23 -4 71 22 80 43 3 9 8 40 10 68 1 29 5 57 9 63 10 15 40 12 108 -12 l63
-21 43 31 c60 44 93 42 152 -8 58 -49 90 -52 121 -10 12 16 27 30 34 30 16 0
54 -78 54 -111 0 -31 10 -44 38 -52 28 -7 61 22 63 56 5 110 -33 255 -103 389
-59 115 -173 231 -288 295 -39 22 -152 61 -196 69 -16 2 -36 7 -44 10 -31 12
-246 12 -300 0z"/>
</g>
</svg>
