<?xml version="1.0" standalone="no"?>
<!DOCTYPE svg PUBLIC "-//W3C//DTD SVG 20010904//EN"
 "http://www.w3.org/TR/2001/REC-SVG-20010904/DTD/svg10.dtd">
<svg version="1.0" xmlns="http://www.w3.org/2000/svg"
 width="16.000000pt" height="16.000000pt" viewBox="0 0 16.000000 16.000000"
 preserveAspectRatio="xMidYMid meet">
<metadata>
Created by potrace 1.11, written by Peter Selinger 2001-2013
</metadata>
<g transform="translate(0.000000,16.000000) scale(0.002168,-0.002168)"
fill="#000000" stroke="none">
<path d="M6633 5921 c-23 -11 -52 -36 -67 -58 -23 -33 -57 -122 -72 -188 -11
-50 -25 -123 -30 -155 -7 -55 -34 -140 -61 -195 -43 -85 -100 -155 -229 -281
l-124 -121 109 28 c255 65 493 196 667 367 113 111 177 229 176 324 -1 183
-219 347 -369 279z"/>
<path d="M5478 5898 c-110 -38 -197 -158 -216 -298 -16 -116 -2 -186 48 -241
45 -49 54 -83 33 -123 -21 -41 -132 -145 -195 -183 -54 -33 -227 -106 -245
-104 -2 0 -21 -6 -44 -14 -57 -21 -59 -20 -59 23 -2 146 -108 215 -329 213
-122 0 -292 -35 -369 -75 -17 -9 -36 -16 -42 -16 -11 0 -178 -81 -259 -126
-64 -35 -307 -200 -378 -257 l-70 -56 56 112 c103 202 150 401 129 542 -15
105 -41 161 -100 216 -93 88 -280 134 -407 99 -137 -37 -224 -170 -230 -352
-3 -90 12 -140 69 -228 61 -93 80 -146 80 -222 0 -89 -45 -204 -143 -363 -40
-65 -197 -255 -211 -255 -4 0 -30 19 -56 43 -79 71 -195 92 -320 57 -271 -74
-465 -273 -607 -625 -22 -55 -50 -129 -61 -166 -31 -97 -109 -407 -116 -459
-30 -233 -19 -843 20 -1044 2 -12 -15 0 -49 34 -115 117 -252 212 -382 265
-55 22 -89 29 -157 31 -105 4 -168 -15 -258 -76 -139 -94 -241 -231 -254 -341
-17 -134 86 -252 264 -302 43 -12 124 -29 137 -29 2 0 35 -9 75 -19 40 -11 80
-21 88 -24 140 -36 298 -141 444 -295 l68 -72 482 0 c264 0 487 1 494 1 8 1
11 8 8 19 -5 15 -12 92 -22 227 -9 122 -11 657 -3 725 27 215 142 560 235 700
108 165 321 351 503 440 177 87 297 85 412 -4 135 -105 219 -114 292 -31 49
56 123 245 183 470 55 205 99 339 126 383 24 39 76 81 109 87 107 22 136 22
182 0 20 -9 45 -31 57 -48 30 -43 88 -87 115 -87 27 0 41 15 51 55 19 80 93
132 185 129 75 -3 231 -14 260 -19 13 -2 47 -6 74 -10 107 -13 176 -25 336
-59 197 -42 327 -26 401 48 35 36 104 171 122 237 32 126 0 237 -84 290 -59
36 -219 78 -317 82 -27 1 -10 13 65 47 87 39 345 209 379 249 119 139 154 295
100 448 -27 80 -93 179 -156 236 -120 108 -395 167 -543 115z"/>
<path d="M4023 5772 c-18 -10 -50 -34 -71 -54 -33 -32 -42 -49 -62 -129 -28
-112 -94 -291 -155 -417 -25 -52 -45 -96 -45 -99 0 -6 115 83 215 168 265 224
388 387 356 472 -22 57 -171 94 -238 59z"/>
<path d="M6022 4165 c3 -3 26 -20 51 -38 107 -76 192 -170 250 -277 47 -87 69
-168 73 -268 3 -96 13 -113 82 -144 89 -40 213 -17 260 49 56 79 48 211 -19
309 -85 125 -268 236 -541 328 -127 43 -169 54 -156 41z"/>
<path d="M1004 3680 c-160 -35 -191 -224 -79 -467 63 -136 188 -298 296 -384
l37 -29 -33 66 c-45 88 -54 149 -70 454 -11 210 -26 280 -69 328 -29 33 -46
40 -82 32z"/>
</g>
</svg>
